<svg xmlns="http://www.w3.org/2000/svg" xmlns:xlink="http://www.w3.org/1999/xlink" viewBox="0 0 1000 500"><defs><style>.cls-1,.cls-5,.cls-6{fill:none;}.cls-2{fill:#383f46;}.cls-3{fill:#fff;}.cls-4{fill:#15ff79;}.cls-5,.cls-6{stroke:#15ff79;}.cls-5{stroke-miterlimit:10;}.cls-6{stroke-linecap:round;stroke-linejoin:round;stroke-width:5px;}.cls-7{clip-path:url(#clip-path);}</style><clipPath id="clip-path"><rect class="cls-1" x="68.48" y="25.37" width="144" height="224" transform="matrix(0.81, 0.59, -0.59, 0.81, 107.23, -56.28)"/></clipPath></defs><g id="Layer_1" data-name="Layer 1"><rect class="cls-2" width="1000" height="500"/></g><g id="Layer_2" data-name="Layer 2"><path class="cls-3" d="M371,180.32h27.89l-.08,6.4H371Zm13.3,36.09a8.22,8.22,0,0,1-3.75-3.43,17,17,0,0,1-2-6.16,53.78,53.78,0,0,1-.4-9.24l1-26.22,8.15-1,.8-.08.08.71a7.62,7.62,0,0,0-.68,1.1,6.22,6.22,0,0,0-.44,1.89l-.8,10.17.32.87-.56,12.53a38.42,38.42,0,0,0,.32,8.32,6.84,6.84,0,0,0,1.92,4.09,4.87,4.87,0,0,0,3.27,1.15,10,10,0,0,0,4.6-1,26.59,26.59,0,0,0,4-2.56L402,213.4a21.39,21.39,0,0,1-5.67,3,19.2,19.2,0,0,1-6.39,1A13.61,13.61,0,0,1,384.28,216.41Z"/><path class="cls-3" d="M422.12,217.48q-6.17,0-9.55-2.8a9,9,0,0,1-3.4-7.29,10.55,10.55,0,0,1,1.4-5.4,12.59,12.59,0,0,1,4-4.14,21.24,21.24,0,0,1,6.27-2.72,32.45,32.45,0,0,1,8.31-1c.64,0,1.32,0,2,0l2.31.12,2.52.16.24,5.67c-.75-.11-1.53-.19-2.36-.24s-1.63-.08-2.43-.08h-2.24a29,29,0,0,0-5.39.43,11.74,11.74,0,0,0-3.76,1.28,5.8,5.8,0,0,0-2.2,2.1,5.65,5.65,0,0,0-.72,2.88,5.12,5.12,0,0,0,.48,2.29,3.71,3.71,0,0,0,1.32,1.52,6.35,6.35,0,0,0,2,.81,10.51,10.51,0,0,0,2.52.28,11.69,11.69,0,0,0,4.63-.86,9.09,9.09,0,0,0,3.4-2.52,11.37,11.37,0,0,0,2.11-4.2,21.83,21.83,0,0,0,.72-6,20.1,20.1,0,0,0-1.08-7.38,6.6,6.6,0,0,0-3.15-3.65,11.93,11.93,0,0,0-5.2-1,14.52,14.52,0,0,0-4.91.84,12.54,12.54,0,0,0-4.59,3.07L411.17,185a18.74,18.74,0,0,1,6.67-4.16,22.46,22.46,0,0,1,7.47-1.27,24.51,24.51,0,0,1,6.52.82,14,14,0,0,1,5.27,2.73,12.07,12.07,0,0,1,3.51,5.12,23.11,23.11,0,0,1,1.24,8.21v20.43h-8.31v-4.79a12.15,12.15,0,0,1-2.31,2.67,10.43,10.43,0,0,1-2.76,1.68,13.5,13.5,0,0,1-3.08.84A21.88,21.88,0,0,1,422.12,217.48Z"/><path class="cls-3" d="M460.15,216.84a23.8,23.8,0,0,1-5.55-1.92,20,20,0,0,1-4.76-3.27l3.68-6.71.48-.72.56.32a12.86,12.86,0,0,0,.4,1.31,5.12,5.12,0,0,0,1.12,1.64,15.26,15.26,0,0,0,4.39,2.68,16.4,16.4,0,0,0,6.07,1,13.49,13.49,0,0,0,4.2-.57,6.29,6.29,0,0,0,2.67-1.6,3.31,3.31,0,0,0,1-2.32,3,3,0,0,0-.52-1.76,5.25,5.25,0,0,0-1.55-1.41,16.45,16.45,0,0,0-2.72-1.33,37.07,37.07,0,0,0-4.08-1.29,41.36,41.36,0,0,1-7.11-2.7,13.86,13.86,0,0,1-4.71-3.64,7.81,7.81,0,0,1-1.68-5,8.11,8.11,0,0,1,1.72-5.12,11.57,11.57,0,0,1,4.91-3.56,19.62,19.62,0,0,1,7.59-1.33,27,27,0,0,1,4.52.36,18.51,18.51,0,0,1,3.91,1.07,18.13,18.13,0,0,1,3.4,1.8,21,21,0,0,1,3,2.52L477,190.71l-.48.64-.56-.48a3.62,3.62,0,0,0-.36-1.2,6.19,6.19,0,0,0-1.16-1.43,12.64,12.64,0,0,0-3.83-1.92,14.25,14.25,0,0,0-4.24-.64,12.29,12.29,0,0,0-4.91.91,2.93,2.93,0,0,0-2.12,2.72,2.86,2.86,0,0,0,.92,2,9.43,9.43,0,0,0,3,1.84,39.49,39.49,0,0,0,5.67,1.84,32.14,32.14,0,0,1,7.35,2.7,11.13,11.13,0,0,1,4.12,3.56,8.58,8.58,0,0,1,1.31,4.77,10.2,10.2,0,0,1-1.71,5.68,11.88,11.88,0,0,1-5.16,4.19,20.21,20.21,0,0,1-8.39,1.56A29.6,29.6,0,0,1,460.15,216.84Z"/><path class="cls-3" d="M502.1,199.62,498.42,203v13.81h-8V163.71h8.71v.71a2.08,2.08,0,0,0-.6,1,10.44,10.44,0,0,0-.12,1.91v27.25l15.66-14.76a8.79,8.79,0,0,0,1.2.23c.43.06.87.1,1.32.13l1.32.08,1.12,0h3.59l-14.94,14.45,17.1,22.07-9.27.32Z"/><path class="cls-3" d="M534.38,194.87v-6.71h23v6.71Z"/><path class="cls-3" d="M569.94,230.18V180.32h7.91v5.92a11.06,11.06,0,0,1,2.67-3.88,10.5,10.5,0,0,1,3.64-2.15,13.11,13.11,0,0,1,4.31-.68,13.69,13.69,0,0,1,5.72,1.21,14,14,0,0,1,4.75,3.56,17,17,0,0,1,3.28,5.87,25.52,25.52,0,0,1,1.2,8.22,25,25,0,0,1-1.28,8.37,18.06,18.06,0,0,1-3.4,6,13.78,13.78,0,0,1-4.83,3.56,14,14,0,0,1-5.6,1.17,15.14,15.14,0,0,1-3.95-.52,11.73,11.73,0,0,1-3.56-1.6,13.68,13.68,0,0,1-2.79-2.51v17.33Zm16.38-19.09a8.88,8.88,0,0,0,3.43-.66,7.88,7.88,0,0,0,2.88-2.09,10,10,0,0,0,2-4,22.69,22.69,0,0,0,.72-6.16,19.26,19.26,0,0,0-1-6.58,9.21,9.21,0,0,0-2.88-4.18,7.47,7.47,0,0,0-4.51-1.55,8.13,8.13,0,0,0-3.68.66,7.19,7.19,0,0,0-2.88,2.32,11.13,11.13,0,0,0-1.79,4.18,27.63,27.63,0,0,0-.6,6.16,23.26,23.26,0,0,0,.36,4.3,12.77,12.77,0,0,0,1.08,3.33,8.2,8.2,0,0,0,1.71,2.36,6.59,6.59,0,0,0,2.32,1.39A8.46,8.46,0,0,0,586.32,211.09Z"/><path class="cls-3" d="M618.24,216.27a14.75,14.75,0,0,1-4.92-3.56,16.68,16.68,0,0,1-3.39-6,26,26,0,0,1-1.24-8.41,25.21,25.21,0,0,1,1.24-8.38,16.46,16.46,0,0,1,3.39-5.83,14,14,0,0,1,5-3.44,15.28,15.28,0,0,1,5.83-1.13,13.4,13.4,0,0,1,4,.55,10.46,10.46,0,0,1,3.23,1.68,8.56,8.56,0,0,1,2.32,2.8V163.71h8.47v.71a2.82,2.82,0,0,0-.56,1,6.45,6.45,0,0,0-.08,1.91v44.32q0,1.27.12,2.58a8.36,8.36,0,0,0,.68,2.58h-7.83a8.46,8.46,0,0,1-.56-1.68,7.14,7.14,0,0,1-.16-1.52v-1.59a14.13,14.13,0,0,1-2.56,2.91,10,10,0,0,1-3.27,1.88,11.76,11.76,0,0,1-3.92.64A14,14,0,0,1,618.24,216.27ZM629,210.08a6.63,6.63,0,0,0,2.48-2.48,12.9,12.9,0,0,0,1.44-3.95,26.22,26.22,0,0,0,.48-5.27,22.91,22.91,0,0,0-.88-6.78,8.68,8.68,0,0,0-2.76-4.33,7.31,7.31,0,0,0-4.75-1.51,7.69,7.69,0,0,0-3.68.85,7.49,7.49,0,0,0-2.67,2.44,11.85,11.85,0,0,0-1.64,3.83,21.07,21.07,0,0,0-.56,5,18.8,18.8,0,0,0,1.16,6.89,10.57,10.57,0,0,0,3.15,4.53,7.13,7.13,0,0,0,4.56,1.59A7.46,7.46,0,0,0,629,210.08Z"/><path class="cls-3" d="M657.35,186.64h-7.91v-6.32h7.91v-2.48a15.24,15.24,0,0,1,2-8.23,12.46,12.46,0,0,1,5.39-4.82,17.24,17.24,0,0,1,7.35-1.56,17.73,17.73,0,0,1,6.79,1.27,14.31,14.31,0,0,1,5.36,3.84l-3.36,5.51-.4.64-.56-.32a7.47,7.47,0,0,0-.44-1.28,5,5,0,0,0-1.23-1.51,8.46,8.46,0,0,0-2.64-1.44,10.47,10.47,0,0,0-3.12-.4,8.37,8.37,0,0,0-3.87.84A5.85,5.85,0,0,0,666.1,173a10.66,10.66,0,0,0-.92,4.79v2.49h11.51v6.32H665.18v30.2h-7.83Z"/><path class="cls-3" d="M694.19,194.87v-6.71h23v6.71Z"/><path class="cls-3" d="M733.5,216.84l-7-36.52h6.79l4.79,26.37,5.67-22.45h4.32l6.71,22.29c.53-3.88,1-7.12,1.36-9.72s.64-4.77.8-6.53.26-3.25.32-4.49.08-2.45.08-3.65v-1.82h7q-.55,5.91-1.44,12.13t-2,12.39q-1.11,6.18-2.31,12h-7l-5.67-21-5.35,21Z"/><path class="cls-3" d="M773.45,180.32h8.23L781.52,191l-1-.88a13,13,0,0,1,1.52-4.35,11.9,11.9,0,0,1,2.75-3.32,12.87,12.87,0,0,1,3.64-2.11,11.51,11.51,0,0,1,4.15-.76,14.18,14.18,0,0,1,5.52,1,13.51,13.51,0,0,1,4.47,3.12l-3.35,6.55-.32.72-.64-.32-.48-1.28a4.42,4.42,0,0,0-1.2-1.51,9.74,9.74,0,0,0-2.36-1.2,8.06,8.06,0,0,0-2.67-.4,10.72,10.72,0,0,0-3.72.66,9.22,9.22,0,0,0-3.24,2.08,10,10,0,0,0-2.27,3.56,14.31,14.31,0,0,0-.84,5.2v19.1h-8.07Z"/><path class="cls-3" d="M812.68,216.84v-6.31h9.19V186.64h-8.79v-6.32h16.78v30.21h8.39v6.31Zm12.7-44.19a5,5,0,0,1-3.63-1.47,4.76,4.76,0,0,1-1.48-3.48,4.88,4.88,0,0,1,1.44-3.6,5,5,0,0,1,3.67-1.43,5.05,5.05,0,0,1,3.64,1.51,4.79,4.79,0,0,1,1.56,3.52,4.66,4.66,0,0,1-1.56,3.48A5.14,5.14,0,0,1,825.38,172.65Z"/><path class="cls-3" d="M850.39,180.32h27.89l-.08,6.4H850.39Zm13.31,36.09a8.24,8.24,0,0,1-3.76-3.43,17,17,0,0,1-2-6.16,52.78,52.78,0,0,1-.4-9.24l1-26.22,8.15-1,.8-.08.08.71a8.61,8.61,0,0,0-.68,1.1,6.28,6.28,0,0,0-.43,1.89l-.8,10.17.31.87-.55,12.53a37.78,37.78,0,0,0,.32,8.32,6.9,6.9,0,0,0,1.91,4.09,4.9,4.9,0,0,0,3.28,1.15,10,10,0,0,0,4.59-1,26.67,26.67,0,0,0,4-2.56l1.76,5.91a21.6,21.6,0,0,1-5.68,3,19.2,19.2,0,0,1-6.39,1A13.59,13.59,0,0,1,863.7,216.41Z"/><path class="cls-3" d="M907.05,217.48a20.92,20.92,0,0,1-7.35-1.25,15.88,15.88,0,0,1-9.59-9.55,22,22,0,0,1-1.36-8,22.48,22.48,0,0,1,1.36-8.1,17.32,17.32,0,0,1,3.71-6,16.59,16.59,0,0,1,5.51-3.75,17.2,17.2,0,0,1,6.76-1.33,16.19,16.19,0,0,1,5.95,1.1,13.83,13.83,0,0,1,5,3.26,15.63,15.63,0,0,1,3.36,5.47,22.13,22.13,0,0,1,1.24,7.72v1.77a16.09,16.09,0,0,1-.08,1.69H896.42a12.88,12.88,0,0,0,1.12,4.78,10.1,10.1,0,0,0,2.43,3.32,9.46,9.46,0,0,0,3.4,1.92,13.32,13.32,0,0,0,4,.61,15.07,15.07,0,0,0,3.39-.36,11.58,11.58,0,0,0,3-1.16,9.68,9.68,0,0,0,2.63-2.16l4.16,4.08a16.3,16.3,0,0,1-3.76,3.31,16,16,0,0,1-4.51,2A20.42,20.42,0,0,1,907.05,217.48Zm-10.47-22.93h17.26a11.66,11.66,0,0,0-.56-3.78,7.79,7.79,0,0,0-1.64-2.78,6.79,6.79,0,0,0-2.6-1.73,9.24,9.24,0,0,0-3.35-.58,9.41,9.41,0,0,0-3.24.54,8.12,8.12,0,0,0-2.68,1.62,9.36,9.36,0,0,0-2,2.74A12.46,12.46,0,0,0,896.58,194.55Z"/><path class="cls-3" d="M933.25,180.32h8.23L941.32,191l-1-.88a13,13,0,0,1,1.51-4.35,12.11,12.11,0,0,1,2.76-3.32,12.6,12.6,0,0,1,3.64-2.11,11.48,11.48,0,0,1,4.15-.76,14.16,14.16,0,0,1,5.51,1,13.54,13.54,0,0,1,4.48,3.12l-3.36,6.55-.32.72-.64-.32-.48-1.28a4.49,4.49,0,0,0-1.19-1.51,9.93,9.93,0,0,0-2.36-1.2,8.17,8.17,0,0,0-2.68-.4,10.67,10.67,0,0,0-3.71.66,9.22,9.22,0,0,0-3.24,2.08,9.92,9.92,0,0,0-2.28,3.56,14.31,14.31,0,0,0-.84,5.2v19.1h-8.07Z"/><path class="cls-4" d="M383.53,285.6H386l5.24,20,4.52-20h3.73l-6.25,25.56h-3.65l-4.71-17.86L380,311.16h-3.66l-6.24-25.56h3.73l4.51,20Z"/><path class="cls-4" d="M401.94,292.92h3.58v18.24h-3.58Zm8.84,3.44a4.33,4.33,0,0,0-1.67-.3,3.62,3.62,0,0,0-2.65.94,3.57,3.57,0,0,0-.94,2.61l-.37-3.51a6.74,6.74,0,0,1,2.18-2.54,5.2,5.2,0,0,1,3-.91,6.64,6.64,0,0,1,2.25.36,5,5,0,0,1,1.77,1.07L412,297.24A2.92,2.92,0,0,0,410.78,296.36Z"/><path class="cls-4" d="M417.3,285.6h3.59v3.59H417.3Zm0,7.32h3.59v18.24H417.3Z"/><path class="cls-4" d="M424.93,292.92h8.22v3.23h-8.22ZM427.84,310a5.47,5.47,0,0,1-1-3.61V287.61h3.59v18.84a1.69,1.69,0,0,0,.26,1,.88.88,0,0,0,.77.36h1.72v3.41h-2.07A4,4,0,0,1,427.84,310Z"/><path class="cls-4" d="M441.22,310.48a6.4,6.4,0,0,1-2.73-2.79,9.58,9.58,0,0,1-.94-4.44V301.2a10.83,10.83,0,0,1,.9-4.63,6.48,6.48,0,0,1,2.63-2.91,8.1,8.1,0,0,1,4.15-1,6.52,6.52,0,0,1,3.9,1.15,7.08,7.08,0,0,1,2.47,3.3,14.1,14.1,0,0,1,.86,5.19v1.19H440.15V300.6h8.9a6.09,6.09,0,0,0-1.16-3.47,3.22,3.22,0,0,0-2.66-1.24,3.86,3.86,0,0,0-3.15,1.33A5.7,5.7,0,0,0,441,301v2.32a4.77,4.77,0,0,0,1.19,3.48,4.56,4.56,0,0,0,3.4,1.22,5.75,5.75,0,0,0,2.16-.44,6.7,6.7,0,0,0,1.92-1.23L452,308.7a9.81,9.81,0,0,1-3,2,8.61,8.61,0,0,1-3.39.72A9.2,9.2,0,0,1,441.22,310.48Z"/><path class="cls-3" d="M467.84,310a5.21,5.21,0,0,1-1.67-4.25,5.16,5.16,0,0,1,1.53-4.06,6.81,6.81,0,0,1,4.62-1.35h5.18l.25,2.88h-5.41a3,3,0,0,0-2.1.63,2.84,2.84,0,0,0,.22,4,4.77,4.77,0,0,0,2.81.67,8.2,8.2,0,0,0,3.07-.44,1.45,1.45,0,0,0,1-1.37l.37,2.56a4.26,4.26,0,0,1-1.17,1.22,5.36,5.36,0,0,1-1.61.71,8.15,8.15,0,0,1-2.06.24A7.71,7.71,0,0,1,467.84,310Zm9.51-10.43a3.84,3.84,0,0,0-1-2.79,3.62,3.62,0,0,0-2.72-1,7,7,0,0,0-2.13.33,6.24,6.24,0,0,0-1.86.93l-2.62-1.79a6.85,6.85,0,0,1,2.74-1.94,9.7,9.7,0,0,1,3.77-.7,8.72,8.72,0,0,1,3.88.8,5.59,5.59,0,0,1,2.46,2.32,7.4,7.4,0,0,1,.85,3.67v11.72h-3.41Z"/><path class="cls-3" d="M486.21,292.92h3.58v18.24h-3.58Zm11.07,7.19a4.16,4.16,0,0,0-1-3,4.33,4.33,0,0,0-5.53-.12,3.47,3.47,0,0,0-1,2.61l-.37-3.51a6.52,6.52,0,0,1,2.21-2.55,5.35,5.35,0,0,1,3-.9,5.65,5.65,0,0,1,4.6,2,8.32,8.32,0,0,1,1.63,5.49v11.07h-3.59Z"/><path class="cls-3" d="M508.68,310.61a5.51,5.51,0,0,1-2.15-2.54,9.73,9.73,0,0,1-.74-4v-4a10.15,10.15,0,0,1,.72-4,5.47,5.47,0,0,1,2.1-2.54,6.07,6.07,0,0,1,3.31-.87,5.45,5.45,0,0,1,3,.84,6.26,6.26,0,0,1,2.17,2.38l-.36,3.72a4.32,4.32,0,0,0-.43-2A2.86,2.86,0,0,0,515,296.3a4,4,0,0,0-1.94-.43,3.47,3.47,0,0,0-2.75,1.11,4.55,4.55,0,0,0-1,3.11v4a4.42,4.42,0,0,0,1,3.07,3.52,3.52,0,0,0,2.75,1.08,3.89,3.89,0,0,0,1.94-.45,2.93,2.93,0,0,0,1.22-1.29,4.49,4.49,0,0,0,.43-2l.24,3.85a5.23,5.23,0,0,1-1.78,2.27,5.08,5.08,0,0,1-3,.91A6.39,6.39,0,0,1,508.68,310.61Zm8-25h3.58v25.56h-3.58Z"/><path class="cls-4" d="M538.49,310.5a6.36,6.36,0,0,1-2.7-2.71,9.18,9.18,0,0,1-.93-4.29v-3a8.93,8.93,0,0,1,.93-4.23,6.19,6.19,0,0,1,2.7-2.68,9.05,9.05,0,0,1,4.26-.93,10,10,0,0,1,2.68.35,7.71,7.71,0,0,1,2.26,1,6,6,0,0,1,1.67,1.58l-2.58,2.32a5.4,5.4,0,0,0-1.81-1.35,5.08,5.08,0,0,0-2.16-.48,4.32,4.32,0,0,0-3.22,1.16,4.49,4.49,0,0,0-1.14,3.27v3a4.66,4.66,0,0,0,1.13,3.34,4.3,4.3,0,0,0,3.23,1.18,4.91,4.91,0,0,0,2.18-.51,5.28,5.28,0,0,0,1.79-1.44l2.58,2.49a6.43,6.43,0,0,1-1.68,1.56,8.21,8.21,0,0,1-2.26,1,10.07,10.07,0,0,1-2.67.34A9.05,9.05,0,0,1,538.49,310.5Z"/><path class="cls-4" d="M556.25,310.5a6.21,6.21,0,0,1-2.57-2.72,9.58,9.58,0,0,1-.89-4.3v-3a9.35,9.35,0,0,1,.89-4.24,6.08,6.08,0,0,1,2.57-2.69,9.35,9.35,0,0,1,8.13,0,6.08,6.08,0,0,1,2.57,2.69,9.35,9.35,0,0,1,.89,4.24v3a9.45,9.45,0,0,1-.89,4.27,6.27,6.27,0,0,1-2.57,2.7,9.35,9.35,0,0,1-8.13,0Zm7-3.66a4.86,4.86,0,0,0,1-3.31v-3a4.79,4.79,0,0,0-1-3.29,4.22,4.22,0,0,0-5.81,0,4.79,4.79,0,0,0-1,3.29v3a4.86,4.86,0,0,0,1,3.31,4.17,4.17,0,0,0,5.81,0Z"/><path class="cls-4" d="M576.52,306.45a1.62,1.62,0,0,0,.29,1,1,1,0,0,0,.82.36h1.69v3.41h-2.11a4,4,0,0,1-3.16-1.26,5.26,5.26,0,0,1-1.11-3.57V285.6h3.58Z"/><path class="cls-4" d="M587,306.45a1.56,1.56,0,0,0,.29,1,1,1,0,0,0,.81.36h1.69v3.41h-2.11a4,4,0,0,1-3.15-1.26,5.21,5.21,0,0,1-1.12-3.57V285.6H587Z"/><path class="cls-4" d="M594.4,310a5.24,5.24,0,0,1-1.67-4.25,5.16,5.16,0,0,1,1.53-4.06,6.81,6.81,0,0,1,4.62-1.35h5.19l.24,2.88H598.9a3,3,0,0,0-2.1.63,2.4,2.4,0,0,0-.7,1.9,2.36,2.36,0,0,0,.93,2.06,4.74,4.74,0,0,0,2.8.67,8.2,8.2,0,0,0,3.07-.44,1.45,1.45,0,0,0,1-1.37l.37,2.56a4.26,4.26,0,0,1-1.17,1.22,5.25,5.25,0,0,1-1.61.71,8.09,8.09,0,0,1-2.06.24A7.71,7.71,0,0,1,594.4,310Zm9.51-10.43a3.84,3.84,0,0,0-1-2.79,3.6,3.6,0,0,0-2.72-1,7.07,7.07,0,0,0-2.13.33,6.24,6.24,0,0,0-1.86.93l-2.62-1.79a6.92,6.92,0,0,1,2.74-1.94,9.74,9.74,0,0,1,3.77-.7,8.69,8.69,0,0,1,3.88.8,5.59,5.59,0,0,1,2.46,2.32,7.4,7.4,0,0,1,.85,3.67v11.72h-3.41Z"/><path class="cls-4" d="M612.77,285.6h3.58v25.56h-3.58Zm5.2,25a4.85,4.85,0,0,1-1.86-2.31l.24-3.82a4.27,4.27,0,0,0,.43,2,2.86,2.86,0,0,0,1.22,1.26,3.89,3.89,0,0,0,1.94.44,3.52,3.52,0,0,0,2.75-1.08,4.4,4.4,0,0,0,1-3.05v-3.95a4.53,4.53,0,0,0-1-3.11,3.47,3.47,0,0,0-2.75-1.11,4.12,4.12,0,0,0-1.94.42,2.76,2.76,0,0,0-1.22,1.24,4.11,4.11,0,0,0-.43,2L616,296a6.48,6.48,0,0,1,2.17-2.47,5.32,5.32,0,0,1,3-.87,6.07,6.07,0,0,1,3.31.87,5.47,5.47,0,0,1,2.1,2.54,10.19,10.19,0,0,1,.72,4v4a9.54,9.54,0,0,1-.74,4,5.44,5.44,0,0,1-2.16,2.53,6.4,6.4,0,0,1-3.41.87A5.38,5.38,0,0,1,618,310.61Z"/><path class="cls-4" d="M635.29,310.5a6.17,6.17,0,0,1-2.58-2.72,9.58,9.58,0,0,1-.89-4.3v-3a9.35,9.35,0,0,1,.89-4.24,6.05,6.05,0,0,1,2.58-2.69,9.33,9.33,0,0,1,8.12,0,6.08,6.08,0,0,1,2.57,2.69,9.35,9.35,0,0,1,.89,4.24v3a9.45,9.45,0,0,1-.89,4.27,6.27,6.27,0,0,1-2.57,2.7,9.33,9.33,0,0,1-8.12,0Zm7-3.66a4.86,4.86,0,0,0,1-3.31v-3a4.79,4.79,0,0,0-1-3.29,4.22,4.22,0,0,0-5.81,0,4.79,4.79,0,0,0-1,3.29v3a4.86,4.86,0,0,0,1,3.31,4.17,4.17,0,0,0,5.81,0Z"/><path class="cls-4" d="M652,292.92h3.58v18.24H652Zm8.84,3.44a4.33,4.33,0,0,0-1.67-.3,3.62,3.62,0,0,0-2.65.94,3.57,3.57,0,0,0-.94,2.61l-.37-3.51a6.74,6.74,0,0,1,2.18-2.54,5.2,5.2,0,0,1,3-.91,6.74,6.74,0,0,1,2.26.36,5,5,0,0,1,1.76,1.07L662,297.24A2.92,2.92,0,0,0,660.81,296.36Z"/><path class="cls-4" d="M668.12,310a5.24,5.24,0,0,1-1.67-4.25,5.16,5.16,0,0,1,1.53-4.06,6.81,6.81,0,0,1,4.62-1.35h5.19l.25,2.88h-5.42a3,3,0,0,0-2.1.63,2.43,2.43,0,0,0-.69,1.9,2.35,2.35,0,0,0,.92,2.06,4.74,4.74,0,0,0,2.8.67,8.17,8.17,0,0,0,3.07-.44,1.45,1.45,0,0,0,1-1.37l.37,2.56a4.26,4.26,0,0,1-1.17,1.22,5.25,5.25,0,0,1-1.61.71,8.07,8.07,0,0,1-2.05.24A7.74,7.74,0,0,1,668.12,310Zm9.51-10.43a3.84,3.84,0,0,0-1-2.79,3.6,3.6,0,0,0-2.71-1,7.08,7.08,0,0,0-2.14.33,6.18,6.18,0,0,0-1.85.93l-2.62-1.79a6.82,6.82,0,0,1,2.73-1.94,9.74,9.74,0,0,1,3.77-.7,8.76,8.76,0,0,1,3.89.8,5.69,5.69,0,0,1,2.46,2.32,7.51,7.51,0,0,1,.84,3.67v11.72h-3.41Z"/><path class="cls-4" d="M685.08,292.92h8.23v3.23h-8.23ZM688,310a5.53,5.53,0,0,1-1-3.61V287.61h3.59v18.84a1.76,1.76,0,0,0,.26,1,.92.92,0,0,0,.78.36h1.72v3.41h-2.07A4,4,0,0,1,688,310Z"/><path class="cls-4" d="M701.38,310.48a6.3,6.3,0,0,1-2.73-2.79,9.58,9.58,0,0,1-.94-4.44V301.2a10.83,10.83,0,0,1,.9-4.63,6.43,6.43,0,0,1,2.63-2.91,8.1,8.1,0,0,1,4.15-1,6.54,6.54,0,0,1,3.9,1.15,7.08,7.08,0,0,1,2.47,3.3,14.11,14.11,0,0,1,.85,5.19v1.19h-12.3V300.6h8.89a6.09,6.09,0,0,0-1.15-3.47,3.22,3.22,0,0,0-2.66-1.24,3.9,3.9,0,0,0-3.16,1.33,5.76,5.76,0,0,0-1.11,3.78v2.32a4.72,4.72,0,0,0,1.19,3.48A4.55,4.55,0,0,0,705.7,308a5.76,5.76,0,0,0,2.17-.44,6.51,6.51,0,0,0,1.91-1.23l2.36,2.35a9.93,9.93,0,0,1-3,2,8.62,8.62,0,0,1-3.4.72A9.16,9.16,0,0,1,701.38,310.48Z"/><path class="cls-3" d="M730.14,310.5a6.17,6.17,0,0,1-2.58-2.72,9.58,9.58,0,0,1-.89-4.3v-3a9.35,9.35,0,0,1,.89-4.24,6.05,6.05,0,0,1,2.58-2.69,9.33,9.33,0,0,1,8.12,0,6.08,6.08,0,0,1,2.57,2.69,9.35,9.35,0,0,1,.89,4.24v3a9.45,9.45,0,0,1-.89,4.27,6.27,6.27,0,0,1-2.57,2.7,9.33,9.33,0,0,1-8.12,0Zm7-3.66a4.91,4.91,0,0,0,1-3.31v-3a4.84,4.84,0,0,0-1-3.29,4.23,4.23,0,0,0-5.82,0,4.79,4.79,0,0,0-1,3.29v3a4.86,4.86,0,0,0,1,3.31,4.18,4.18,0,0,0,5.82,0Z"/><path class="cls-3" d="M746.82,292.92h3.58v18.24h-3.58Zm11.07,7.19a4.16,4.16,0,0,0-1-3,4.33,4.33,0,0,0-5.53-.12,3.47,3.47,0,0,0-1,2.61L750,296.1a6.49,6.49,0,0,1,2.2-2.55,5.35,5.35,0,0,1,3-.9,5.63,5.63,0,0,1,4.59,2,8.27,8.27,0,0,1,1.63,5.49v11.07h-3.59Z"/><path class="cls-3" d="M779.7,310.5a6.36,6.36,0,0,1-2.7-2.71,9.18,9.18,0,0,1-.93-4.29v-3a8.93,8.93,0,0,1,.93-4.23,6.19,6.19,0,0,1,2.7-2.68,9.05,9.05,0,0,1,4.26-.93,10.09,10.09,0,0,1,2.68.35,7.83,7.83,0,0,1,2.26,1,6.15,6.15,0,0,1,1.67,1.58L788,297.89a5.4,5.4,0,0,0-1.81-1.35,5.15,5.15,0,0,0-2.17-.48,4.31,4.31,0,0,0-3.21,1.16,4.49,4.49,0,0,0-1.15,3.27v3a4.62,4.62,0,0,0,1.14,3.34A4.27,4.27,0,0,0,784,308a4.85,4.85,0,0,0,2.18-.51,5.41,5.41,0,0,0,1.8-1.44l2.58,2.49a6.47,6.47,0,0,1-1.69,1.56,8.08,8.08,0,0,1-2.26,1,9.94,9.94,0,0,1-2.66.34A9.05,9.05,0,0,1,779.7,310.5Z"/><path class="cls-3" d="M797.46,310.5a6.21,6.21,0,0,1-2.57-2.72,9.45,9.45,0,0,1-.89-4.3v-3a9.22,9.22,0,0,1,.89-4.24,6.08,6.08,0,0,1,2.57-2.69,9.33,9.33,0,0,1,8.12,0,6.05,6.05,0,0,1,2.58,2.69,9.35,9.35,0,0,1,.88,4.24v3a9.45,9.45,0,0,1-.88,4.27,6.23,6.23,0,0,1-2.58,2.7,9.33,9.33,0,0,1-8.12,0Zm7-3.66a4.86,4.86,0,0,0,1-3.31v-3a4.79,4.79,0,0,0-1-3.29,4.23,4.23,0,0,0-5.82,0,4.84,4.84,0,0,0-1,3.29v3a4.91,4.91,0,0,0,1,3.31,4.18,4.18,0,0,0,5.82,0Z"/><path class="cls-3" d="M814.14,292.92h3.59v18.24h-3.59Zm10.9,7.19a4.33,4.33,0,0,0-.95-3,3.44,3.44,0,0,0-2.69-1.06,3.69,3.69,0,0,0-2.71.94,3.47,3.47,0,0,0-1,2.61l-.37-3.51a6.52,6.52,0,0,1,2.21-2.55,5.32,5.32,0,0,1,3-.9,5.91,5.91,0,0,1,3.27.87,5.54,5.54,0,0,1,2.07,2.54,10.38,10.38,0,0,1,.71,4v11.07H825Zm10.9,0a4.16,4.16,0,0,0-1-3,3.72,3.72,0,0,0-2.82-1.06,3.29,3.29,0,0,0-2.58,1,4.17,4.17,0,0,0-.91,2.89l-.72-3.52a6.94,6.94,0,0,1,2.27-2.8,5.29,5.29,0,0,1,3.12-1,6.24,6.24,0,0,1,3.37.87,5.53,5.53,0,0,1,2.13,2.54,10.18,10.18,0,0,1,.73,4v11.07h-3.59Z"/><path class="cls-3" d="M845,292.92h3.59v25.66H845Zm5.21,17.69a4.82,4.82,0,0,1-1.87-2.31l.25-3.82a4.39,4.39,0,0,0,.42,2,2.91,2.91,0,0,0,1.22,1.26,3.93,3.93,0,0,0,1.95.44,3.52,3.52,0,0,0,2.75-1.08,4.4,4.4,0,0,0,1-3.05v-3.95a4.53,4.53,0,0,0-1-3.11,3.47,3.47,0,0,0-2.75-1.11,4.16,4.16,0,0,0-1.95.42,2.81,2.81,0,0,0-1.22,1.24,4.23,4.23,0,0,0-.42,2l-.37-3.52a6.38,6.38,0,0,1,2.16-2.47,5.32,5.32,0,0,1,3-.87,6.11,6.11,0,0,1,3.32.87,5.47,5.47,0,0,1,2.1,2.54,10.19,10.19,0,0,1,.72,4v4a9.7,9.7,0,0,1-.74,4,5.44,5.44,0,0,1-2.16,2.53,6.43,6.43,0,0,1-3.41.87A5.38,5.38,0,0,1,850.18,310.61Z"/><path class="cls-3" d="M867.7,310.48a6.4,6.4,0,0,1-2.73-2.79,9.58,9.58,0,0,1-.94-4.44V301.2a10.83,10.83,0,0,1,.9-4.63,6.48,6.48,0,0,1,2.63-2.91,8.1,8.1,0,0,1,4.15-1,6.52,6.52,0,0,1,3.9,1.15,7.08,7.08,0,0,1,2.47,3.3,14.1,14.1,0,0,1,.86,5.19v1.19H866.63V300.6h8.9a6.09,6.09,0,0,0-1.16-3.47,3.22,3.22,0,0,0-2.66-1.24,3.86,3.86,0,0,0-3.15,1.33,5.7,5.7,0,0,0-1.12,3.78v2.32a4.77,4.77,0,0,0,1.19,3.48A4.56,4.56,0,0,0,872,308a5.75,5.75,0,0,0,2.16-.44,6.7,6.7,0,0,0,1.92-1.23l2.35,2.35a9.81,9.81,0,0,1-3,2,8.61,8.61,0,0,1-3.39.72A9.2,9.2,0,0,1,867.7,310.48Z"/><path class="cls-3" d="M882.45,292.92h8.23v3.23h-8.23ZM885.36,310a5.47,5.47,0,0,1-1-3.61V287.61h3.59v18.84a1.76,1.76,0,0,0,.26,1,.92.92,0,0,0,.78.36h1.72v3.41H888.6A4,4,0,0,1,885.36,310Z"/><path class="cls-3" d="M895.6,285.6h3.59v3.59H895.6Zm0,7.32h3.59v18.24H895.6Z"/><path class="cls-3" d="M903.23,292.92h8.23v3.23h-8.23ZM906.14,310a5.47,5.47,0,0,1-1-3.61V287.61h3.59v18.84a1.69,1.69,0,0,0,.26,1,.88.88,0,0,0,.77.36h1.73v3.41h-2.08A4,4,0,0,1,906.14,310Z"/><path class="cls-3" d="M916.38,285.6H920v3.59h-3.58Zm0,7.32H920v18.24h-3.58Z"/><path class="cls-3" d="M936.15,292.92h3.75L933,311.16h-2.71l-6.85-18.24h3.74l4.47,13Z"/><path class="cls-3" d="M946.21,310.48a6.37,6.37,0,0,1-2.74-2.79,9.71,9.71,0,0,1-.94-4.44V301.2a10.68,10.68,0,0,1,.91-4.63,6.43,6.43,0,0,1,2.63-2.91,8.06,8.06,0,0,1,4.14-1,6.55,6.55,0,0,1,3.91,1.15,7.08,7.08,0,0,1,2.47,3.3,14.11,14.11,0,0,1,.85,5.19v1.19H945.13V300.6H954a6.16,6.16,0,0,0-1.15-3.47,3.23,3.23,0,0,0-2.67-1.24,3.88,3.88,0,0,0-3.15,1.33,5.76,5.76,0,0,0-1.12,3.78v2.32a4.73,4.73,0,0,0,1.2,3.48,4.55,4.55,0,0,0,3.39,1.22,5.67,5.67,0,0,0,2.16-.44,6.43,6.43,0,0,0,1.92-1.23L957,308.7a9.7,9.7,0,0,1-3,2,8.54,8.54,0,0,1-3.39.72A9.13,9.13,0,0,1,946.21,310.48Z"/><path class="cls-3" d="M372.33,328.92h3.59v25.66h-3.59Zm5.21,17.69a4.82,4.82,0,0,1-1.87-2.31l.25-3.82a4.39,4.39,0,0,0,.42,2,2.91,2.91,0,0,0,1.22,1.26,3.93,3.93,0,0,0,1.95.44,3.52,3.52,0,0,0,2.75-1.08,4.4,4.4,0,0,0,1-3.05v-3.95a4.53,4.53,0,0,0-1-3.11,3.47,3.47,0,0,0-2.75-1.11,4.16,4.16,0,0,0-1.95.42,2.81,2.81,0,0,0-1.22,1.24,4.23,4.23,0,0,0-.42,2l-.37-3.52a6.38,6.38,0,0,1,2.16-2.47,5.32,5.32,0,0,1,3-.87,6.11,6.11,0,0,1,3.32.87,5.47,5.47,0,0,1,2.1,2.54,10.19,10.19,0,0,1,.72,4v4a9.7,9.7,0,0,1-.74,4,5.44,5.44,0,0,1-2.16,2.53,6.43,6.43,0,0,1-3.41.87A5.38,5.38,0,0,1,377.54,346.61Z"/><path class="cls-3" d="M391.92,328.92h3.58v18.24h-3.58Zm8.84,3.44a4.33,4.33,0,0,0-1.67-.3,3.62,3.62,0,0,0-2.65.94,3.57,3.57,0,0,0-.94,2.61l-.37-3.51a6.74,6.74,0,0,1,2.18-2.54,5.2,5.2,0,0,1,3-.91,6.64,6.64,0,0,1,2.25.36,5,5,0,0,1,1.77,1.07L402,333.24A2.92,2.92,0,0,0,400.76,332.36Z"/><path class="cls-3" d="M409.86,346.5a6.21,6.21,0,0,1-2.57-2.72,9.58,9.58,0,0,1-.89-4.3v-3a9.35,9.35,0,0,1,.89-4.24,6.08,6.08,0,0,1,2.57-2.69,9.33,9.33,0,0,1,8.12,0,6.05,6.05,0,0,1,2.58,2.69,9.35,9.35,0,0,1,.89,4.24v3a9.45,9.45,0,0,1-.89,4.27,6.23,6.23,0,0,1-2.58,2.7,9.33,9.33,0,0,1-8.12,0Zm7-3.66a4.86,4.86,0,0,0,1-3.31v-3a4.79,4.79,0,0,0-1-3.29,4.22,4.22,0,0,0-5.81,0,4.79,4.79,0,0,0-1,3.29v3a4.86,4.86,0,0,0,1,3.31,4.17,4.17,0,0,0,5.81,0Z"/><path class="cls-3" d="M428.91,346.61a5.51,5.51,0,0,1-2.15-2.54,9.73,9.73,0,0,1-.74-4v-4a10.15,10.15,0,0,1,.72-4,5.47,5.47,0,0,1,2.1-2.54,6.07,6.07,0,0,1,3.31-.87,5.45,5.45,0,0,1,3,.84,6.36,6.36,0,0,1,2.18,2.38l-.37,3.72a4.19,4.19,0,0,0-.43-2,2.86,2.86,0,0,0-1.22-1.26,4,4,0,0,0-1.94-.43,3.47,3.47,0,0,0-2.75,1.11,4.55,4.55,0,0,0-1,3.11v4a4.42,4.42,0,0,0,1,3.07,3.52,3.52,0,0,0,2.75,1.08,3.89,3.89,0,0,0,1.94-.45,2.93,2.93,0,0,0,1.22-1.29,4.36,4.36,0,0,0,.43-2l.24,3.85a5.23,5.23,0,0,1-1.78,2.27,5.06,5.06,0,0,1-3.05.91A6.39,6.39,0,0,1,428.91,346.61Zm.07,7.21a5.93,5.93,0,0,1-2.52-2.16l2.42-2.19a5.06,5.06,0,0,0,1.68,1.49,4.68,4.68,0,0,0,5.23-.61,4.34,4.34,0,0,0,1.13-3.2V328.92h3.58v17.7a9.35,9.35,0,0,1-.92,4.3,6.26,6.26,0,0,1-2.68,2.73,9,9,0,0,1-4.24.93A8.53,8.53,0,0,1,429,353.82Z"/><path class="cls-3" d="M446,328.92h3.59v18.24H446Zm8.84,3.44a4.29,4.29,0,0,0-1.67-.3,3.59,3.59,0,0,0-2.64.94,3.52,3.52,0,0,0-.94,2.61l-.37-3.51a6.66,6.66,0,0,1,2.18-2.54,5.17,5.17,0,0,1,2.95-.91,6.7,6.7,0,0,1,2.26.36,5.15,5.15,0,0,1,1.77,1.07L456,333.24A3,3,0,0,0,454.79,332.36Z"/><path class="cls-3" d="M462.11,346a5.21,5.21,0,0,1-1.67-4.25,5.16,5.16,0,0,1,1.53-4.06,6.8,6.8,0,0,1,4.62-1.35h5.18l.25,2.88h-5.41a3,3,0,0,0-2.1.63,2.84,2.84,0,0,0,.22,4,4.77,4.77,0,0,0,2.81.67,8.11,8.11,0,0,0,3.06-.44,1.44,1.44,0,0,0,1-1.37l.36,2.56a4.1,4.1,0,0,1-1.16,1.22,5.36,5.36,0,0,1-1.61.71,8.15,8.15,0,0,1-2.06.24A7.71,7.71,0,0,1,462.11,346Zm9.51-10.43a3.84,3.84,0,0,0-1-2.79,3.62,3.62,0,0,0-2.72-1,7,7,0,0,0-2.13.33,6.24,6.24,0,0,0-1.86.93l-2.62-1.79a6.85,6.85,0,0,1,2.74-1.94,9.7,9.7,0,0,1,3.77-.7,8.72,8.72,0,0,1,3.88.8,5.59,5.59,0,0,1,2.46,2.32,7.51,7.51,0,0,1,.85,3.67v11.72h-3.41Z"/><path class="cls-3" d="M480.48,328.92h3.58v18.24h-3.58Zm10.89,7.19a4.28,4.28,0,0,0-.95-3,3.43,3.43,0,0,0-2.69-1.06A3.69,3.69,0,0,0,485,333a3.47,3.47,0,0,0-1,2.61l-.37-3.51a6.52,6.52,0,0,1,2.21-2.55,5.35,5.35,0,0,1,3-.9,5.91,5.91,0,0,1,3.27.87,5.54,5.54,0,0,1,2.07,2.54,10.38,10.38,0,0,1,.71,4v11.07h-3.59Zm10.9,0a4.16,4.16,0,0,0-1-3,3.72,3.72,0,0,0-2.81-1.06,3.29,3.29,0,0,0-2.59,1A4.17,4.17,0,0,0,495,336l-.72-3.52a6.88,6.88,0,0,1,2.28-2.8,5.25,5.25,0,0,1,3.12-1,6.22,6.22,0,0,1,3.36.87,5.53,5.53,0,0,1,2.13,2.54,10,10,0,0,1,.73,4v11.07h-3.59Z"/><path class="cls-3" d="M511.31,328.92h3.58v18.24h-3.58Zm10.9,7.19a4.33,4.33,0,0,0-1-3,3.46,3.46,0,0,0-2.69-1.06,3.7,3.7,0,0,0-2.72.94,3.47,3.47,0,0,0-1,2.61l-.37-3.51a6.6,6.6,0,0,1,2.21-2.55,5.35,5.35,0,0,1,3-.9,5.91,5.91,0,0,1,3.27.87,5.42,5.42,0,0,1,2.07,2.54,10.38,10.38,0,0,1,.71,4v11.07h-3.58Zm10.89,0a4.16,4.16,0,0,0-1-3,3.7,3.7,0,0,0-2.81-1.06,3.27,3.27,0,0,0-2.58,1,4.18,4.18,0,0,0-.92,2.89l-.72-3.52a6.88,6.88,0,0,1,2.28-2.8,5.25,5.25,0,0,1,3.12-1,6.22,6.22,0,0,1,3.36.87,5.47,5.47,0,0,1,2.13,2.54,10,10,0,0,1,.73,4v11.07H533.1Z"/><path class="cls-3" d="M542.14,321.6h3.58v3.59h-3.58Zm0,7.32h3.58v18.24h-3.58Z"/><path class="cls-3" d="M551.17,328.92h3.59v18.24h-3.59Zm11.08,7.19a4.2,4.2,0,0,0-1-3,4.33,4.33,0,0,0-5.53-.12,3.47,3.47,0,0,0-1,2.61l-.37-3.51a6.52,6.52,0,0,1,2.21-2.55,5.32,5.32,0,0,1,3-.9,5.67,5.67,0,0,1,4.6,2,8.32,8.32,0,0,1,1.62,5.49v11.07h-3.58Z"/><path class="cls-3" d="M573.65,346.61a5.53,5.53,0,0,1-2.16-2.54,9.91,9.91,0,0,1-.73-4v-4a10.15,10.15,0,0,1,.72-4,5.47,5.47,0,0,1,2.1-2.54,6.07,6.07,0,0,1,3.31-.87,5.45,5.45,0,0,1,3,.84,6.26,6.26,0,0,1,2.17,2.38l-.37,3.72a4.32,4.32,0,0,0-.42-2A2.91,2.91,0,0,0,580,332.3a4,4,0,0,0-1.94-.43,3.46,3.46,0,0,0-2.75,1.11,4.55,4.55,0,0,0-1,3.11v4a4.42,4.42,0,0,0,1,3.07,3.51,3.51,0,0,0,2.75,1.08,3.89,3.89,0,0,0,1.94-.45,3,3,0,0,0,1.22-1.29,4.49,4.49,0,0,0,.42-2l.25,3.85a5.23,5.23,0,0,1-1.78,2.27,5.08,5.08,0,0,1-3,.91A6.39,6.39,0,0,1,573.65,346.61Zm.07,7.21a5.82,5.82,0,0,1-2.52-2.16l2.42-2.19A5.06,5.06,0,0,0,575.3,351a4.68,4.68,0,0,0,5.23-.61,4.33,4.33,0,0,0,1.12-3.2V328.92h3.59v17.7a9.35,9.35,0,0,1-.92,4.3,6.26,6.26,0,0,1-2.68,2.73,9,9,0,0,1-4.24.93A8.53,8.53,0,0,1,573.72,353.82Z"/><path class="cls-3" d="M599,328.92h8.23v3.23H599ZM601.86,346a5.47,5.47,0,0,1-1-3.61V323.61h3.59v18.84a1.76,1.76,0,0,0,.26,1,.92.92,0,0,0,.78.36h1.72v3.41H605.1A4,4,0,0,1,601.86,346Z"/><path class="cls-3" d="M612.89,346a5.24,5.24,0,0,1-1.67-4.25,5.16,5.16,0,0,1,1.53-4.06,6.81,6.81,0,0,1,4.62-1.35h5.19l.24,2.88h-5.41a3,3,0,0,0-2.1.63,2.43,2.43,0,0,0-.69,1.9,2.35,2.35,0,0,0,.92,2.06,4.74,4.74,0,0,0,2.8.67,8.17,8.17,0,0,0,3.07-.44,1.45,1.45,0,0,0,1-1.37l.37,2.56a4.26,4.26,0,0,1-1.17,1.22,5.25,5.25,0,0,1-1.61.71,8.07,8.07,0,0,1-2,.24A7.74,7.74,0,0,1,612.89,346Zm9.51-10.43a3.84,3.84,0,0,0-1-2.79,3.6,3.6,0,0,0-2.71-1,7.08,7.08,0,0,0-2.14.33,6.18,6.18,0,0,0-1.85.93l-2.62-1.79a6.82,6.82,0,0,1,2.73-1.94,9.74,9.74,0,0,1,3.77-.7,8.76,8.76,0,0,1,3.89.8,5.69,5.69,0,0,1,2.46,2.32,7.51,7.51,0,0,1,.84,3.67v11.72H622.4Z"/><path class="cls-3" d="M634.68,347.11a11.13,11.13,0,0,1-2.65-.95,10.32,10.32,0,0,1-2.26-1.58l2.12-2.62a12.37,12.37,0,0,0,2.94,1.69,8,8,0,0,0,2.88.56,6.15,6.15,0,0,0,3.19-.66,2.17,2.17,0,0,0,1.06-2,1.56,1.56,0,0,0-.58-1.32,3.24,3.24,0,0,0-1.44-.58c-.57-.1-1.38-.19-2.42-.28h-.3l-.3,0h-.28a14.15,14.15,0,0,1-3-.52,4.1,4.1,0,0,1-2-1.41,4.73,4.73,0,0,1-.81-3,6,6,0,0,1,.79-3.22,4.82,4.82,0,0,1,2.35-1.93,10.57,10.57,0,0,1,3.92-.64,13.28,13.28,0,0,1,2.72.27,11.64,11.64,0,0,1,2.47.78,12.11,12.11,0,0,1,2.27,1.31l-2.17,2.62a11.72,11.72,0,0,0-2.69-1.32,8.35,8.35,0,0,0-2.6-.44,5,5,0,0,0-2.74.62,2.12,2.12,0,0,0-.91,1.88,1.24,1.24,0,0,0,.52,1.1,3,3,0,0,0,1.31.5q.78.12,2.25.21h.22l.23,0h.11l.1,0a15.19,15.19,0,0,1,3.26.51,4.41,4.41,0,0,1,2.26,1.53,5.17,5.17,0,0,1,.92,3.3,5.77,5.77,0,0,1-.85,3.26,5.09,5.09,0,0,1-2.54,1.95,12.08,12.08,0,0,1-4.26.65A13.87,13.87,0,0,1,634.68,347.11Z"/><path class="cls-3" d="M649.93,321.6h3.58v25.56h-3.58Zm1.54,18.64,9.39-11.32h4.22l-13.83,15.57Zm4.24-3.61,2.3-2.39,8,12.92h-3.91Z"/><path class="cls-3" d="M672.38,347.11a11.06,11.06,0,0,1-2.64-.95,10.38,10.38,0,0,1-2.27-1.58L669.6,342a12.12,12.12,0,0,0,2.93,1.69,8.14,8.14,0,0,0,2.89.56,6.17,6.17,0,0,0,3.19-.66,2.17,2.17,0,0,0,1.06-2,1.56,1.56,0,0,0-.58-1.32,3.34,3.34,0,0,0-1.44-.58c-.58-.1-1.38-.19-2.43-.28h-.3l-.3,0h-.28a14.05,14.05,0,0,1-3-.52,4.06,4.06,0,0,1-2.05-1.41,4.73,4.73,0,0,1-.82-3,6.12,6.12,0,0,1,.79-3.22,4.84,4.84,0,0,1,2.36-1.93,10.54,10.54,0,0,1,3.92-.64,13.18,13.18,0,0,1,2.71.27,11.29,11.29,0,0,1,2.47.78A11.51,11.51,0,0,1,683,331l-2.16,2.62a11.58,11.58,0,0,0-2.7-1.32,8.29,8.29,0,0,0-2.59-.44,4.94,4.94,0,0,0-2.74.62,2.13,2.13,0,0,0-.92,1.88,1.27,1.27,0,0,0,.52,1.1,3.1,3.1,0,0,0,1.31.5q.79.12,2.25.21h.22l.24,0h.1l.11,0a15.29,15.29,0,0,1,3.26.51,4.41,4.41,0,0,1,2.26,1.53,5.17,5.17,0,0,1,.91,3.3,5.85,5.85,0,0,1-.84,3.26,5.09,5.09,0,0,1-2.54,1.95,12.08,12.08,0,0,1-4.26.65A14,14,0,0,1,672.38,347.11Z"/><path class="cls-3" d="M695.72,328.92h3.74l3.24,13,4.55-13h2.5l4.55,13,3.23-13h3.75l-5.63,18.24H713l-4.45-12.6-4.45,12.6h-2.71Z"/><path class="cls-3" d="M725.14,321.6h3.59v3.59h-3.59Zm0,7.32h3.59v18.24h-3.59Z"/><path class="cls-3" d="M732.77,328.92H741v3.23h-8.23ZM735.68,346a5.53,5.53,0,0,1-1-3.61V323.61h3.59v18.84a1.76,1.76,0,0,0,.26,1,.92.92,0,0,0,.78.36H741v3.41h-2.07A4,4,0,0,1,735.68,346Z"/><path class="cls-3" d="M745.92,321.6h3.59v25.56h-3.59ZM757,336.11a4.16,4.16,0,0,0-1-3,3.69,3.69,0,0,0-2.81-1.06,3.75,3.75,0,0,0-2.71.92,3.39,3.39,0,0,0-1,2.58l-.37-3.51a6.52,6.52,0,0,1,2.2-2.51,5.45,5.45,0,0,1,3-.89,5.67,5.67,0,0,1,4.6,2,8.32,8.32,0,0,1,1.62,5.49v11.07H757Z"/><path class="cls-3" d="M778.85,346.48a6.37,6.37,0,0,1-2.74-2.79,9.71,9.71,0,0,1-.94-4.44V337.2a10.68,10.68,0,0,1,.91-4.63,6.43,6.43,0,0,1,2.63-2.91,8.06,8.06,0,0,1,4.14-1,6.55,6.55,0,0,1,3.91,1.15,7.15,7.15,0,0,1,2.47,3.3,14.32,14.32,0,0,1,.85,5.19v1.19H777.77V336.6h8.9a6.16,6.16,0,0,0-1.15-3.47,3.24,3.24,0,0,0-2.67-1.24,3.86,3.86,0,0,0-3.15,1.33,5.7,5.7,0,0,0-1.12,3.78v2.32a4.73,4.73,0,0,0,1.2,3.48,4.54,4.54,0,0,0,3.39,1.22,5.67,5.67,0,0,0,2.16-.44,6.43,6.43,0,0,0,1.92-1.23l2.35,2.35a9.7,9.7,0,0,1-3,2,8.54,8.54,0,0,1-3.39.72A9.13,9.13,0,0,1,778.85,346.48Z"/><path class="cls-3" d="M795.79,346a5.24,5.24,0,0,1-1.67-4.25,5.16,5.16,0,0,1,1.53-4.06,6.81,6.81,0,0,1,4.62-1.35h5.19l.25,2.88h-5.42a3,3,0,0,0-2.1.63,2.43,2.43,0,0,0-.69,1.9,2.35,2.35,0,0,0,.92,2.06,4.74,4.74,0,0,0,2.8.67,8.17,8.17,0,0,0,3.07-.44,1.45,1.45,0,0,0,1-1.37l.37,2.56a4.26,4.26,0,0,1-1.17,1.22,5.25,5.25,0,0,1-1.61.71,8.07,8.07,0,0,1-2,.24A7.74,7.74,0,0,1,795.79,346Zm9.51-10.43a3.84,3.84,0,0,0-1-2.79,3.6,3.6,0,0,0-2.71-1,7.08,7.08,0,0,0-2.14.33,6.18,6.18,0,0,0-1.85.93L795,331.29a6.82,6.82,0,0,1,2.73-1.94,9.74,9.74,0,0,1,3.77-.7,8.76,8.76,0,0,1,3.89.8,5.69,5.69,0,0,1,2.46,2.32,7.51,7.51,0,0,1,.84,3.67v11.72H805.3Z"/><path class="cls-3" d="M817.58,347.11a11.13,11.13,0,0,1-2.65-.95,10.32,10.32,0,0,1-2.26-1.58l2.12-2.62a12.37,12.37,0,0,0,2.94,1.69,8,8,0,0,0,2.88.56,6.15,6.15,0,0,0,3.19-.66,2.18,2.18,0,0,0,1.07-2,1.59,1.59,0,0,0-.58-1.32,3.33,3.33,0,0,0-1.45-.58c-.57-.1-1.38-.19-2.42-.28h-.3l-.3,0h-.28a14.15,14.15,0,0,1-3-.52,4,4,0,0,1-2-1.41,4.67,4.67,0,0,1-.82-3,6,6,0,0,1,.79-3.22,4.82,4.82,0,0,1,2.35-1.93,10.57,10.57,0,0,1,3.92-.64,13.28,13.28,0,0,1,2.72.27,11.64,11.64,0,0,1,2.47.78,11.8,11.8,0,0,1,2.27,1.31L826,333.63a12,12,0,0,0-2.7-1.32,8.35,8.35,0,0,0-2.6-.44,5,5,0,0,0-2.74.62,2.12,2.12,0,0,0-.91,1.88,1.24,1.24,0,0,0,.52,1.1,3,3,0,0,0,1.31.5q.78.12,2.25.21h.22l.23,0h.11l.1,0a15.19,15.19,0,0,1,3.26.51,4.41,4.41,0,0,1,2.26,1.53,5.17,5.17,0,0,1,.92,3.3,5.77,5.77,0,0,1-.85,3.26,5.09,5.09,0,0,1-2.54,1.95,12.08,12.08,0,0,1-4.26.65A13.87,13.87,0,0,1,817.58,347.11Z"/><path class="cls-3" d="M836,346.48a6.4,6.4,0,0,1-2.73-2.79,9.58,9.58,0,0,1-.94-4.44V337.2a10.68,10.68,0,0,1,.91-4.63,6.46,6.46,0,0,1,2.62-2.91,8.13,8.13,0,0,1,4.15-1,6.5,6.5,0,0,1,3.9,1.15,7,7,0,0,1,2.47,3.3,14.1,14.1,0,0,1,.86,5.19v1.19H834.9V336.6h8.9a6.16,6.16,0,0,0-1.15-3.47,3.24,3.24,0,0,0-2.67-1.24,3.86,3.86,0,0,0-3.15,1.33,5.7,5.7,0,0,0-1.12,3.78v2.32a4.73,4.73,0,0,0,1.2,3.48A4.52,4.52,0,0,0,840.3,344a5.67,5.67,0,0,0,2.16-.44,6.56,6.56,0,0,0,1.92-1.23l2.35,2.35a9.7,9.7,0,0,1-3,2,8.54,8.54,0,0,1-3.39.72A9.2,9.2,0,0,1,836,346.48Z"/><line class="cls-5" x1="370" y1="242" x2="962" y2="242"/></g><g id="Layer_3" data-name="Layer 3"><line class="cls-6" x1="34.48" y1="160.37" x2="110.48" y2="55.37"/><line class="cls-6" x1="110.48" y1="55.37" x2="339.48" y2="55.37"/><line class="cls-6" x1="339.48" y1="449.37" x2="339.48" y2="55.37"/><line class="cls-6" x1="34.48" y1="449.37" x2="339.48" y2="449.37"/><line class="cls-6" x1="34.48" y1="160.37" x2="34.48" y2="449.37"/><g class="cls-7"><rect class="cls-4" x="34.48" y="55.37" width="76" height="105"/></g><line class="cls-6" x1="110.22" y1="55.37" x2="110.22" y2="160.37"/><line class="cls-6" x1="34.48" y1="160.37" x2="110.22" y2="160.37"/><path class="cls-3" d="M171.77,324.58a42.27,42.27,0,0,0,16.16-10.19c2-2,3.9-4.24,6-6.25A16.11,16.11,0,0,1,200,304c3.67-1.15,2.1-6.95-1.6-5.79-5.77,1.81-9.63,6.59-13.65,10.82a36.8,36.8,0,0,1-14.61,9.76,3.07,3.07,0,0,0-2.09,3.69,3,3,0,0,0,3.69,2.1Z"/><path class="cls-3" d="M100,281c-.67.82-1.32,1.65-1.93,2.51-1.22,1.71.14,3.8,1.79,4.41,19.57,7.25,37.37-6.52,52.9-16.6,5-3.26,10.21-6.38,15.9-8.32a3.06,3.06,0,0,0,2.1-3.69,3,3,0,0,0-3.69-2.09c-9.64,3.27-17.86,9.33-26.29,14.85-7.57,4.95-15.59,9.87-24.62,11.48a28.12,28.12,0,0,1-14.7-1.42l1.79,4.41c.32-.45.64-.88,1-1.3a3.1,3.1,0,0,0,0-4.24,3,3,0,0,0-4.24,0Z"/><path class="cls-3" d="M99.61,281.33a8.24,8.24,0,0,0-.6,1.32,4.81,4.81,0,0,0-.21,1,3.58,3.58,0,0,0,0,.92,6.17,6.17,0,0,0,.15,1,6.82,6.82,0,0,0,.37.94,4.7,4.7,0,0,0,1.63,1.77,5.41,5.41,0,0,0,1.14.54,3.24,3.24,0,0,0,.53.16,7.65,7.65,0,0,0,1.44.15l.37,0c.38,0,.77-.09,1.16-.16a2.39,2.39,0,0,0,1-.54,2.31,2.31,0,0,0,.77-.84,3.29,3.29,0,0,0,.3-2.31,3,3,0,0,0-1.38-1.8l-.71-.3a3.1,3.1,0,0,0-1.6,0l-.27.05.8-.11a3.5,3.5,0,0,1-1,0l.8.11a2.62,2.62,0,0,1-.68-.18l.72.3a2.09,2.09,0,0,1-.44-.25l.61.46a1.57,1.57,0,0,1-.32-.31l.47.6a1.55,1.55,0,0,1-.21-.35l.3.71a1.91,1.91,0,0,1-.11-.41l.11.8a2.44,2.44,0,0,1,0-.54l-.11.8a3.06,3.06,0,0,1,.21-.73l-.3.72a3.58,3.58,0,0,1,.24-.48,3.45,3.45,0,0,0,.3-2.31,2.2,2.2,0,0,0-.54-1,2.25,2.25,0,0,0-.84-.78,3,3,0,0,0-2.31-.3,3.13,3.13,0,0,0-1.79,1.38Z"/><path class="cls-3" d="M182.7,221.08a52.45,52.45,0,0,0-21.57.55,58.82,58.82,0,0,0-18.5,8.33c-12,8-21.49,19.14-29.8,30.77-4.52,6.33-8.7,12.91-12.75,19.55-2,3.31,3.18,6.33,5.19,3,7-11.55,14.4-22.9,23.33-32.9a97.48,97.48,0,0,1,14.48-13.48,57,57,0,0,1,16.69-8.69,48.48,48.48,0,0,1,5.18-1.31,34.37,34.37,0,0,1,4.9-.64,48,48,0,0,1,11.25.57,3.08,3.08,0,0,0,3.69-2.09,3,3,0,0,0-2.09-3.69Z"/><path class="cls-3" d="M202.56,141.2q-5.82,26-13.73,51.38t-17.86,50q-5.57,13.8-11.79,27.32a3.1,3.1,0,0,0,1.08,4.11,3,3,0,0,0,4.1-1.08q11.23-24.48,20.48-49.83T201.08,172q4-14.53,7.27-29.25a3,3,0,0,0-5.79-1.59Z"/><path class="cls-3" d="M139.18,313.86a78.87,78.87,0,0,1,9.38,32.51,3.07,3.07,0,0,0,3,3,3,3,0,0,0,3-3,86,86,0,0,0-10.2-35.54c-1.88-3.37-7.06-.35-5.18,3Z"/><path class="cls-3" d="M205.09,143.37c9.22.73,19,3.77,26.07,9.79a3.08,3.08,0,0,0,4.24,0,3,3,0,0,0,0-4.24c-8.43-7.18-19.39-10.69-30.31-11.55a3,3,0,0,0-3,3,3.06,3.06,0,0,0,3,3Z"/><path class="cls-3" d="M205.34,231.36l53.48,10.39a3.08,3.08,0,0,0,3.69-2.09,3,3,0,0,0-2.1-3.69l-53.48-10.4a3.08,3.08,0,0,0-3.69,2.1,3,3,0,0,0,2.1,3.69Z"/><path class="cls-3" d="M169.87,317q-10.69,13.74-20.9,27.85A3,3,0,0,0,150,349a3.07,3.07,0,0,0,4.11-1.07q9.75-13.49,20-26.64a3.1,3.1,0,0,0,0-4.24c-1-1-3.24-1.29-4.24,0Z"/><path class="cls-3" d="M177.75,301.42a48.3,48.3,0,0,0-5.24,7.82,59.74,59.74,0,0,0-3.72,9,3,3,0,0,0,2.1,3.69,3.07,3.07,0,0,0,3.69-2.1c.49-1.48,1-2.95,1.58-4.39.13-.33.14-.34,0,0,.07-.17.14-.34.22-.5l.33-.74c.31-.65.63-1.3,1-1.94.63-1.19,1.32-2.36,2.06-3.49.39-.6.8-1.2,1.23-1.78l.64-.87c-.38.49.3-.37.37-.45a3.09,3.09,0,0,0,0-4.25c-1.09-1-3.19-1.3-4.24,0Z"/><path class="cls-3" d="M229.68,151.33q-17.33,45-34.09,90.26-4.76,12.82-9.47,25.66a3,3,0,0,0,2.1,3.69,3.06,3.06,0,0,0,3.69-2.09q16.62-45.29,33.78-90.37,4.86-12.79,9.77-25.56a3,3,0,0,0-2.09-3.69,3.07,3.07,0,0,0-3.69,2.1Z"/><path class="cls-3" d="M128.06,279.78c-7.26,3.51-13.62,9.3-16.48,17-.76,2-1.56,4.54-.28,6.52,1.43,2.2,4.52,2.61,6.9,2.91,4.72.58,9.53-.27,14.12-1.38,5.18-1.25,10.28-2.82,15.66-2.64,3.87.13,3.86-5.87,0-6-8.48-.29-16.24,3.53-24.58,4.13a21.16,21.16,0,0,1-5.51-.18c-.5-.1-1-.21-1.49-.35-.69-.21-.6-.44-.16.55.54,1.21.37.5.57-.22.1-.38.21-.75.34-1.12a21.11,21.11,0,0,1,4.51-7.28,31.59,31.59,0,0,1,9.42-6.73,3,3,0,0,0,1.08-4.1,3.06,3.06,0,0,0-4.1-1.08Z"/><path class="cls-3" d="M148.47,292.82a48.25,48.25,0,0,0-5.23,7.82,58.32,58.32,0,0,0-3.72,9,3,3,0,0,0,2.1,3.69,3.08,3.08,0,0,0,3.69-2.1c.49-1.48,1-2.95,1.58-4.39.13-.33.13-.34,0,0l.21-.49c.11-.25.23-.49.34-.74.31-.65.63-1.3,1-1.94.63-1.19,1.32-2.36,2.06-3.49.39-.6.8-1.2,1.22-1.78l.65-.87c-.38.49.3-.37.37-.45a3.09,3.09,0,0,0,0-4.25c-1.1-1-3.19-1.3-4.25,0Z"/><path class="cls-3" d="M180.59,315.75l-.88,9.35a64,64,0,0,0-.72,8.6,6.56,6.56,0,0,0,5.29,6.28,10.3,10.3,0,0,0,7.82-2,56.23,56.23,0,0,0,12.05-11.15c3.38-4.18,6.29-8.52,10.74-11.68,4.8-3.42,10.23-5.83,15.61-8.18,1.48-.65,1.82-2.82,1.08-4.1a3.08,3.08,0,0,0-4.11-1.08c-8.93,3.89-17.75,8.19-23.9,16-3.15,4-6.15,8-10,11.39a35.06,35.06,0,0,1-5.41,4.16,4.17,4.17,0,0,1-2.42.8c.42,0-.75-.23-.44-.09-.1-.05-.36-.32-.2-.1l-.22-.23c.07.09.1.11.1,0-.16-2.75.43-5.69.69-8.43l.9-9.6a3,3,0,0,0-3-3,3.06,3.06,0,0,0-3,3Z"/><path class="cls-3" d="M208.81,148.43a44.88,44.88,0,0,1,17.46,4.1l-.61-4.71a5.93,5.93,0,0,1-.43.44c.18-.12.18-.12,0,0s-.94.47-.44.28a6.14,6.14,0,0,1-.84.23c-.82.19.46,0-.4.06a31.48,31.48,0,0,1-4.23-.23c-3.24-.36-6.28-.48-9.33.87-2.44,1.09-1.59,4.85.72,5.48l13,3.57v-5.78a78.05,78.05,0,0,1-14.63,1.39,3,3,0,0,0-.8,5.89l11.09,1.93-1.32-5c-1.19,1.14-2.58,2.63-4.32,2.82.18-.07.1-.08-.25-.05.26,0,.2,0-.17-.09.37.16-.5-.3-.48-.28.18.12.14.06-.13-.17.14.19.12.14-.07-.16.05-.11-.14,1.15.12.23l-5.9-.79q-1.53,16.68-4.65,33.15a3,3,0,0,0,1.73,3.54,3,3,0,0,0,3.75-1.23,162.7,162.7,0,0,1,12.67-21.79c.56-.82,1.14-1.63,1.72-2.44a15.47,15.47,0,0,0,1.91-2.76c1-2.34-1.09-4.69-3.32-5.1-4.75-.88-6.81,4.74-8.26,8.21-3,7.16-4.06,14.9-5.7,22.44a74.48,74.48,0,0,1-3.27,11.4c-1.52,3.89-3.44,7.61-5.07,11.46-3.34,7.89-5.2,16.29-8.4,24.23a108.81,108.81,0,0,1-11.6,21.3,9.34,9.34,0,0,1-3.07,3.18s-.5.28-.22.11c0,0-.51.17-.22.09s-.18,0-.22,0,.24,0,.28,0c.19.44,0,0,0-.09l.08.17c0,.12,0-.57,0-.63a19.67,19.67,0,0,1,1.57-4.81c.72-1.82,1.51-3.62,2.36-5.38a93.54,93.54,0,0,1,6.24-10.92,111.8,111.8,0,0,0,6.51-10.54c3.88-7.71,5.52-16.38,7.58-24.69,2.17-8.73,4.29-17.48,6.23-26.27.47-2.16.94-4.32,1.39-6.48l-5.79-1.6q-3.44,19-5.41,38.23c-.61,6-1,12-1.84,18a80.28,80.28,0,0,1-4.44,17.47,177.11,177.11,0,0,1-8.65,18.2,3.07,3.07,0,0,0,1.08,4.1A3,3,0,0,0,186,268c5.7-11,11.18-22,13.26-34.29,1.06-6.21,1.54-12.49,2.13-18.75s1.32-12.65,2.17-19q1.46-10.69,3.39-21.33a3.09,3.09,0,0,0-2.1-3.69,3,3,0,0,0-3.69,2.09c-1.64,7.85-3.44,15.67-5.33,23.46C194,204,192.23,211.56,190.18,219a54.73,54.73,0,0,1-3.64,10,93.68,93.68,0,0,1-5.64,9.23A100.39,100.39,0,0,0,170.58,258c-1.18,3.07-2.55,6.79-.43,9.8,2.47,3.51,6.79,2.71,9.73.38,2.68-2.12,4.5-5.34,6.3-8.19,1.93-3,3.7-6.14,5.32-9.33a131.28,131.28,0,0,0,8.18-20.76c1.14-3.68,2.25-7.37,3.67-11,1.35-3.37,3-6.62,4.44-9.95a72.27,72.27,0,0,0,4-11.58c.93-3.75,1.62-7.54,2.39-11.32A94.63,94.63,0,0,1,217,175a40.6,40.6,0,0,1,1.91-4.75c.41-.84.88-1.65,1.34-2.47s.16-.1.08-.16a1.26,1.26,0,0,1-.92,0,1.83,1.83,0,0,1-1-1.08l.3-2.31a162.7,162.7,0,0,0-16.15,26.64l5.48,2.31q3.27-17.25,4.87-34.75c.32-3.44-5-4-5.89-.8-1,3.68,1.81,7.22,5.4,7.92,4,.77,7.25-1.82,9.93-4.39,1.52-1.46.93-4.62-1.32-5l-11.1-1.92-.79,5.89a85.88,85.88,0,0,0,16.23-1.61c3-.58,2.72-5,0-5.78l-13-3.57.72,5.48c-.32.14.66-.18.79-.21s.94-.13.47-.09a16.33,16.33,0,0,1,2.32,0c1.47.09,2.93.31,4.39.43,3.24.27,6.59-.2,8.91-2.7,1.2-1.3,1.22-3.86-.61-4.71a52.51,52.51,0,0,0-20.49-4.92c-3.86-.13-3.85,5.87,0,6Z"/><path class="cls-3" d="M149.75,298.84a74.15,74.15,0,0,0-5.16,9.47c-1.24,2.74-4.35,7.95-1.16,10.47a3.19,3.19,0,0,0,3.63.47c3.71-1.62,5.65-5.82,7.5-9.17q1.47-2.67,2.83-5.4c.49-1,1-2,1.43-3a4.57,4.57,0,0,0,.56-1.1s0,0,0,0q-.84.5-1.77-.69c-.14-.76-.2-.88-.18-.34l0-.14c-.19.43-.28,1-.44,1.42l-1.08,3.07-2.25,6.36L149,323.47c-1,2.73,3.14,5.25,5,2.92A63.61,63.61,0,0,0,161.4,315a68.27,68.27,0,0,0,2.73-6.27,24.28,24.28,0,0,1,1-2.36,7.77,7.77,0,0,1,.79-1.33l.25-.28c.41-.38.37-.37-.12,0h-1.59a1.81,1.81,0,0,1-1.3-1.61c0,.33,0,.39,0,.18s0-.14-.06.16-.19.6-.29.9c-.3.9-.6,1.8-.91,2.69q-1.05,3-2.22,6c-1.5,3.78-3.17,7.5-5,11.15a3.07,3.07,0,0,0,1.07,4.1,3,3,0,0,0,4.11-1.08l7.33-12.77c1.13-2,2.23-4,3.42-5.9a13.51,13.51,0,0,1,3.31-3.94l-4.11-4.11q-9.78,13.92-19.39,28a3,3,0,0,0,5.18,3q9.6-14.06,19.4-28c1.69-2.4-1.7-5.84-4.11-4.1-3.9,2.81-6,7.06-8.39,11.14l-7.82,13.63,5.18,3q2.79-5.64,5.15-11.48,1.14-2.85,2.18-5.74a37,37,0,0,0,1.8-5.48c.37-2-.11-4.18-2-5.22-2.43-1.33-4.68.5-6.06,2.37-2.12,2.89-2.94,6.68-4.51,9.88a56.94,56.94,0,0,1-6.66,10.54l5,2.92L160.09,310c.89-2.52,1.79-5,2.67-7.54.78-2.24,1.06-4.85-.87-6.61-2.39-2.19-5.82-.95-7.47,1.44-1.35,1.94-2.19,4.36-3.28,6.46s-2.35,4.42-3.62,6.58c-.93,1.59-1.81,3-3.48,3.75l3.63.47.37,1.13h0a8,8,0,0,0,.31-.89c.23-.63.48-1.26.74-1.88.51-1.22,1.06-2.41,1.64-3.59a73.53,73.53,0,0,1,4.2-7.44,3,3,0,1,0-5.18-3Z"/><path class="cls-3" d="M202.73,150.38a165.28,165.28,0,0,1-10.21,35.56l5.78,1.6q5.19-18.67,10.4-37.35l-5.49.71a14.23,14.23,0,0,1,.61,9.81A3,3,0,0,0,209.3,163a19.17,19.17,0,0,1,8.52-9.36l-4.41-1.79a48.79,48.79,0,0,1-.54,17.29l5.79,1.6a15.48,15.48,0,0,1,6.77-10.95L221,158a5.23,5.23,0,0,1-.7,5.25l5,2.92a8.4,8.4,0,0,1,1.56-4l-5-2.91a10,10,0,0,1-2.21,3.51l5.13,2.12a22,22,0,0,1,4.58-10.63,3,3,0,0,0-4.71-3.64,59.21,59.21,0,0,1-22.46,16.6c-2.75,1.16-1.33,5.8,1.52,5.59a22.29,22.29,0,0,0,11.28-3.9l-4.41-1.8a31.6,31.6,0,0,1-2.45,17.66,3.08,3.08,0,0,0,1.08,4.1,3,3,0,0,0,4.1-1.07L222,172.54l-5.48-2.31a127.16,127.16,0,0,1-12.14,29l5.48.72-3.56-8.67a3,3,0,0,0-2.49-2.15,3,3,0,0,0-3,1.43l-6.51,14,5.49.71a136.67,136.67,0,0,1-3.57-17l-5.78,1.6a32.62,32.62,0,0,1-1.8,16.57l5.89.8a11,11,0,0,1,2.29-6L191.29,199a124.37,124.37,0,0,1-14.75,33.64l5.59,1.52A25,25,0,0,1,187.22,218l-5.48-2.31q-3.62,12.38-8,24.51c-1,2.71,3.18,5.29,5,2.92A280.39,280.39,0,0,0,205,202.56l-5.18-3-15,35a3.1,3.1,0,0,0,1.08,4.1,3,3,0,0,0,4.1-1.07,57.1,57.1,0,0,1,15.55-20.39l-5-2.92a124.1,124.1,0,0,1-20,33.94l5,2.91,4.07-11.32c1.17-3.27-3.78-5.15-5.49-2.31l-14.45,24c-2,3.31,3.19,6.33,5.18,3l14.45-24-5.48-2.31-4.06,11.32c-1,2.76,3.12,5.2,5,2.92a133,133,0,0,0,21.55-36.59,3,3,0,0,0-1.38-3.38,3.1,3.1,0,0,0-3.63.47,61.18,61.18,0,0,0-16.49,21.6l5.18,3,15-35a3.09,3.09,0,0,0-1.07-4.1,3,3,0,0,0-4.11,1.07,273.29,273.29,0,0,1-25.3,39.32l5,2.92q4.4-12.14,8-24.51a3,3,0,0,0-1.73-3.54,3.06,3.06,0,0,0-3.75,1.22,30.25,30.25,0,0,0-5.91,19.17,3,3,0,0,0,5.59,1.51,130.45,130.45,0,0,0,15.36-35.07,3,3,0,0,0-1.74-3.54,3,3,0,0,0-3.74,1.22,16.71,16.71,0,0,0-3.11,9,3,3,0,0,0,2.6,2.94,3,3,0,0,0,3.29-2.15,38.52,38.52,0,0,0,1.8-19.76c-.25-1.6-2.25-2.49-3.69-2.09a3.08,3.08,0,0,0-2.09,3.69,135.22,135.22,0,0,0,3.56,17c.64,2.31,4.36,3.14,5.48.71l6.51-14-5.48-.72,3.56,8.68a3.05,3.05,0,0,0,2.49,2.14,3,3,0,0,0,3-1.43,134,134,0,0,0,12.74-30.45c.91-3.26-3.79-5.3-5.48-2.31l-8.62,15.25,5.18,3a38.8,38.8,0,0,0,3-22.28c-.28-1.84-2.94-2.83-4.4-1.8a16.31,16.31,0,0,1-8.25,3.09l1.51,5.59a63,63,0,0,0,23.67-17.54l-4.71-3.63a27.56,27.56,0,0,0-5.4,13.66c-.33,2.65,3.45,3.87,5.12,2.12a17.26,17.26,0,0,0,3.75-6.16c1-2.73-3.16-5.26-5-2.92a14.12,14.12,0,0,0-3.09,6.67,3.13,3.13,0,0,0,1.38,3.39,3,3,0,0,0,3.63-.47,11.37,11.37,0,0,0,2.24-11.1,3,3,0,0,0-4.41-1.79,21.26,21.26,0,0,0-9.53,14.53,3.11,3.11,0,0,0,2.1,3.69,3,3,0,0,0,3.69-2.09,57.6,57.6,0,0,0,.54-20.49c-.3-2-2.89-2.62-4.41-1.79A24.42,24.42,0,0,0,204.12,160l5.48,2.31a20.67,20.67,0,0,0-1.2-14.43c-1.12-2.43-4.84-1.59-5.49.72q-5.21,18.67-10.39,37.35a3,3,0,0,0,2.09,3.69,3.07,3.07,0,0,0,3.69-2.09A166.13,166.13,0,0,0,208.52,152a3.09,3.09,0,0,0-2.1-3.69,3,3,0,0,0-3.69,2.1Z"/><path class="cls-3" d="M205.12,170.94a32.39,32.39,0,0,0-7.91,23.48,3.07,3.07,0,0,0,3,3,3,3,0,0,0,3-3,26.27,26.27,0,0,1,6.15-19.23,3.08,3.08,0,0,0,0-4.25,3,3,0,0,0-4.24,0Z"/><path class="cls-3" d="M199,184a26.42,26.42,0,0,0-6.46,10.83,3,3,0,0,0,2.09,3.69,3.06,3.06,0,0,0,3.69-2.1,22.71,22.71,0,0,1,.81-2.22l-.31.72a24,24,0,0,1,3-5.16l-.47.61a25,25,0,0,1,1.87-2.13A3,3,0,1,0,199,184Z"/><path class="cls-3" d="M204.78,148.5c.24,1,.45,2,.62,3.06,0,.23.08.47.11.71s.14.93,0,.15c.08.52.13,1,.18,1.55a47.93,47.93,0,0,1,.2,6.11,3,3,0,0,0,6,0,51.18,51.18,0,0,0-1.35-13.17,3,3,0,0,0-3.69-2.1,3.07,3.07,0,0,0-2.1,3.69Z"/><path class="cls-3" d="M179,252.82a18.93,18.93,0,0,1-.64,2.57c-.13.39-.27.76-.41,1.14l.09-.21c-.05.11-.09.21-.14.31l-.23.5a20,20,0,0,1-1.32,2.29L176,260c0,.07-.43.59-.16.23s-.19.23-.25.3l-.43.5a21.84,21.84,0,0,1-1.8,1.8l-.51.43c-.15.12-.58.59-.09.07a5.22,5.22,0,0,1-1,.7,19.27,19.27,0,0,1-2.21,1.25s-.6.26-.6.28l.31-.13-.41.16c-.42.16-.84.3-1.26.43a3,3,0,1,0,1.59,5.78,22.79,22.79,0,0,0,15.62-17.36,3.06,3.06,0,0,0-2.09-3.69c-1.46-.33-3.4.45-3.69,2.1Z"/><path class="cls-3" d="M164.57,271A26.59,26.59,0,0,0,185,269.62a3,3,0,0,0,1.07-4.1,3.07,3.07,0,0,0-4.1-1.08c-.37.18-.73.36-1.11.52.43-.18-.46.17-.56.2a21.25,21.25,0,0,1-2.19.67c-.69.18-1.39.31-2.1.43s.22,0-.41.05c-.41,0-.82.08-1.22.1-.72,0-1.43,0-2.14,0-.41,0-.82,0-1.22-.08-.11,0-1-.1-.42,0a22,22,0,0,1-4.44-1.1,3,3,0,0,0-3.69,2.1,3.07,3.07,0,0,0,2.09,3.69Z"/><path class="cls-3" d="M186,264.3a33.73,33.73,0,0,0-9.24-.72,3.22,3.22,0,0,0-2.12.88,3.08,3.08,0,0,0-.88,2.12,3,3,0,0,0,3,3,31.15,31.15,0,0,1,6,.19l-.8-.1c.81.11,1.62.25,2.42.42a3.21,3.21,0,0,0,2.31-.3,3.11,3.11,0,0,0,1.38-1.8,3.05,3.05,0,0,0-2.1-3.69Z"/><path class="cls-3" d="M167.62,262.93a10.77,10.77,0,0,0-.46,6.13,2.27,2.27,0,0,0,.53,1,2.31,2.31,0,0,0,.84.77,3,3,0,0,0,4.11-1.08l.3-.71a3.1,3.1,0,0,0,0-1.6c0-.13-.05-.26-.07-.4l.11.8a8.37,8.37,0,0,1,0-2.18l-.1.79a7.83,7.83,0,0,1,.53-2,3.45,3.45,0,0,0-.3-2.31,3.11,3.11,0,0,0-1.8-1.38,3.06,3.06,0,0,0-2.31.31l-.61.47a3,3,0,0,0-.77,1.32Z"/><path class="cls-3" d="M153.53,298.32a208.05,208.05,0,0,1,21.74,5.44,3,3,0,0,0,1.6-5.79,211.23,211.23,0,0,0-21.74-5.44,3.08,3.08,0,0,0-3.69,2.1,3,3,0,0,0,2.09,3.69Z"/><path class="cls-3" d="M147.07,312.81a157.55,157.55,0,0,0,4.64,22.64,3,3,0,0,0,5.79-1.6,145.17,145.17,0,0,1-4.43-21,3.1,3.1,0,0,0-3-3c-1.46,0-3.22,1.38-3,3Z"/><path class="cls-3" d="M174.28,299.12c-6.31,10.37-12.26,21.21-20.1,30.53a3.09,3.09,0,0,0,0,4.24,3,3,0,0,0,4.24,0c8.19-9.73,14.45-20.92,21-31.74,2-3.31-3.17-6.33-5.18-3Z"/><path class="cls-3" d="M206.58,146.82a28.56,28.56,0,0,1,14.36,2.37l2.31-5.48c-4.58-1.31-9.25-2.55-14.05-2.45a3,3,0,0,0-2.9,2.2,4.47,4.47,0,0,0,1.75,4.58,9.26,9.26,0,0,0,4.31,1.45l10.26,1.64.8-5.89a52.14,52.14,0,0,1-13.38-.46,3.08,3.08,0,0,0-3.69,2.09,3,3,0,0,0,2.1,3.69l11.39,3.27.8-5.9a29.4,29.4,0,0,1-13.18-3.58l-2.31,5.48a3.79,3.79,0,0,1,2.6,1.41,3.05,3.05,0,0,0,3.75,1.23,3,3,0,0,0,1.74-3.54,13,13,0,0,0-2.06-4.35,3.11,3.11,0,0,0-3.38-1.38,3,3,0,0,0-2.21,2.89,29,29,0,0,1-.83,9.65l5.49-.71a2.4,2.4,0,0,1-.41-2.18l-5.49-.72a12.27,12.27,0,0,1-2,12.13l5,2.92a21.31,21.31,0,0,1,3.44-5.88l-5.12-2.13A22.59,22.59,0,0,1,202,169.56l5.48,2.31a41.37,41.37,0,0,1,8.14-17.68l-5-2.92a25,25,0,0,1-5.2,9.88l5.12,2.12a49.84,49.84,0,0,1,2.9-11.59l-5.79-1.6a36.52,36.52,0,0,1-6.24,13l5.48.72a6.29,6.29,0,0,1,1.37-6.89l-5-1.32a13.4,13.4,0,0,1-3.86,11.07l5,2.92a15.42,15.42,0,0,1,3.54-7.57l-5.12-2.12a15,15,0,0,1-1.23,8.26l5.49,2.31a39.4,39.4,0,0,1,13.56-17.17l-4.41-3.38a51.72,51.72,0,0,1-5.34,13.73l5.49.72a8,8,0,0,1,1.8-8.53l-5.12-2.13a13.49,13.49,0,0,1-2.56,9.19h5.18a3.78,3.78,0,0,1,.44-3.35l-5.49-.72a.74.74,0,0,1,0-.36c.15-.22.12-.17-.06.14.48.11-.28-.68-.07,0a.63.63,0,0,1,.31-.17,2.41,2.41,0,0,0-1.16.26,3.65,3.65,0,0,0-1.66,1.59,9.4,9.4,0,0,0-1.62,6.66c.31,2.27,3.61,2.82,5,1.32,5.4-5.78,10.83-11.53,16.2-17.34l-5-2.91a17.59,17.59,0,0,1-2.73,4.58l4.71,3.64a2.23,2.23,0,0,1,1-1.33l-4.41-1.79a3.32,3.32,0,0,1,.28,2.31c-1,3.75,4.66,5.29,5.79,1.6l1.63-5.38-4.4,1.79c-.39-.22-.43-.91-.37-1.25a3,3,0,0,0,1.74,3.54,3,3,0,0,0,3.74-1.23l1.11-1.86h-5.18a2.76,2.76,0,0,1,0-.76c-.52,2.81,2.76,5.17,5,2.92l1.55-1.56L227,151.06c0,.55.1.46-.3.79l4.71,3.64,1.1-1.94L227,151.24a21.7,21.7,0,0,1-2.88,7.7l5.48.72a1.06,1.06,0,0,1,.19-1.3l-5.18-3a43,43,0,0,1-5.4,9.34l5.12,2.12a11.2,11.2,0,0,1,3.29-9.08l-5-2.92a76,76,0,0,1-2.6,11.74,3,3,0,0,0,1.74,3.54,3.06,3.06,0,0,0,3.75-1.22l3.9-5.47-5.48-2.31a12.66,12.66,0,0,1-2.67,5.51l5.12,2.12A25,25,0,0,1,230,156.86l-5.18-3-.89,1.71,5.6,1.51.22-3h-6c0,8.21-6.52,15-9.95,22.23l5.59,1.52a14.21,14.21,0,0,1,1.62-6l-5.49-2.31a38.41,38.41,0,0,1-2.39,8.87c-1.26,3.13,4.12,5.43,5.48,2.31a48.91,48.91,0,0,1,5.16-9l-5.48-.72a5.48,5.48,0,0,1-1,5.28l5.49.72a7.83,7.83,0,0,1,1.61-6.75l-5.48-.72a5,5,0,0,1-.64,3.06l5.59,1.52a8.27,8.27,0,0,1,1.48-3.49l-5.49-.72.08-1c-2,3.29,3.15,6.31,5.18,3a4.62,4.62,0,0,0,.53-3.66c-.62-2.67-4.12-2.75-5.49-.72a14.63,14.63,0,0,0-2.29,6.52c-.38,3,4.26,4,5.59,1.51a11.91,11.91,0,0,0,1.25-7.68,3,3,0,0,0-2.5-2.15,3.11,3.11,0,0,0-3,1.43A13.5,13.5,0,0,0,217,178.54a3,3,0,0,0,2.49,2.14,3.08,3.08,0,0,0,3-1.43,11.13,11.13,0,0,0,1.58-9.9,3,3,0,0,0-5.48-.72,48.91,48.91,0,0,0-5.16,9l5.49,2.32a38.63,38.63,0,0,0,2.39-8.88,3.06,3.06,0,0,0-1.74-3.54,3,3,0,0,0-3.74,1.23,21.21,21.21,0,0,0-2.44,9c-.14,2.88,4.3,4.21,5.59,1.51,4-8.27,10.73-15.59,10.77-25.26a3,3,0,0,0-6,0l-.22,3c-.23,3,4.25,4.1,5.59,1.52l.88-1.71c1.76-3.42-3.2-6.37-5.18-3a31.32,31.32,0,0,0-4.38,14.87c-.1,2.49,3.43,4.1,5.12,2.12a18.91,18.91,0,0,0,4.22-8.15,3,3,0,0,0-5.49-2.31l-3.9,5.46,5.48,2.31a76.18,76.18,0,0,0,2.59-11.74A3.13,3.13,0,0,0,227,153a3,3,0,0,0-3.63.47,17,17,0,0,0-5.05,13.32,3,3,0,0,0,1.84,2.74,2.94,2.94,0,0,0,3.28-.62,48.08,48.08,0,0,0,6.34-10.55,3.09,3.09,0,0,0-1.08-4.1,3.05,3.05,0,0,0-4.1,1.07,6.66,6.66,0,0,0-.79,5.92,3,3,0,0,0,5.48.72,26.37,26.37,0,0,0,3.49-9.13,3,3,0,0,0-1.74-3.54,3,3,0,0,0-3.75,1.23l-1.1,1.93a3,3,0,0,0,.78,3.87,3,3,0,0,0,3.93-.23,6,6,0,0,0,2.06-5c-.26-2.47-3.15-4.1-5.12-2.12l-1.56,1.55,5,2.92a5.18,5.18,0,0,0-.59-3.85,3,3,0,0,0-5.18,0l-1.11,1.86,5.48,2.31a5.06,5.06,0,0,0-2.38-5.53,3,3,0,0,0-4.41,1.79l-1.64,5.38,5.79,1.6a8.6,8.6,0,0,0-.29-5.51c-.73-1.75-2.56-2.87-4.4-1.79a7.65,7.65,0,0,0-3.2,3.48,3.06,3.06,0,0,0,.77,3.87,3,3,0,0,0,3.94-.23,27,27,0,0,0,4.28-7.24c1.13-2.83-3.08-5-5-2.92-5.36,5.81-10.79,11.56-16.19,17.34l5,1.32c-.09-.65.9-1.87,1.24-2.39l-2.59,1.48a5.8,5.8,0,0,0,5.57-7.18c-.61-2.56-4.19-2.87-5.48-.72a10.08,10.08,0,0,0-.44,9.41c1,2.28,4,1.6,5.18,0a18.6,18.6,0,0,0,3.38-12.22c-.21-2.5-3.18-4.06-5.12-2.12a14,14,0,0,0-3.35,14.37c.83,2.33,4.14,3.1,5.48.72A57.92,57.92,0,0,0,222,151.47c.55-2.33-2.15-5-4.41-3.39a46.64,46.64,0,0,0-16.32,20.75,3,3,0,0,0,5.49,2.31,20.74,20.74,0,0,0,2-11.28,3.06,3.06,0,0,0-1.84-2.74,3,3,0,0,0-3.28.62A21.1,21.1,0,0,0,198.61,168c-.51,2.82,2.75,5.18,5,2.92A19.65,19.65,0,0,0,209,154c-.34-2.31-3.57-2.77-5-1.32a12.28,12.28,0,0,0-2.9,12.72,3,3,0,0,0,5.48.72,41.14,41.14,0,0,0,6.85-14.4,3,3,0,0,0-5.79-1.6,55.92,55.92,0,0,0-3.11,13.19c-.3,2.57,3.5,4,5.12,2.13a31.88,31.88,0,0,0,6.75-12.54,3,3,0,0,0-1.38-3.38,3,3,0,0,0-3.64.46,47.82,47.82,0,0,0-9.67,20.33,3,3,0,0,0,5.48,2.32,29,29,0,0,0,4.46-13.42c.2-2.49-3.5-4.08-5.13-2.12a30,30,0,0,0-5,8.53c-1.07,2.78,3.11,5.13,5,2.92a18.36,18.36,0,0,0,3.57-18,3,3,0,0,0-2.5-2.15,2.93,2.93,0,0,0-3,1.43,8.57,8.57,0,0,0,.4,8.23,3,3,0,0,0,5.49-.71,34.41,34.41,0,0,0,1-11.25L206,147.6a8.33,8.33,0,0,1,1.45,2.92l5.48-2.31a9.84,9.84,0,0,0-6.19-4.17,3,3,0,0,0-3.53,1.74,3,3,0,0,0,1.22,3.75,36.22,36.22,0,0,0,16.21,4.4c3.42.11,4-5,.8-5.89L210,144.78l-1.59,5.78a57.76,57.76,0,0,0,15,.68,3,3,0,0,0,3-2.6,3,3,0,0,0-2.15-3.29l-7.33-1.18-3.43-.55c-.52-.08-1.07-.24-1.6-.3l-.21-.06a2,2,0,0,1,.44,1.8l-2.89,2.2c4.28-.09,8.37,1.07,12.45,2.24A3,3,0,0,0,224,144a34.48,34.48,0,0,0-17.38-3.19,3.08,3.08,0,0,0-3,3,3,3,0,0,0,3,3Z"/><path class="cls-3" d="M220.37,169.55l-.32,2.55a2.29,2.29,0,0,0,.25,1.16,2.44,2.44,0,0,0,.62,1,2.34,2.34,0,0,0,1,.62,2.29,2.29,0,0,0,1.16.25l.79-.1a3,3,0,0,0,1.33-.77l.47-.61a3.09,3.09,0,0,0,.41-1.52l.32-2.55a2.32,2.32,0,0,0-.26-1.16,2.25,2.25,0,0,0-.62-1,2.22,2.22,0,0,0-1-.62,2.26,2.26,0,0,0-1.15-.26l-.8.11a2.94,2.94,0,0,0-1.32.77l-.47.61a3,3,0,0,0-.41,1.51Z"/><path class="cls-3" d="M210.47,144.34q.19.53,0,0c-.08-.34-.09-.31,0,.08a6.09,6.09,0,0,1,0-.74c0,.65,0,0,.09-.17-.16.33-.16.35,0,0a3.62,3.62,0,0,1,.27-.41l-4.71.6c-.42-.89-.58-1.14-.47-.74.06.22,0,.12,0-.32,0,0,0,.48,0,.51,0,.38-.08.77-.08,1.15a4.67,4.67,0,0,0,1.58,3.53,15.59,15.59,0,0,0,5.75,2.66c1.75.49,3.55.81,5.31,1.27.89.24,1.76.52,2.62.84-.39-.15-.19-.08.08,0l.55.27a13.63,13.63,0,0,1,1.28.78l3-5.18-1.08-.47a3.09,3.09,0,0,0-4.11,1.08c-.68,1.3-.46,3.43,1.08,4.1l1.08.47a3,3,0,0,0,3-5.18c-3.14-2.16-6.94-2.69-10.54-3.61a24.6,24.6,0,0,1-2.53-.77c-.07,0-.71-.3-.34-.13s-.25-.13-.32-.16c-.23-.11-.45-.23-.67-.35s-.45-.44-.27-.14a4,4,0,0,1,.45.74c-.18-.5-.06.56,0,0a9.3,9.3,0,0,0,.09-1,5,5,0,0,0-1.24-3.59c-1.31-1.61-3.73-.82-4.71.61a7.2,7.2,0,0,0-.35,7.23,3,3,0,0,0,4.11,1.08,3.1,3.1,0,0,0,1.08-4.11Z"/><path class="cls-3" d="M208.72,167c.19,4.59-2.24,8.61-4.51,12.42-2,3.33,3.11,6.27,5.18,3a71.38,71.38,0,0,0,6.37-12.8L210,168c-1.56,5.4-3.13,10.8-5.1,16.08l5.89.79a19.39,19.39,0,0,1,3.9-9.4l-5.18-3a76.59,76.59,0,0,1-7.29,13.29h5.18c-.28-.48,0-1.64.11-2.32l.64-4.34,1.24-8.44a3.11,3.11,0,0,0-2.1-3.69,3.05,3.05,0,0,0-3.69,2.1,109.24,109.24,0,0,1-5.76,15.83l5.59,1.52a45.64,45.64,0,0,1,1.82-17.31l-5.89-.8a55.42,55.42,0,0,1-2.19,15.14l5.9.79a18.51,18.51,0,0,1-.07-3.57,3.49,3.49,0,0,1,.8-2l-5-2.92a79.22,79.22,0,0,1-4.64,15l5.48,2.31a69.76,69.76,0,0,1,2.23-6.73L196,184.76a35.31,35.31,0,0,1-2.79,6.44l5.48.72a3.81,3.81,0,0,1,.68-3.57l-5.59-1.51a21,21,0,0,1-1.18,5.58c-1.14,3.27,3.77,5.15,5.48,2.31l.86-1.43-5.49-.72a44.32,44.32,0,0,1,.77,5.86,3,3,0,0,0,2.6,2.94c1.33.16,3.07-.65,3.29-2.15a34,34,0,0,1,2.25-8l-5.89-.79-.66,7.53c-.26,2.93,4.32,4.15,5.59,1.52a10,10,0,0,0,1-3.75,3,3,0,0,0-3-3,3.06,3.06,0,0,0-3,3s-.15.65-.18.72l5.59,1.51.66-7.53a3,3,0,0,0-2.6-2.95,3.08,3.08,0,0,0-3.3,2.15,33.4,33.4,0,0,0-2.24,8l5.89.8a60.27,60.27,0,0,0-1-7.45c-.51-2.63-4.23-2.8-5.48-.72l-.86,1.43,5.48,2.31a27,27,0,0,0,1.4-7.17,3,3,0,0,0-2.2-2.89,3.11,3.11,0,0,0-3.39,1.38,9.57,9.57,0,0,0-1.28,8.18,3,3,0,0,0,5.48.72,44.31,44.31,0,0,0,3.4-7.88,3,3,0,0,0-2.1-3.69,3.08,3.08,0,0,0-3.69,2.1q-1.28,3.31-2.22,6.73a3,3,0,0,0,1.74,3.54c1.24.5,3.15.16,3.74-1.23a87.61,87.61,0,0,0,5.25-16.41c.58-2.78-2.84-5.22-5-2.92-2.53,2.69-2.76,6.28-2.48,9.78a3,3,0,0,0,5.89.8,61.89,61.89,0,0,0,2.4-16.73c0-3.43-4.91-4-5.89-.8a50.2,50.2,0,0,0-2,18.91,3.12,3.12,0,0,0,2.21,2.89,3,3,0,0,0,3.38-1.38,120.35,120.35,0,0,0,6.37-17.27l-5.79-1.59L202.13,179c-.46,3.14-1.66,6.9.07,9.83a3,3,0,0,0,5.18,0,75.49,75.49,0,0,0,7.29-13.28,3.12,3.12,0,0,0-1.08-4.11,3.07,3.07,0,0,0-4.1,1.08,25.14,25.14,0,0,0-4.72,12.43,3,3,0,0,0,2.61,3,3,3,0,0,0,3.29-2.15c2-5.27,3.54-10.67,5.09-16.07A3,3,0,1,0,210,168a63.94,63.94,0,0,1-5.77,11.37l5.18,3c2.81-4.72,5.57-9.79,5.33-15.45a3.06,3.06,0,0,0-3-3,3,3,0,0,0-3,3Z"/><path class="cls-3" d="M210.46,183.78a72.63,72.63,0,0,0-4.71,12.65l5.78,1.6a25.3,25.3,0,0,1,1.1-3.85c.24-.66.5-1.31.77-2,0-.08.36-.87.19-.48l.38-.89a36.32,36.32,0,0,0,2.67-8,3.07,3.07,0,0,0-1.74-3.54,3,3,0,0,0-3.75,1.23l-10.57,19,5.59,1.52.23-16.44a3,3,0,0,0-3-3,4.28,4.28,0,0,0-4,3.18,15.6,15.6,0,0,0-.35,4.37q-.08,4.8,0,9.61a3,3,0,0,0,1.84,2.74,3,3,0,0,0,3.28-.62,5.42,5.42,0,0,0,1.26-4.81,3,3,0,0,0-3.69-2.1,3.07,3.07,0,0,0-2.09,3.69.93.93,0,0,1,.28-1l5.12,2.12q-.09-3.67-.07-7.35c0-1.2,0-2.39.06-3.58,0-.32,0-.63,0-.94s.17-.61,0-.07c0,0,.13-.44.12-.45a1,1,0,0,1-.24.46,1.86,1.86,0,0,1-1.53.77l-3-3L200.17,201a3,3,0,0,0,5.59,1.51l10.57-19-5.48-2.31c-.91,5.56-4,9.65-5.1,15.2a3,3,0,0,0,5.78,1.6,65.1,65.1,0,0,1,4.11-11.22,3.08,3.08,0,0,0-1.08-4.11,3,3,0,0,0-4.1,1.08Z"/><path class="cls-3" d="M218.43,173.29a58.21,58.21,0,0,1-6.06,12.93l5.59,1.52a12.08,12.08,0,0,1,3.15-6.9l-5-2.92-6.37,18.86,5.9.8a16,16,0,0,1,2.85-8.2L213,187.07a71.75,71.75,0,0,1-7.07,16l5.48.72a7.2,7.2,0,0,1,.87-5.78l-5.49-2.31-3.92,9.4,5.79,1.59a12.2,12.2,0,0,1,3.74-7.07l-5-1.32a3.74,3.74,0,0,1-.27,3.83l5.48,2.31,1.8-5.79-5.89-.8a10.15,10.15,0,0,1-1.73,5.72l5.59,1.51a7,7,0,0,1,2.33-4.09L210,197.3q-3.87,8.74-8.52,17.09l5.49,2.31,2.76-7.62-5.89-.8a12.59,12.59,0,0,1-1.92,6.53l5.18,3,3.8-7.52-5.59-1.51a4,4,0,0,1-1.11,2.59l5.12,2.13a2.15,2.15,0,0,1,.35-1.26l-5.48-2.32a12.39,12.39,0,0,1-2.33,5l5,1.33a97.31,97.31,0,0,1-1.15-13.94c0-3.27-5.22-4.22-5.89-.8a46.41,46.41,0,0,0-.91,10,3.06,3.06,0,0,0,2.2,2.89,3,3,0,0,0,3.39-1.38l5-11.36L204,199.35a36.15,36.15,0,0,1-4.92,11.7l5.48,2.31,1.61-9.45a3.09,3.09,0,0,0-2.09-3.69,3.05,3.05,0,0,0-3.69,2.1l-4,11.47h5.79l-2.06-7.52a3,3,0,0,0-5.48-.72l-4.09,7.13,5.49.71a31.79,31.79,0,0,1-.22-9.88,3.11,3.11,0,0,0-2.1-3.69c-1.42-.39-3.44.48-3.69,2.09a22.13,22.13,0,0,1-3.11,8.51l5.48.72a20.48,20.48,0,0,1,1.33-11.1,3,3,0,0,0-2.09-3.69,3.07,3.07,0,0,0-3.69,2.09,26.21,26.21,0,0,0-1.34,14.29c.47,2.69,4.23,2.74,5.49.72a26.52,26.52,0,0,0,3.72-9.94l-5.79-1.6a41.29,41.29,0,0,0,.22,13.08c.47,2.61,4.28,2.82,5.49.72l4.08-7.13-5.48-.72,2.05,7.52c.82,3,4.85,2.7,5.79,0l4-11.47-5.78-1.59-1.61,9.45a3,3,0,0,0,5.48,2.31A41.11,41.11,0,0,0,209.78,201a3,3,0,0,0-1.74-3.54c-1.25-.5-3.14-.16-3.74,1.23l-5,11.36,5.59,1.52a39.29,39.29,0,0,1,.69-8.39l-5.89-.79a107.7,107.7,0,0,0,1.37,15.53c.34,2.14,3.66,3,5,1.33a19,19,0,0,0,3.87-7.66c.76-3.26-3.71-5.31-5.48-2.31a8.28,8.28,0,0,0-1.17,4.29c0,2.52,3.33,4.06,5.12,2.12a10.54,10.54,0,0,0,2.87-6.84c.15-2.93-4.26-4.15-5.59-1.52l-3.8,7.53c-1.73,3.43,3.14,6.34,5.18,3a18.49,18.49,0,0,0,2.74-9.55,3,3,0,0,0-2.6-2.94,3,3,0,0,0-3.29,2.15l-2.77,7.61c-1.17,3.22,3.85,5.24,5.48,2.31q4.65-8.34,8.52-17.08a3,3,0,0,0-4.71-3.63,13.21,13.21,0,0,0-4.09,8.33,3,3,0,0,0,2.2,2.9,3.1,3.1,0,0,0,3.39-1.38,15.88,15.88,0,0,0,2.55-8.75c0-3.43-4.89-4-5.89-.8l-1.8,5.8c-1,3.32,3.7,5.12,5.48,2.31a9.53,9.53,0,0,0,.87-8.45c-.82-2.09-3.24-3-5-1.33a17.47,17.47,0,0,0-5.29,9.72,3,3,0,1,0,5.79,1.59l3.92-9.4a3,3,0,0,0-1.74-3.54,3,3,0,0,0-3.74,1.23,13.28,13.28,0,0,0-1.47,10.4,3,3,0,0,0,5.48.72,78.89,78.89,0,0,0,7.68-17.38,3,3,0,0,0-1.74-3.54,3,3,0,0,0-3.74,1.23,21.91,21.91,0,0,0-3.67,11.22,3,3,0,0,0,2.6,2.94,3,3,0,0,0,3.29-2.15l6.37-18.86c1-2.83-3-5.08-5-2.91a18.85,18.85,0,0,0-4.9,11.14c-.3,3.13,4.14,3.85,5.6,1.51a65.52,65.52,0,0,0,6.66-14.36,3,3,0,0,0-5.79-1.6Z"/><path class="cls-3" d="M190.85,195.75l-8,21.2,5.79,1.59A20.06,20.06,0,0,1,198.48,206l-4.41-3.39a103.53,103.53,0,0,1-5.19,14l5.48,2.31,4.46-10.7-5.78-1.6a53,53,0,0,1-2.49,6.1c-.48,1-1,2-1.54,3-.29.52-.59,1-.89,1.55l-.47.76q-.3.66-.21.24l1.33-.77-.3.05,2.31.3c1.63.86.59,1.36.79.68.1-.36,0-.2.07-.43s-.17.11.19-.41c-.16.23.51-.48.47-.44L187.18,215a38.4,38.4,0,0,1-4,13.27l5.59,1.51c.3-4.66,2.72-8.87,5-12.86,1.65-3-2.26-6.08-4.71-3.64a10.74,10.74,0,0,0-3.12,6.92c-.25,3,4.27,4.09,5.59,1.51a48.29,48.29,0,0,1,5-7.86l-5-2.92a29.85,29.85,0,0,1-4.21,8.19l5.48,2.31a35.25,35.25,0,0,1,2.31-8.31l-5.59-1.52a26.13,26.13,0,0,1-1.37,11.83,3,3,0,0,0,1.38,3.39,3.12,3.12,0,0,0,3.63-.47,27.84,27.84,0,0,0,6.12-7l-5.48-.71a2.38,2.38,0,0,1-.09,1.49l5.48,2.31a22.48,22.48,0,0,1,2.09-5.07c1.9-3.37-3.28-6.4-5.18-3a30,30,0,0,0-2.7,6.5,3,3,0,0,0,1.74,3.54,3,3,0,0,0,3.75-1.22,9.31,9.31,0,0,0,.7-6.12c-.59-2.63-4.18-2.79-5.49-.71a23.17,23.17,0,0,1-5.18,5.73l5,2.92a30.21,30.21,0,0,0,1.59-13.43,3.13,3.13,0,0,0-2.2-2.89,3,3,0,0,0-3.39,1.38,40.87,40.87,0,0,0-2.91,9.75,3,3,0,0,0,5.48,2.31,34.84,34.84,0,0,0,4.81-9.62,3,3,0,0,0-1.38-3.39,3,3,0,0,0-3.63.47,55.2,55.2,0,0,0-5.92,9.07l5.59,1.52a4.53,4.53,0,0,1,1.36-2.68l-4.71-3.63c-2.78,5-5.4,10.09-5.77,15.89-.19,2.94,4.26,4.13,5.59,1.52a46.55,46.55,0,0,0,4.8-16.3,3,3,0,0,0-1.85-2.74,3.09,3.09,0,0,0-3.27.62,7.37,7.37,0,0,0-2.38,6.63,4.42,4.42,0,0,0,2,3.34,3.61,3.61,0,0,0,4.75-1.26,51.8,51.8,0,0,0,6.42-13.47,3,3,0,0,0-2.09-3.69,3.07,3.07,0,0,0-3.69,2.09l-4.47,10.71a3,3,0,0,0,5.49,2.31,114.11,114.11,0,0,0,5.8-15.39,3,3,0,0,0-4.41-3.39A26,26,0,0,0,182.86,217a3,3,0,1,0,5.79,1.59l8-21.19a3,3,0,0,0-2.09-3.69,3.05,3.05,0,0,0-3.69,2.09Z"/><path class="cls-3" d="M205.87,210.11q-5,8.47-10.07,16.93l5.48,2.31,4.1-10.22-5.89-.8a38.68,38.68,0,0,1-2.57,10c-1.24,3.14,4,5.38,5.49,2.31L206,223l-5.48-2.32a20.86,20.86,0,0,1-6.13,11.29l5,1.32a10.27,10.27,0,0,1,.52-5.15h-5.78a16.88,16.88,0,0,1-.41,10l5.78,1.59a33.25,33.25,0,0,1,4-9.42l-5.18-3a88.13,88.13,0,0,1-6,11.3l5.18,3,4.93-8.45-5.59-1.52a6.74,6.74,0,0,1,0,1.1c0,.22,0,.21,0,0a3.12,3.12,0,0,1-.09.44,5.28,5.28,0,0,1-.54,1.42,23,23,0,0,1-2.14,3.19c-1.76,2.28-3.74,4.79-4.65,7.75-.86,2.77,3,5.2,5,2.91l6.22-7.15-4.71-3.64-11.57,24a3.09,3.09,0,0,0,1.07,4.11,3,3,0,0,0,4.11-1.08l2-3.31L186,259a14.35,14.35,0,0,1-2.43,5l5,2.92a35.16,35.16,0,0,1,5.87-9.55l-5-2.92a46.47,46.47,0,0,1-6.8,12.09l5.18,3,2-2.62-5.48-2.31-1.12,3.92c-1.06,3.72,4.73,5.31,5.79,1.59l1.11-3.91a3,3,0,0,0-1.73-3.54,3.08,3.08,0,0,0-3.75,1.22l-2,2.62c-1,1.3-.2,3.36,1.08,4.11a3.08,3.08,0,0,0,4.1-1.08,51.28,51.28,0,0,0,7.4-13.52c1-2.78-3.1-5.14-5-2.92a43.62,43.62,0,0,0-7.41,12.19c-1.11,2.72,3.2,5.23,5,2.92a21.67,21.67,0,0,0,4-7.63c.93-3.29-3.73-5.23-5.48-2.31l-2,3.31,5.18,3,11.57-24a3,3,0,0,0-.77-3.87,3,3,0,0,0-3.94.23l-6.22,7.16,5,2.92a12.26,12.26,0,0,1,1.79-3.33c.93-1.32,1.7-2.21,2.74-3.61,1.84-2.48,3.3-5.34,3.09-8.52-.18-2.87-4-4.2-5.59-1.51l-4.93,8.45c-2,3.35,3.12,6.29,5.18,3a87.59,87.59,0,0,0,6-11.31,3.08,3.08,0,0,0-1.08-4.1,3,3,0,0,0-4.1,1.08,38.53,38.53,0,0,0-4.56,10.85c-.94,3.78,4.53,5.22,5.78,1.59a22.51,22.51,0,0,0,.41-13.2c-.8-3-4.86-2.71-5.78,0a16.4,16.4,0,0,0-.52,8.34c.41,2.32,3.51,2.75,5,1.32a26.43,26.43,0,0,0,7.68-13.93,3,3,0,0,0-1.74-3.54,3,3,0,0,0-3.75,1.23l-3.62,7.67,5.48,2.32a44.7,44.7,0,0,0,2.78-11.58,3,3,0,0,0-2.61-2.94,3.06,3.06,0,0,0-3.29,2.15l-4.09,10.21a3,3,0,0,0,1.74,3.54,3,3,0,0,0,3.74-1.22q5.07-8.44,10.07-16.94c2-3.33-3.22-6.35-5.18-3Z"/><path class="cls-3" d="M194.51,221.34l-5.69,13.57q-1.42,3.39-2.84,6.78a18.8,18.8,0,0,0-1.83,6.93c-.07,2.82,4.34,4.3,5.59,1.51a165.39,165.39,0,0,0,7.62-20.35,3,3,0,0,0-2.89-3.8c-2.49.2-3.46,1.85-4.26,4l-2.14,5.72-4.27,11.45,5-1.32a3.82,3.82,0,0,0,.15.48c.08.37.11.42.1.14.05,0,0-.13.09-.36.21-.8.44-1.59.66-2.39l1.31-4.76,2.63-9.54a3,3,0,0,0-5.48-2.31,117.18,117.18,0,0,0-6.78,18.42l5.79,1.59c1.48-6.69,3.62-13.66,3.17-20.58a3,3,0,0,0-2.6-2.94,3,3,0,0,0-3.29,2.15,84.15,84.15,0,0,1-6.92,18.69l5.48,2.31a43.14,43.14,0,0,1,4.58-11.24,3,3,0,0,0-5.18-3,94.76,94.76,0,0,0-8.47,15l5.48,2.31c.82-4.74,1.62-9.73,4.05-14s7.15-6.56,9.94-10.65l-5.48-2.31a151.9,151.9,0,0,1-10.39,23c-1.88,3.38,3.3,6.41,5.18,3a160.54,160.54,0,0,0,11-24.45,3,3,0,0,0-1.73-3.54,3.05,3.05,0,0,0-3.75,1.23c-1.31,1.92-3.34,3.31-5.09,4.82a22.68,22.68,0,0,0-5,6.18c-2.55,4.64-3.56,9.88-4.45,15a3,3,0,0,0,1.73,3.54,3,3,0,0,0,3.75-1.22,94.76,94.76,0,0,1,8.47-15l-5.18-3a48.49,48.49,0,0,0-5.18,12.68c-.8,3.19,3.88,5.43,5.48,2.31a90.4,90.4,0,0,0,7.52-20.13l-5.89-.8c.42,6.41-1.59,12.8-3,19-.83,3.75,4.76,5.34,5.79,1.59a107.65,107.65,0,0,1,6.17-17L188,227.79l-3.16,11.44c-.51,1.84-1.12,3.69-1.52,5.56s-.31,4,1.27,5.26a3.05,3.05,0,0,0,5-1.32l3.5-9.39,1.71-4.58.85-2.29c.15-.38.28-.77.43-1.15.35-.87.1,0-.36.27l-1.51.41.26,0-2.89-3.8a155.78,155.78,0,0,1-7,18.93l5.59,1.51c0-2.17,1.17-4.27,2-6.24l2.65-6.33,5.5-13.12c.63-1.49-.67-3.3-2.09-3.69a3.09,3.09,0,0,0-3.69,2.1Z"/><path class="cls-3" d="M176,238.08a67.11,67.11,0,0,0-5.58,15.28,3,3,0,0,0,5.49,2.32l5.43-7.74-5.18-3a75.57,75.57,0,0,1-8.06,14.29l5.48,2.32c.87-3.49,2.84-6.49,4.83-9.54l-5.18-3-5.62,8.77,5.48,2.31a29,29,0,0,1,6.41-10.64,3,3,0,0,0-4.24-4.24,35.37,35.37,0,0,0-7.95,13.29A3,3,0,0,0,169,262a3,3,0,0,0,3.75-1.23l5.62-8.77a3,3,0,0,0-5.18-3c-2.24,3.43-4.43,6.95-5.43,11a3,3,0,0,0,1.73,3.54,3.05,3.05,0,0,0,3.75-1.23,75.34,75.34,0,0,0,8.06-14.3,3.1,3.1,0,0,0-1.07-4.1,3.07,3.07,0,0,0-4.11,1.08l-5.43,7.73,5.48,2.31a61,61,0,0,1,5-13.86,3,3,0,1,0-5.18-3Z"/><path class="cls-3" d="M201.41,222.16a1.14,1.14,0,0,1,.25.24l-.47-.6a1.29,1.29,0,0,1,.19.32l-.3-.72a1.46,1.46,0,0,1,.11.41l-.1-.8a2.81,2.81,0,0,1,0,.41l.11-.8a1.61,1.61,0,0,1-.1.36l.3-.72,0,.07a2.28,2.28,0,0,0-.36,1.12,2.2,2.2,0,0,0,.06,1.19,2.27,2.27,0,0,0,.53,1,2.33,2.33,0,0,0,.84.78l.72.3a3.1,3.1,0,0,0,1.6,0l.71-.3a3.1,3.1,0,0,0,1.08-1.08c.13-.27.24-.55.35-.82l0-.13a6.28,6.28,0,0,0,.15-1,2.53,2.53,0,0,0,0-.28c0-.29-.08-.6-.12-.89,0-.05,0-.09,0-.14a2.41,2.41,0,0,0-.08-.25,7.53,7.53,0,0,0-.41-.93,1,1,0,0,0-.08-.11c-.17-.23-.34-.47-.53-.69a1.8,1.8,0,0,0-.2-.19,2.28,2.28,0,0,0-1-.62,2.7,2.7,0,0,0-2.31,0,2.34,2.34,0,0,0-1,.62l-.46.61a2.88,2.88,0,0,0-.41,1.51l.1.8a3.13,3.13,0,0,0,.77,1.33Z"/><path class="cls-3" d="M174.22,248.31c-.07.85.18-.45-.05.36-.07.23-.12.46-.19.69s-.14.46-.23.68c.2-.52-.15.31-.17.34a24.64,24.64,0,0,1-1.69,2.79,29.82,29.82,0,0,0-3.47,6.15l5.79,1.6,2-11a3,3,0,1,0-5.78-1.59q-3.6,8.67-6.67,17.54c-1,2.78,3.07,5.16,5,2.92a51.26,51.26,0,0,0,5.1-7.8c.38-.66.77-1.3,1.19-1.94l.47-.69.33-.45,0-.05a16,16,0,0,1,1.49-1.59l.42-.36c-.25.18-.24.17,0,0s.62-.41.94-.6l-4.41-3.39c-1.18,2.8-2.61,5.72-4.08,8.47a3,3,0,1,0,5.18,3,64.18,64.18,0,0,1,11.76-12.85l-4.71-3.64A47,47,0,0,1,176,257.79l4.72,3.64,6.71-10-5.48-2.31-4.57,11.32a3,3,0,0,0,5,2.92,33.11,33.11,0,0,0,6-11.77,3,3,0,0,0-5.48-2.31c-1.67,3.67-3,7.46-4.32,11.27l5.78,1.59a107,107,0,0,1,4.08-10.5L183,249.3a39.35,39.35,0,0,1-5.08,13.05l5.59,1.51c0-.15.06-1,0-.84s.12-.55.15-.67a9.65,9.65,0,0,1,.33-1c-.17.44.19-.39.2-.42.15-.28.3-.55.47-.81,0,0,.57-.75.28-.4a8.05,8.05,0,0,1,.63-.68c.09-.09.89-.74.59-.53l-4.51-2.59a9.84,9.84,0,0,1-1.09,3.36L179,263a3,3,0,0,0,1.38,3.39,3.15,3.15,0,0,0,3.64-.47,23.26,23.26,0,0,0,5.41-6.28l-5.59-1.52c0-.31,0,.11,0,.2l-.15.65c-.11.39-.31,1-.4,1.22a15.63,15.63,0,0,1-1.13,1.87l5,2.92c.55-2.89,1.12-5.79,1.73-8.67a3.08,3.08,0,0,0-2.1-3.69,3,3,0,0,0-3.69,2.09,31.67,31.67,0,0,1-1.11,3.56,9.68,9.68,0,0,1-1,1.81c.2-.28-.29.33-.35.39-.4.41-.16.09.11.08.08,0-.29,0-.34,0-.36-.06-.71-.17-1.06-.26l-2.23-.55a17.79,17.79,0,0,0-2.15-.54c-1-.3-.58.5,1.24,2.39a1.46,1.46,0,0,1-.18.38.51.51,0,0,1-.22.24c.15-.1.31-.19.47-.28l-4.51-2.59a6.41,6.41,0,0,1-.53,3.62,3,3,0,0,0,4.71,3.64,16.38,16.38,0,0,0,4.28-7.61,3,3,0,0,0-5.79-1.6l-2.67,6.34,5.89.8c0,.24,0,.18.06-.19.06-.22.13-.43.2-.64-.06.21,0,.15.14-.18s.24-.38.37-.56a3,3,0,0,0-1.08-4.1,3.06,3.06,0,0,0-4.1,1.08,9.34,9.34,0,0,0-1.59,4.59,3,3,0,0,0,2.61,2.95,3.07,3.07,0,0,0,3.29-2.15l2.67-6.34-5.79-1.6a10,10,0,0,1-2.73,5l4.71,3.64a12.37,12.37,0,0,0,1.35-6.65c-.22-2.21-2.4-3.81-4.52-2.59a5.46,5.46,0,0,0-2.75,3,4.17,4.17,0,0,0,1,4.2c1,.95,2.4,1.15,3.66,1.46s2.43.65,3.66.91a6.56,6.56,0,0,0,4.45-.41,8.13,8.13,0,0,0,2.9-2.81,22,22,0,0,0,2.72-6.79l-5.79-1.6q-.9,4.34-1.73,8.68a3.12,3.12,0,0,0,1.38,3.39,3,3,0,0,0,3.64-.47,15.62,15.62,0,0,0,3.48-8.19,3,3,0,0,0-2.2-2.89,3.08,3.08,0,0,0-3.39,1.38,18.05,18.05,0,0,1-4.47,5.07l5,2.92,1.68-4.08a11,11,0,0,0,1.16-4.6c-.08-2.07-2.57-4-4.52-2.59a13.27,13.27,0,0,0-5.66,10.57c-.06,3,4.08,4,5.59,1.52a45.13,45.13,0,0,0,5.69-14.48,3,3,0,0,0-1.74-3.54,3,3,0,0,0-3.75,1.22,119.59,119.59,0,0,0-4.68,11.94,3,3,0,1,0,5.78,1.59c1.14-3.31,2.27-6.64,3.72-9.83L182.62,250a26.44,26.44,0,0,1-4.5,9.13l5,2.92,4.57-11.32a3,3,0,0,0-1.74-3.54,3,3,0,0,0-3.75,1.22l-6.71,10a3,3,0,0,0,4.71,3.63,51.05,51.05,0,0,0,7.5-12.13,3,3,0,0,0-4.71-3.63c-5,3.93-9,9-12.7,14.06l5.18,3c1.73-3.23,3.27-6.53,4.69-9.91a3,3,0,0,0-1.08-3.15,3,3,0,0,0-3.33-.23,19.54,19.54,0,0,0-6.63,7.12c-.8,1.31-1.52,2.66-2.3,4-.39.66-.79,1.31-1.22,1.94-.22.31-.43.62-.66.92.34-.44-.35.42-.42.49l5,2.92q3.09-8.87,6.67-17.54l-5.78-1.59-2,11a3,3,0,0,0,5.79,1.6c.32-.87-.26.44.16-.38.13-.27.26-.53.41-.79.26-.49.55-1,.85-1.42.63-1,1.31-1.91,1.94-2.88a15.3,15.3,0,0,0,2.65-7.14,3,3,0,0,0-3-3,3.07,3.07,0,0,0-3,3Z"/><path class="cls-3" d="M163.94,273.51l5.85-.54-.8-5.89a25.94,25.94,0,0,1-5.63,1.36l.8,5.9a14.33,14.33,0,0,1,7.54-1.08c1.61.19,3-1.51,3-3a3.08,3.08,0,0,0-3-3,13.76,13.76,0,0,0-5,.36,3,3,0,0,0-.71,5.48,14.39,14.39,0,0,0,7.28,1.28l-.8-5.89a16,16,0,0,1-2.71.28v6l11.16-1.43-1.51-5.59a4.91,4.91,0,0,1-2.07.45,3,3,0,0,0-3,3c0,1.8,1.39,2.78,3,3a18,18,0,0,0,8.37-.91,3,3,0,0,0,1.32-5,16.23,16.23,0,0,0-3.32-2.63l-2.31,5.49,2.11.84-1.33-5-.93,1.14a3.14,3.14,0,0,0-.47,3.63,3.75,3.75,0,0,0,2.55,1.94,3.1,3.1,0,0,0,3.7-2.1,3,3,0,0,0-2.1-3.69l1,.82-.47,3.64.94-1.14a3,3,0,0,0-1.33-5l-2.11-.85a3,3,0,0,0-3.54,1.74,3,3,0,0,0,1.23,3.74,9,9,0,0,1,2.11,1.69l1.32-5a13.66,13.66,0,0,1-6.77.7v6a12,12,0,0,0,5.1-1.27,3,3,0,0,0-1.52-5.59l-11.16,1.43a3.1,3.1,0,0,0-3,3,3,3,0,0,0,3,3,27.09,27.09,0,0,0,4.31-.49c3.27-.64,2.58-6.25-.8-5.9a8.49,8.49,0,0,1-4.26-.46l-.71,5.48a9.34,9.34,0,0,1,3.43-.14v-6a18.38,18.38,0,0,0-9.13,1.29,3,3,0,0,0-2.15,3.29,3,3,0,0,0,2.94,2.6,32.4,32.4,0,0,0,7.23-1.57,3,3,0,0,0,2.15-3.3,3,3,0,0,0-3-2.6l-5.85.54a3.08,3.08,0,0,0-3,3,3,3,0,0,0,3,3Z"/><path class="cls-3" d="M185.15,269a2.23,2.23,0,0,1,.1.43l-.11-.79a2.08,2.08,0,0,1,0,.61l.11-.8a2.36,2.36,0,0,1-.17.59l.31-.71a2.78,2.78,0,0,1-.28.47l.47-.61-.15.18a2.24,2.24,0,0,0-.62,1,2.7,2.7,0,0,0,0,2.31,2.24,2.24,0,0,0,.62,1l.6.47a3,3,0,0,0,1.52.4l.79-.1a3,3,0,0,0,1.33-.77,8.46,8.46,0,0,0,.65-.83,1.61,1.61,0,0,0,.17-.28,7.6,7.6,0,0,0,.42-1,1.81,1.81,0,0,0,.09-.31l0-.16c.05-.3.09-.61.12-.91a1.82,1.82,0,0,0,0-.33c0-.05,0-.11,0-.17,0-.3-.08-.61-.13-.91a1.59,1.59,0,0,0-.09-.33,2.27,2.27,0,0,0-.53-1,2.36,2.36,0,0,0-.85-.78,2.2,2.2,0,0,0-1.11-.35,2.33,2.33,0,0,0-1.2,0l-.71.3a3,3,0,0,0-1.08,1.08l-.3.72a2.87,2.87,0,0,0,0,1.59Z"/><path class="cls-3" d="M186.3,266.11a14.74,14.74,0,0,1-1,1.42l.46-.61a14.15,14.15,0,0,1-2.41,2.42l.6-.47c-.18.15-.38.29-.57.42a2.25,2.25,0,0,0-.84.78,2.66,2.66,0,0,0-.59,2.21,2.17,2.17,0,0,0,.35,1.12,3.08,3.08,0,0,0,1.8,1.38,3,3,0,0,0,2.31-.31,16.57,16.57,0,0,0,5-5.33A3,3,0,0,0,190.4,265a3,3,0,0,0-2.31-.3,3.13,3.13,0,0,0-1.79,1.38Z"/><path class="cls-3" d="M186.21,267.65a1.1,1.1,0,0,1,0,.18l.11-.8a6.67,6.67,0,0,1-.42,1.53l.3-.72a6.42,6.42,0,0,1-.79,1.37l.46-.61a4.92,4.92,0,0,1-.65.72,2.34,2.34,0,0,0-.62,1,2.7,2.7,0,0,0,0,2.31,2.34,2.34,0,0,0,.62,1,3.06,3.06,0,0,0,2.12.88,3.22,3.22,0,0,0,2.12-.88,10.5,10.5,0,0,0,1.18-1.41,5.89,5.89,0,0,0,.59-1,11.14,11.14,0,0,0,.68-1.68,10.75,10.75,0,0,0,.32-1.87,2.22,2.22,0,0,0-.26-1.16,2.16,2.16,0,0,0-.62-1,2.25,2.25,0,0,0-1-.62,2.2,2.2,0,0,0-1.16-.26,3,3,0,0,0-2.12.88l-.47.6a3.12,3.12,0,0,0-.41,1.52Z"/><path class="cls-3" d="M165.58,266.29c-.06.36-.12.74-.15,1.11a2.41,2.41,0,0,0,0,.38,10.74,10.74,0,0,0,.15,1.12c0,.12,0,.25.08.37a3,3,0,0,0,.77,1.32,2.34,2.34,0,0,0,1,.62,2.2,2.2,0,0,0,1.16.26,3,3,0,0,0,1.51-.41l.13-.09c.24-.18.48-.36.7-.54l.21-.21a4.35,4.35,0,0,0,.33-.42,4.4,4.4,0,0,0,.31-.41,1.4,1.4,0,0,0,.16-.26c.13-.27.24-.55.35-.82l.06-.14c0-.1.06-.2.08-.3a2.38,2.38,0,0,1,.11-.53l-.3.72.06-.11-.47.6,0-.05-.6.47.06,0-.72.3.07,0-.8.11h0l-.8-.11h0l-.71-.3h0l-.61-.47,0,0-.47-.6,0,0-.3-.71s0,0,0,.07l-.1-.8a.28.28,0,0,1,0,.09l.11-.8a.43.43,0,0,1,0,.05l.3-.71,0,0,.47-.61h0l.61-.47h0l.72-.3h0l.8-.11h0l.8.11h0l.71.3h0l.61.47,0,0a2.95,2.95,0,0,0-3.28-.62,2.25,2.25,0,0,0-1,.62l-.47.61a2.89,2.89,0,0,0-.41,1.52l.1.79a3,3,0,0,0,.78,1.33,2.37,2.37,0,0,0,.64.49c.1.06.62.28.73.32a3,3,0,0,0,2.35-.31,3.19,3.19,0,0,0,1.11-1.11c.06-.12.27-.62.31-.74s.16-1.45.11-.84a1.67,1.67,0,0,0,0-.49,4.16,4.16,0,0,0-.06-.44v0l-.3-.72,0,0-.47-.61,0,0a3.45,3.45,0,0,0-2.16-.9,3.29,3.29,0,0,0-2.32,1,3.53,3.53,0,0,0-.91,1.59c0,.13,0,.27-.07.4a2.23,2.23,0,0,1-.13.44l.3-.72a2.87,2.87,0,0,1-.28.48l.47-.6a3.23,3.23,0,0,1-.37.37l.6-.47-.16.11,4.41,1.79a2.46,2.46,0,0,1-.1-.47l.1.8a3.57,3.57,0,0,1,0-.8l-.11.8a.5.5,0,0,0,0-.12,3.28,3.28,0,0,0-.3-2.31,2.31,2.31,0,0,0-.77-.84,2.2,2.2,0,0,0-1-.54l-.8-.11a3,3,0,0,0-1.51.41l-.61.47a3,3,0,0,0-.77,1.33Z"/><path class="cls-3" d="M166.18,275.17l2.85-.3a3.1,3.1,0,0,0,3-3l-.11-.8a3,3,0,0,0-.77-1.33l-.61-.46a2.88,2.88,0,0,0-1.51-.41l-2.85.3a2.29,2.29,0,0,0-1.15.26,2.34,2.34,0,0,0-1,.62,2.22,2.22,0,0,0-.62,1,2.37,2.37,0,0,0-.26,1.15l.11.8a2.94,2.94,0,0,0,.77,1.32l.61.47a3,3,0,0,0,1.51.41Z"/><path class="cls-3" d="M150,291.88c-.2.58-.41,1.15-.65,1.72l.3-.72a25.19,25.19,0,0,1-3.18,5.48l.46-.61c-.25.34-.52.67-.8,1a3.23,3.23,0,0,0-.87,2.12,3,3,0,0,0,3,3,3,3,0,0,0,2.12-.88,28.66,28.66,0,0,0,5.4-9.5,3,3,0,0,0-2.09-3.69,3.07,3.07,0,0,0-3.69,2.09Z"/><path class="cls-3" d="M151.34,288.92a16.4,16.4,0,0,0-4.72,13.39,3.26,3.26,0,0,0,.87,2.12,3,3,0,0,0,4.25,0,2.93,2.93,0,0,0,.88-2.12,13.38,13.38,0,0,1-.07-2.9c0-.11,0-.23,0-.35,0-.38-.12.72,0,.19,0-.23.08-.46.13-.69a12.48,12.48,0,0,1,.4-1.45c.07-.22.16-.44.24-.66s-.26.57-.1.23c0-.11.09-.22.14-.32a11.9,11.9,0,0,1,.71-1.32c.12-.2.25-.4.38-.6l.21-.28c.23-.33-.06.11-.15.18.38-.31.7-.82,1.06-1.18a3,3,0,0,0-4.25-4.24Z"/><path class="cls-3" d="M152.31,296.19l9.42,3.41a24,24,0,0,1,3.79,1.64,6.68,6.68,0,0,0,5.09,1c3-.73,2.71-4.91,0-5.78s-4.93-2.44-7.53-3.37a19.71,19.71,0,0,0-3.48-.79,11,11,0,0,1-1.7-.39c-.21-.08,0,.05-.34-.17.32.23-.37-.39-.38-.4l-1.32,5c1.75-.42,3,.36,4.46,1.19a24.52,24.52,0,0,0,6.24,2.3,53.22,53.22,0,0,0,13.83,1.54c3.85-.07,3.86-6.07,0-6a47.08,47.08,0,0,1-13.62-1.69,16,16,0,0,1-2.63-.9c-.94-.46-1.8-1.06-2.74-1.5a10.59,10.59,0,0,0-7.14-.73c-2.35.56-2.7,3.38-1.32,5,2,2.39,5,2.24,7.77,3,2.9.84,5.42,2.69,8.31,3.62v-5.78c.33-.09.58.25.25,0a4.57,4.57,0,0,0-.72-.4,19.61,19.61,0,0,0-1.77-.9c-1.43-.63-2.91-1.15-4.38-1.68l-8.49-3.07a3,3,0,1,0-1.6,5.78Z"/><path class="cls-3" d="M179.76,296.29l-6.31,6.78a3.15,3.15,0,0,0-.88,2.12,3,3,0,0,0,5.12,2.12l6.31-6.78a3.1,3.1,0,0,0,.88-2.12,3,3,0,0,0-5.12-2.12Z"/><path class="cls-3" d="M180.59,296.33a25.4,25.4,0,0,0-4.84,4.48,2.25,2.25,0,0,0-.62,1,2.72,2.72,0,0,0,0,2.32,2.25,2.25,0,0,0,.62,1,3,3,0,0,0,2.12.88,2.88,2.88,0,0,0,2.12-.88,22.11,22.11,0,0,1,3.7-3.6l-.61.47.54-.41a2.23,2.23,0,0,0,.84-.77,2.2,2.2,0,0,0,.54-1,2.33,2.33,0,0,0,.05-1.2,2.2,2.2,0,0,0-.35-1.11,3,3,0,0,0-1.8-1.38,2.91,2.91,0,0,0-2.31.3Z"/><path class="cls-3" d="M178.85,298.36v.09l.11-.8a9.66,9.66,0,0,1-.67,2.42l.31-.72a10.16,10.16,0,0,1-1.26,2.16l.47-.6c-.2.25-.42.5-.64.74a3.15,3.15,0,0,0-.88,2.13,3,3,0,0,0,5.12,2.12,12.23,12.23,0,0,0,2.2-3.15,11.78,11.78,0,0,0,1.25-4.39,3,3,0,0,0-.88-2.12,3,3,0,0,0-4.24,0l-.47.61a3.08,3.08,0,0,0-.41,1.51Z"/><path class="cls-3" d="M172.29,301a36.47,36.47,0,0,1-1.21,5.16c-.26.82-.55,1.64-.87,2.45-.09.22-.45.78,0,.05a4.53,4.53,0,0,0-.26.6q-.28.63-.6,1.26a3.21,3.21,0,0,0-.3,2.31,3,3,0,0,0,5.48.72,38.52,38.52,0,0,0,3.57-10.95,3.25,3.25,0,0,0-.31-2.31,3,3,0,0,0-4.1-1.08,2.91,2.91,0,0,0-1.38,1.79Z"/><path class="cls-3" d="M169.43,300.38a32.63,32.63,0,0,1-2.09,7.37l.3-.72c-.21.51-.44,1-.68,1.5-.1.22-.22.43-.32.66-.23.5.41-.41.21-.22s.67-.44.28-.25l.71-.3-.09,0,.79-.11a.25.25,0,0,1-.17,0l1.52.41.49.38.77,1.32,0-.09a3.29,3.29,0,0,0-1.38-1.79,3,3,0,0,0-4.41,3.39,3.27,3.27,0,0,0,3.21,2.38,3.8,3.8,0,0,0,2.9-1.57,16.19,16.19,0,0,0,1.89-3.93,32,32,0,0,0,1.89-6.86,3.25,3.25,0,0,0-.31-2.31,3,3,0,0,0-4.1-1.08,2.94,2.94,0,0,0-1.38,1.79Z"/><path class="cls-3" d="M154.77,301c-.89.42-1.09.56-.6.41-.46.05-.51.08-.17.08-.49,0-.3,0,.08.05.6.16,1.19.36,1.79.52,1.18.33,2.38.61,3.59.85a54.4,54.4,0,0,0,8.14.93,3,3,0,0,0,0-6c-1.42-.05-2.84-.17-4.25-.34-.36,0-.38,0,0,0l-.56-.09-1.12-.18c-.65-.12-1.31-.25-2-.4-1.35-.3-2.66-.73-4-1.08a5.4,5.4,0,0,0-5.14,1,3,3,0,0,0,0,4.24,3.07,3.07,0,0,0,4.24,0Z"/><path class="cls-3" d="M152,298.8h3.13a2.17,2.17,0,0,0,1.15-.26,2.22,2.22,0,0,0,1-.62,2.25,2.25,0,0,0,.62-1,2.32,2.32,0,0,0,.26-1.16L158,295a3,3,0,0,0-.77-1.32,3.12,3.12,0,0,0-2.12-.88H152a2.32,2.32,0,0,0-1.16.26,2.25,2.25,0,0,0-1,.62,2.22,2.22,0,0,0-.62,1,2.17,2.17,0,0,0-.26,1.15l.11.8a2.94,2.94,0,0,0,.77,1.32,3.12,3.12,0,0,0,2.12.88Z"/><path class="cls-3" d="M152.79,294.86l5.89,3a3.21,3.21,0,0,0,2.31.31,3.11,3.11,0,0,0,1.8-1.38,3.06,3.06,0,0,0,.3-2.31,3,3,0,0,0-1.38-1.8l-5.89-3a3.21,3.21,0,0,0-2.31-.3,3,3,0,0,0-2.1,3.69,3,3,0,0,0,1.38,1.79Z"/><path class="cls-3" d="M152,301.58a136.2,136.2,0,0,0,17.08,3.65,3.08,3.08,0,0,0,3.69-2.09c.32-1.43-.44-3.45-2.1-3.69a138.28,138.28,0,0,1-17.07-3.66,3,3,0,0,0-1.6,5.79Z"/><path class="cls-3" d="M163.94,301.47c.11.16.22.31.32.48.37.65,0,0,0,0l.16.55c.19.56,0-.7,0,.06,0,.19,0,.38,0,.58s0,.13.05-.32l-.06.28c0,.09,0,.18-.07.28s-.08.24,0,0,.1-.24,0,0a3.65,3.65,0,0,1-.18.34l5.59,1.51c0-.46.05.06,0,.13a2.71,2.71,0,0,0,.1-.55c.07-.33.15-.65.25-1a3.43,3.43,0,0,1,.3-.84c-.08,0-.25.56,0,0,.08-.17.17-.33.26-.49L165.11,301a10.93,10.93,0,0,1-.11,1.62c.15-.84-.05.19-.09.34s-.11.53-.18.79c-.14.52-.33,1-.51,1.54-.08.2-.05.14.09-.19l-.2.42a2,2,0,0,1-.17.32,2.48,2.48,0,0,1,1.12-.91h1.59c-.49-.09-.26.06.71.46a3.33,3.33,0,0,1-.25-.28c-.21-.25-.17-.2.1.15a3.71,3.71,0,0,1-.23-.32,14,14,0,0,1-.81-1.34c-.46-.88-.87-1.79-1.32-2.67-1.27-2.48-3.29-5.35-6.44-4.92a5,5,0,0,0-3.94,3.65,19.23,19.23,0,0,0-.5,4.15l-.32,3.88c0,.33-.07.66-.08,1,0,.78.19-.76,0,.08,0,.1-.06.21-.09.31.21-.46.24-.56.1-.29a2.3,2.3,0,0,1,2.37-.83,3.25,3.25,0,0,0-2.31.3,3.05,3.05,0,0,0-1.38,1.79c-.32,1.43.44,3.45,2.1,3.69a4.15,4.15,0,0,0,2.95-.42,4.4,4.4,0,0,0,1.59-1.78,12.16,12.16,0,0,0,.83-4.48l.33-4,.09-1c0-.15,0-.3,0-.45,0-.42-.13.57,0,.16.05-.2.05-.57.19-.72-.14.15-.2.45-.37.62.19-.18.19-.19,0,0a1.06,1.06,0,0,1-.52.25,1.72,1.72,0,0,1-.64,0c-.09,0-.82-.32-.51-.15s-.42-.41-.18-.13c.08.1.19.19.27.28s.17.2.26.29c.28.29-.33-.47-.11-.15s.34.48.49.73a31,31,0,0,1,1.46,2.8,16.8,16.8,0,0,0,1.57,2.73,7,7,0,0,0,1.83,1.93,3.68,3.68,0,0,0,3.75.13c1.6-.89,2.28-2.91,2.78-4.56a18.45,18.45,0,0,0,.72-4.79,3,3,0,0,0-2.2-2.89,3.08,3.08,0,0,0-3.39,1.38,14.38,14.38,0,0,0-1.73,5.75,3,3,0,0,0,2.2,2.89,3.1,3.1,0,0,0,3.39-1.38,7.71,7.71,0,0,0-.26-8.27,3.26,3.26,0,0,0-1.79-1.37,3.08,3.08,0,0,0-2.32.3c-1.24.8-2.07,2.75-1.07,4.1Z"/><path class="cls-3" d="M147.65,300.24a10.09,10.09,0,0,0-1.46,5.88c0,.83,0,1.67,0,2.5,0,.2,0,.41,0,.62-.06.77,0,0,0,0a6,6,0,0,1-.37,1.36l5.9.8a28.64,28.64,0,0,0-.25-7.68,3,3,0,0,0-2.5-2.15,3,3,0,0,0-3,1.43q-1.29,1.88-2.43,3.84l5.59,1.52c0-.31,0-.69,0-.16,0-.24.08-.48.12-.72q.15-.76.36-1.53c.14-.46.29-.92.46-1.37,0-.12.09-.23.13-.34-.13.31-.15.36-.06.16l.36-.76-4.71.61.27.26c.2.25.16.19-.13-.17.07.1.13.21.19.31.14.29.12.22-.07-.22a3.4,3.4,0,0,0,.22.71c0,.12.05.25.07.37-.05-.48-.07-.56,0-.23s0,.9,0,1.36,0,.26,0-.21c0,.13,0,.25-.07.38s-.11.51-.17.76c-.67,2.55-1.81,4.92-1.71,7.62l5.59-1.51a8.11,8.11,0,0,1-.75-1.15l-.1-.2c-.14-.31-.13-.28,0,.08a2.37,2.37,0,0,1-.22-.65,3,3,0,0,0-5.78,1.6,10.25,10.25,0,0,0,1.64,3.35,3.12,3.12,0,0,0,3.39,1.38,3,3,0,0,0,2.2-2.9c0-.31,0-.62,0-.93,0-.74-.09.4,0,0,0-.15.05-.3.09-.46a19.29,19.29,0,0,1,.54-1.94,25.42,25.42,0,0,0,1.06-3.62c.5-2.92.21-6.06-2-8.22a3,3,0,0,0-4.71.61,21.6,21.6,0,0,0-2.19,7.75,3,3,0,0,0,2.2,2.89,3.08,3.08,0,0,0,3.39-1.38q1.14-2,2.43-3.84l-5.49-.72c0,.35.06.34,0,0,0,.13,0,.26,0,.39s.06.5.08.76c0,.55.07,1.11.08,1.66a28.29,28.29,0,0,1-.17,3.32,3,3,0,0,0,2.6,2.95,3.06,3.06,0,0,0,3.29-2.15,15,15,0,0,0,.61-5.47c0-.41,0-.82,0-1.24q0-.3,0-.6v-.2c0-.34,0-.27,0,.2a8.41,8.41,0,0,0,.25-1c.22-.64-.15.22,0,0s.23-.4.37-.59a3,3,0,0,0-1.08-4.1,3.08,3.08,0,0,0-4.1,1.07Z"/><path class="cls-3" d="M142.31,309.8a20.49,20.49,0,0,0-.08,8.29,3,3,0,0,0,1.38,1.79,3.09,3.09,0,0,0,1.91.36,3,3,0,0,0,2.6-2.95l0-2.44a3.12,3.12,0,0,0-.88-2.12,3,3,0,0,0-5.12,2.12l0,2.44,5.89-.8c-.06-.33-.11-.66-.16-1l.11.8a17.27,17.27,0,0,1,0-4.31l-.11.79c.06-.46.15-.92.24-1.37a3.18,3.18,0,0,0-.3-2.32,3,3,0,0,0-1.79-1.37,3,3,0,0,0-3.69,2.09Z"/><path class="cls-3" d="M141.56,312c.35,2.17.77,4.34,1.07,6.51l-.11-.79a.48.48,0,0,1,0,.17l.11-.8,0,.07.77-1.32-.05.06,1.32-.77-.06,0,.8-.11h-.07l1.52.41-.06,0,.61.47,0-.05.78,1.32v-.05l-.31,2.31,0-.05a3.06,3.06,0,0,0,.3-2.31,3,3,0,0,0-1.37-1.79,3.07,3.07,0,0,0-4.11,1.07,3.14,3.14,0,0,0,1.1,4.26,3.2,3.2,0,0,0,2.44.34,3.33,3.33,0,0,0,1.67-1.16,3.43,3.43,0,0,0,.68-2,6,6,0,0,0-.16-1.17l-.21-1.27-.82-4.95a3,3,0,0,0-1.38-1.8,3.1,3.1,0,0,0-2.31-.3,3.06,3.06,0,0,0-1.79,1.38l-.3.72a2.87,2.87,0,0,0,0,1.59Z"/><path class="cls-3" d="M141.68,315.25a56,56,0,0,1,3.34,5.58c.49.95,1,1.91,1.39,2.88.11.23.2.45.3.68s.12.26-.05-.13c.06.14.11.27.17.4.21.53.42,1.06.62,1.59a3.24,3.24,0,0,0,1.38,1.79,3,3,0,0,0,2.31.3c1.43-.46,2.69-2.11,2.1-3.69a59.11,59.11,0,0,0-6.38-12.43,3,3,0,1,0-5.18,3Z"/><path class="cls-3" d="M146.1,318.44c.32.61.62,1.24.9,1.87-.21-.47.22.57.25.66.11.28.21.56.31.84a31.45,31.45,0,0,1,1.1,4.16c.06.34.12.68.17,1s.06.39,0,.08c0,.15,0,.3.05.44.08.69.13,1.38.15,2.08a29.44,29.44,0,0,1-.14,4.3,3,3,0,0,0,3,3,3.08,3.08,0,0,0,3-3,33.13,33.13,0,0,0-3.63-18.49,3,3,0,0,0-4.1-1.08,3.07,3.07,0,0,0-1.08,4.11Z"/><path class="cls-3" d="M147.35,324.23a152.44,152.44,0,0,1,1,19c0,3.39,5,4.06,5.89.79l2.13-7.71h-5.79a6.14,6.14,0,0,1-.1,2.89,3,3,0,0,0,5,2.92c4.17-3.69,4.94-9.32,8.12-13.65,1.54-2.08,4.09-3.79,5.88-5.85a25.84,25.84,0,0,0,4.84-8.36,3,3,0,0,0-1.74-3.54,3,3,0,0,0-3.75,1.22,129.79,129.79,0,0,0-9.43,15.68l5.48,2.31,1.75-4.27c1.14-2.78-3.13-5.1-5-2.92a36,36,0,0,0-3,3.89c-.83,1.26-1.43,2.62-2.19,3.91-.11.19-.21.26-.27.4-.84.76.08,1.05,2.73.85l-.12-.38a13.65,13.65,0,0,1-.22-1.58,6,6,0,0,1,1.12-3.39l-5.59-1.51a24.74,24.74,0,0,1-.84,5.2l5.78,1.6a40.88,40.88,0,0,1,9.51-21.21l-5-1.33a25.43,25.43,0,0,1,.77,6.26c0,3.87,5.88,3.85,6,0l.16-4.71c.1-3-4.13-4.05-5.59-1.52l-7,12.17,5.49,2.31,3.2-9a3,3,0,0,0-2.1-3.69,3.07,3.07,0,0,0-3.69,2.09,64.54,64.54,0,0,1-5.43,11.11L161,325.7a39.49,39.49,0,0,1,1.64-15.91,3,3,0,1,0-5.78-1.59A43.77,43.77,0,0,0,155,325.7a3.11,3.11,0,0,0,2.2,2.89,3.08,3.08,0,0,0,3.39-1.37,73.08,73.08,0,0,0,6-12.54l-5.79-1.6-3.2,9c-1.15,3.24,3.81,5.21,5.48,2.31l7-12.17-5.59-1.51-.16,4.71h6a32.4,32.4,0,0,0-1-7.85c-.53-2.09-3.53-3-5-1.33a46.29,46.29,0,0,0-11.05,23.86,3.11,3.11,0,0,0,2.09,3.7,3.05,3.05,0,0,0,3.69-2.1,31.89,31.89,0,0,0,1.06-6.8c.15-3.15-4-3.84-5.59-1.51a11.59,11.59,0,0,0-1.94,6.81c.12,2.52.9,5.69,3.73,6.33s4.74-1.84,5.88-4.08a27.33,27.33,0,0,1,3.67-5.5l-5-2.91-1.76,4.27a3,3,0,0,0,5.49,2.31A129.79,129.79,0,0,1,174,315l-5.48-2.31a18.2,18.2,0,0,1-4,6.47c-2,2.14-4.39,3.89-6.13,6.32-2.8,3.91-3.61,9.27-7.18,12.42l5,2.92a13,13,0,0,0,.11-6.07c-.62-3-5-2.74-5.79,0l-2.13,7.71,5.9.8a152.44,152.44,0,0,0-1-19,3.1,3.1,0,0,0-3-3c-1.48,0-3.19,1.38-3,3Z"/><path class="cls-3" d="M159.9,303.78c-.07.61,0,0-.06.53-.05.33-.1.66-.16,1q-.15,1-.36,2c-.26,1.31-.57,2.62-.93,3.91s-.76,2.57-1.21,3.83-.86,2.29-1.32,3.33l5.49,2.31,2.76-9.43c1-3.33,1.83-6.77.88-10.22a3,3,0,0,0-5.79,1.6,7.44,7.44,0,0,1,.08,3.38c-.28,1.47-.73,2.89-1.15,4.32l-2.57,8.75a3,3,0,0,0,1.74,3.54,3,3,0,0,0,3.74-1.22,61.35,61.35,0,0,0,4.86-17.6,3,3,0,0,0-3-3,3.09,3.09,0,0,0-3,3Z"/><path class="cls-3" d="M165.41,300.9l0-.15a3.14,3.14,0,0,0-1.38-3.39c-2.94-1.89-5.65,1.38-6.64,3.84-.88,2.18-.91,4.59-1.39,6.88-1.16,5.56-3.39,10.93-5.25,16.28l5.89.8,0-19.8c0-3.87-6-3.87-6,0a66.51,66.51,0,0,1-.76,10.06h5.78a76.14,76.14,0,0,1-.83-10.45c0-3.35-5-4.12-5.89-.8a41.11,41.11,0,0,0-1.26,7.78c-.18,2.85,4.42,4.27,5.59,1.52a36.29,36.29,0,0,0,3-12.93,3,3,0,0,0-2.6-2.94,3,3,0,0,0-3.29,2.15l-2.29,6.31-1.11,3-.5,1.41-.34.93c-.43,1-.08.72,1.05-.71h1.59l-.28-.09,1.32.78a19.54,19.54,0,0,1-2.68-3.18,3,3,0,0,0-4.25,0,3.09,3.09,0,0,0,0,4.25c1.15,1.4,2.31,3.47,4.16,4,2.6.73,4.09-1.31,4.87-3.43,1.44-3.89,2.83-7.8,4.24-11.69l-5.89-.8a28.14,28.14,0,0,1-2.19,9.9l5.59,1.51a31.7,31.7,0,0,1,1.05-6.18l-5.9-.8a88.26,88.26,0,0,0,1.05,12c.44,2.87,5.33,2.86,5.78,0a77.06,77.06,0,0,0,1-11.65h-6l0,19.8c0,3.5,4.81,3.92,5.89.79,1.55-4.43,3.25-8.85,4.53-13.37a47.75,47.75,0,0,0,1.28-6.36,17.27,17.27,0,0,1,.49-2.46,2.65,2.65,0,0,1,.35-.85c.2-.31.24-.38.11-.21.54-.49.23-.43-.92.16l-1.52-.41.15.09-1.38-3.38,0,.14a3.07,3.07,0,0,0,2.1,3.69,3,3,0,0,0,3.69-2.09Z"/><path class="cls-3" d="M141.31,309.17a30.22,30.22,0,0,0,.09,4.85,2.17,2.17,0,0,0,.26,1.15,2.22,2.22,0,0,0,.62,1,3,3,0,0,0,4.24,0,2.89,2.89,0,0,0,.88-2.12,30.22,30.22,0,0,1-.09-4.85,3,3,0,0,0-.87-2.12,3,3,0,0,0-4.25,0l-.47.6a3.12,3.12,0,0,0-.41,1.52Z"/><path class="cls-3" d="M140.79,309l-1.41,1.87,5.49.71a1.5,1.5,0,0,1-.06-.29l.11.79a2.68,2.68,0,0,1,0-.8l-.11.8a3.31,3.31,0,0,1,.24-.87l-.31.72a3.87,3.87,0,0,1,.43-.74l-.47.6a4.25,4.25,0,0,1,.6-.6l-.6.47a3.67,3.67,0,0,1,.6-.36,2.23,2.23,0,0,0,.84-.77,2.2,2.2,0,0,0,.54-1,2.33,2.33,0,0,0,0-1.2,2.11,2.11,0,0,0-.35-1.11,3,3,0,0,0-1.8-1.38l-.79-.11a3,3,0,0,0-1.52.41,5.25,5.25,0,0,0-1.51,1.09,8.13,8.13,0,0,0-.83,1,3.1,3.1,0,0,0-.29.5,8.55,8.55,0,0,0-.5,1.21,5.85,5.85,0,0,0-.17.93,6.09,6.09,0,0,0-.08.95,8.77,8.77,0,0,0,.19,1.35l.3.71.47.61.61.47a2.25,2.25,0,0,0,1.12.36,1.51,1.51,0,0,0,.79,0,1.45,1.45,0,0,0,.76-.21,1.57,1.57,0,0,0,.66-.38,2.25,2.25,0,0,0,.77-.85l1.41-1.86a3.28,3.28,0,0,0,.3-2.31,2.27,2.27,0,0,0-.53-1,2.23,2.23,0,0,0-.84-.77,3,3,0,0,0-2.32-.31l-.71.31a3,3,0,0,0-1.08,1.07Z"/><path class="cls-3" d="M150.39,302.34a27.82,27.82,0,0,1-.19,5.24l.11-.79a29.31,29.31,0,0,1-1,4.42,3,3,0,1,0,5.79,1.59,30.33,30.33,0,0,0,1.26-10.46,3,3,0,0,0-6,0Z"/><path class="cls-3" d="M153.58,303.08a50.66,50.66,0,0,0-2.73,8.15,3.21,3.21,0,0,0,.3,2.31,3,3,0,0,0,5.49-.72,45.41,45.41,0,0,1,2.37-7.3l-.3.71,0-.13a2.21,2.21,0,0,0,.36-1.11,2.33,2.33,0,0,0-.05-1.2,3.09,3.09,0,0,0-1.38-1.79,3,3,0,0,0-2.31-.3,2.89,2.89,0,0,0-1.8,1.38Z"/><path class="cls-3" d="M141.08,306.2l-2,4.29a2.21,2.21,0,0,0-.36,1.11,2.33,2.33,0,0,0,0,1.2,3.06,3.06,0,0,0,1.38,1.79,3,3,0,0,0,2.31.3,2.94,2.94,0,0,0,1.8-1.37l1.95-4.29a2.11,2.11,0,0,0,.35-1.11,2.23,2.23,0,0,0-.05-1.2,3.05,3.05,0,0,0-1.38-1.79,3,3,0,0,0-2.31-.3,2.89,2.89,0,0,0-1.79,1.37Z"/><path class="cls-3" d="M141.84,305.58a20.63,20.63,0,0,0-1.53,2,13.88,13.88,0,0,0-.91,1.52,2.38,2.38,0,0,0-.35,1.12,2.66,2.66,0,0,0,.59,2.21,2.25,2.25,0,0,0,.84.78l.72.3a3.06,3.06,0,0,0,1.59,0l.72-.3a3.1,3.1,0,0,0,1.08-1.08,13.3,13.3,0,0,1,1.34-2.12l-.47.6.62-.75a2.16,2.16,0,0,0,.62-1,2.2,2.2,0,0,0,.26-1.16,2.17,2.17,0,0,0-.26-1.15,2.19,2.19,0,0,0-.62-1l-.6-.47a3,3,0,0,0-1.52-.41l-.8.11a3.05,3.05,0,0,0-1.32.77Z"/><path class="cls-3" d="M158.08,302.34c-.13.48-.28,1-.44,1.43-.08.23-.17.46-.26.69-.2.5.29-.61-.1.24a26.63,26.63,0,0,1-1.32,2.47c-.49.81-1,1.59-1.57,2.35-.14.21-.29.41-.44.61s-.41.54-.17.23c-.31.4-.63.79-.94,1.18a101,101,0,0,0-7.53,9.73,3,3,0,0,0,5.18,3c.53-.86,1.1-1.69,1.69-2.5l.46-.6a1.62,1.62,0,0,1,.18-.24l1-1.19c1.28-1.57,2.61-3.1,3.87-4.7,2.67-3.37,5.07-6.93,6.21-11.13a3,3,0,1,0-5.78-1.6Z"/><path class="cls-3" d="M146.3,308.86a46,46,0,0,0,1.66,9.46,43.68,43.68,0,0,1,.92,4.38c0,.21,0,.21,0,0l.06.63c0,.36.05.73.06,1.09s0,.74,0,1.1c0,.11-.1,1.24,0,.78-.21,1.54.38,3.3,2.1,3.69,1.41.32,3.46-.43,3.69-2.1a27.43,27.43,0,0,0-.76-10.2c-.36-1.52-.77-3-1.1-4.55-.16-.73-.3-1.46-.42-2.2-.05-.37-.06-.42,0-.15,0-.21-.05-.42-.07-.63,0-.43-.06-.85-.07-1.28a3,3,0,0,0-6,0Z"/><path class="cls-3" d="M159.38,270.14l-.86,1.62a3.28,3.28,0,0,0-.3,2.31l.3.72a2.23,2.23,0,0,0,.77.84,1.57,1.57,0,0,0,.66.38,2.22,2.22,0,0,0,1.16.26l.8-.1a3,3,0,0,0,1.32-.78l1.44-1.29a2.16,2.16,0,0,0,.62-1,2.72,2.72,0,0,0,0-2.32,2.16,2.16,0,0,0-.62-1l-.6-.47a3,3,0,0,0-1.52-.41l-.8.11a3,3,0,0,0-1.32.77L159,271.15l4.71,3.64.86-1.62a2.21,2.21,0,0,0,.36-1.11,2.33,2.33,0,0,0-.06-1.2,2.2,2.2,0,0,0-.54-1,2.23,2.23,0,0,0-.84-.77l-.71-.31a3.1,3.1,0,0,0-1.6,0l-.72.31a3,3,0,0,0-1.07,1.07Z"/><path class="cls-3" d="M161.35,276.05h3.13a2.22,2.22,0,0,0,1.16-.26,2.72,2.72,0,0,0,1.58-1.58,2.2,2.2,0,0,0,.26-1.16l-.11-.79a3,3,0,0,0-.77-1.33,3.1,3.1,0,0,0-2.12-.88h-3.13a3.38,3.38,0,0,0-2.12.88,2.22,2.22,0,0,0-.62,1,2.26,2.26,0,0,0-.26,1.15l.11.8a2.94,2.94,0,0,0,.77,1.32,3.12,3.12,0,0,0,2.12.88Z"/><path class="cls-3" d="M234.62,269l-46.46,1.36-23,.67-11.49.34c-2.93.08-6,.17-8.81,1.22s-5.09,3-5.72,5.95c-.59,2.78.63,5.33,2.4,7.4,3.81,4.45,9.9,6.7,15.35,8.27a360.43,360.43,0,0,0,43.17,9.59,358.35,358.35,0,0,0,49.7,4.42c3.86.07,3.86-5.93,0-6a352.67,352.67,0,0,1-82.45-11.38c-5.89-1.53-12.15-2.77-17.38-5.85a19.49,19.49,0,0,1-2.82-2,7.34,7.34,0,0,1-1.84-2.11c-.07-.12-.33-.87-.14-.23a4.34,4.34,0,0,0-.14-.48c-.26-.56-.08.46,0-.15s-.29.55,0-.16c.06-.15.09-.33.15-.48-.24.64.12-.14.18-.23-.26.37.12-.12.21-.2s.14-.14,0,0l.52-.34c1.75-1,4.48-1.16,6.81-1.24,3.62-.12,7.24-.21,10.85-.32l21.73-.63L234.62,275c3.85-.12,3.87-6.12,0-6Z"/></g></svg>