<svg xmlns="http://www.w3.org/2000/svg" xmlns:xlink="http://www.w3.org/1999/xlink" viewBox="0 0 500 500"><defs><style>.cls-1,.cls-2{fill:none;}.cls-2{stroke:#15ff79;stroke-linecap:round;stroke-linejoin:round;stroke-width:5px;}.cls-3{clip-path:url(#clip-path);}.cls-4{fill:#15ff79;}.cls-5{fill:#fff;}</style><clipPath id="clip-path"><rect class="cls-1" x="132" y="23" width="144" height="224" transform="matrix(0.81, 0.59, -0.59, 0.81, 117.9, -93.97)"/></clipPath></defs><g id="Layer_3" data-name="Layer 3"><line class="cls-2" x1="98" y1="158" x2="174" y2="53"/><line class="cls-2" x1="174" y1="53" x2="403" y2="53"/><line class="cls-2" x1="403" y1="447" x2="403" y2="53"/><line class="cls-2" x1="98" y1="447" x2="403" y2="447"/><line class="cls-2" x1="98" y1="158" x2="98" y2="447"/><g class="cls-3"><rect class="cls-4" x="98" y="53" width="76" height="105"/></g><line class="cls-2" x1="173.74" y1="53" x2="173.74" y2="158"/><line class="cls-2" x1="98" y1="158" x2="173.74" y2="158"/><path class="cls-5" d="M235.28,322.21A42.3,42.3,0,0,0,251.45,312c2-2,3.9-4.24,6-6.25a16.11,16.11,0,0,1,6.13-4.14c3.68-1.16,2.11-6.95-1.59-5.79-5.78,1.81-9.63,6.59-13.66,10.82a37,37,0,0,1-14.6,9.76,3.08,3.08,0,0,0-2.1,3.69,3,3,0,0,0,3.69,2.1Z"/><path class="cls-5" d="M163.49,278.64c-.67.82-1.31,1.65-1.93,2.51-1.22,1.7.15,3.8,1.8,4.41,19.57,7.25,37.36-6.52,52.89-16.6,5-3.26,10.21-6.39,15.91-8.32a3.07,3.07,0,0,0,2.09-3.69,3,3,0,0,0-3.69-2.09c-9.64,3.27-17.86,9.33-26.29,14.85-7.56,5-15.58,9.87-24.61,11.48A28.16,28.16,0,0,1,165,279.77l1.79,4.41c.32-.45.65-.88,1-1.3a3.08,3.08,0,0,0,0-4.24,3,3,0,0,0-4.24,0Z"/><path class="cls-5" d="M163.12,279a7.81,7.81,0,0,0-.59,1.32,4.81,4.81,0,0,0-.21,1,4.07,4.07,0,0,0-.06.92,9.49,9.49,0,0,0,.15,1,5.64,5.64,0,0,0,.38.93,4.55,4.55,0,0,0,1.62,1.78,5.48,5.48,0,0,0,1.15.54,2.38,2.38,0,0,0,.52.15,7,7,0,0,0,1.44.16l.37,0a11.17,11.17,0,0,0,1.16-.17,2.27,2.27,0,0,0,1-.53,2.15,2.15,0,0,0,.77-.84,2.28,2.28,0,0,0,.36-1.12,2.33,2.33,0,0,0,0-1.2,3.09,3.09,0,0,0-1.38-1.79l-.72-.3a3.06,3.06,0,0,0-1.59,0l-.28,0,.8-.1a3.43,3.43,0,0,1-1,0l.79.11a2.55,2.55,0,0,1-.67-.18l.71.3a2.21,2.21,0,0,1-.44-.26l.61.47a1.87,1.87,0,0,1-.32-.31l.47.6a1.75,1.75,0,0,1-.2-.35l.3.71a1.91,1.91,0,0,1-.11-.41l.11.8a1.63,1.63,0,0,1,0-.54l-.11.8a2.91,2.91,0,0,1,.2-.73l-.3.72a3.58,3.58,0,0,1,.24-.48,2.28,2.28,0,0,0,.36-1.12,2.33,2.33,0,0,0,0-1.2,2.39,2.39,0,0,0-.54-1,2.31,2.31,0,0,0-.84-.77,3,3,0,0,0-2.32-.3,3.13,3.13,0,0,0-1.79,1.38Z"/><path class="cls-5" d="M246.21,218.71a52.4,52.4,0,0,0-21.56.55,58.75,58.75,0,0,0-18.51,8.32c-12,8-21.48,19.15-29.79,30.78-4.53,6.33-8.7,12.9-12.75,19.55-2,3.31,3.17,6.32,5.18,3,7-11.56,14.41-22.9,23.34-32.9a96.5,96.5,0,0,1,14.48-13.48,57.3,57.3,0,0,1,16.69-8.7,50.76,50.76,0,0,1,5.17-1.3,34.75,34.75,0,0,1,4.9-.64,48.05,48.05,0,0,1,11.26.57,3.08,3.08,0,0,0,3.69-2.09,3,3,0,0,0-2.1-3.69Z"/><path class="cls-5" d="M266.08,138.82q-5.83,26-13.74,51.39t-17.86,50q-5.56,13.8-11.78,27.32a3.1,3.1,0,0,0,1.07,4.11,3,3,0,0,0,4.11-1.08q11.24-24.48,20.47-49.83t16.25-51.1q4-14.53,7.26-29.25a3,3,0,0,0-5.78-1.6Z"/><path class="cls-5" d="M202.7,311.49A78.82,78.82,0,0,1,212.07,344a3.08,3.08,0,0,0,3,3,3,3,0,0,0,3-3,85.8,85.8,0,0,0-10.19-35.54c-1.88-3.37-7.07-.35-5.18,3Z"/><path class="cls-5" d="M268.6,141c9.23.73,19,3.77,26.08,9.79a3.08,3.08,0,0,0,4.24,0,3,3,0,0,0,0-4.24c-8.44-7.18-19.4-10.69-30.32-11.55a3,3,0,0,0-3,3,3.06,3.06,0,0,0,3,3Z"/><path class="cls-5" d="M268.85,229l53.48,10.4a3.08,3.08,0,0,0,3.69-2.09,3,3,0,0,0-2.09-3.69l-53.48-10.4a3.08,3.08,0,0,0-3.69,2.09,3,3,0,0,0,2.09,3.69Z"/><path class="cls-5" d="M233.38,314.64q-10.68,13.74-20.9,27.85a3,3,0,0,0,1.08,4.1,3.06,3.06,0,0,0,4.1-1.08q9.76-13.49,20-26.63a3.11,3.11,0,0,0,0-4.24c-1-1-3.25-1.29-4.25,0Z"/><path class="cls-5" d="M241.26,299.05a49,49,0,0,0-5.24,7.82,59.28,59.28,0,0,0-3.71,9,3,3,0,0,0,2.09,3.69,3.07,3.07,0,0,0,3.69-2.1c.5-1.48,1-2.95,1.58-4.39.14-.33.14-.34,0,0l.21-.49c.11-.25.23-.49.34-.74.31-.65.63-1.3,1-1.94.64-1.19,1.32-2.36,2.06-3.49.4-.6.81-1.2,1.23-1.78l.65-.87c-.38.49.3-.37.36-.45a3.08,3.08,0,0,0,0-4.25c-1.09-1-3.18-1.3-4.24,0Z"/><path class="cls-5" d="M293.19,149q-17.31,45-34.09,90.26-4.76,12.83-9.46,25.66a3,3,0,0,0,2.09,3.69,3.06,3.06,0,0,0,3.69-2.09Q272,221.2,289.2,176.11q4.88-12.8,9.78-25.56a3,3,0,0,0-2.1-3.69,3.08,3.08,0,0,0-3.69,2.1Z"/><path class="cls-5" d="M191.57,277.41c-7.25,3.51-13.61,9.3-16.47,17-.76,2-1.57,4.54-.28,6.52,1.42,2.2,4.52,2.61,6.89,2.9,4.72.59,9.54-.26,14.13-1.37,5.17-1.25,10.28-2.82,15.66-2.64,3.86.13,3.86-5.87,0-6-8.48-.29-16.24,3.53-24.59,4.13a21.1,21.1,0,0,1-5.5-.18c-.5-.1-1-.21-1.49-.36-.69-.2-.6-.43-.16.56.53,1.21.37.49.56-.22.1-.38.22-.75.34-1.12a21.19,21.19,0,0,1,4.52-7.28,31.46,31.46,0,0,1,9.42-6.73,3,3,0,0,0,1.08-4.1,3.07,3.07,0,0,0-4.11-1.08Z"/><path class="cls-5" d="M212,290.45a48.66,48.66,0,0,0-5.24,7.81,59.1,59.1,0,0,0-3.71,9,3,3,0,0,0,2.09,3.69,3.07,3.07,0,0,0,3.69-2.09c.5-1.48,1-2.95,1.58-4.39.14-.33.14-.34,0,0l.22-.49c.11-.25.22-.5.34-.74.3-.65.62-1.3,1-1.94.63-1.19,1.32-2.36,2.06-3.49.39-.6.8-1.2,1.23-1.78l.64-.87c-.37.49.31-.37.37-.46a3.07,3.07,0,0,0,0-4.24c-1.09-1-3.19-1.3-4.24,0Z"/><path class="cls-5" d="M244.1,313.38l-.87,9.35a62.36,62.36,0,0,0-.72,8.6,6.54,6.54,0,0,0,5.29,6.27,10.23,10.23,0,0,0,7.81-2,56.52,56.52,0,0,0,12.06-11.15c3.38-4.18,6.29-8.52,10.73-11.68,4.81-3.42,10.23-5.83,15.61-8.18,1.49-.65,1.83-2.82,1.08-4.1a3.07,3.07,0,0,0-4.1-1.08c-8.94,3.89-17.76,8.19-23.91,16-3.15,4-6.15,8-10,11.39a36.27,36.27,0,0,1-5.4,4.16,4.19,4.19,0,0,1-2.42.8c.42,0-.75-.23-.45-.1-.09,0-.35-.31-.19-.09l-.23-.23c.08.09.11.11.11,0-.17-2.75.43-5.68.68-8.42l.9-9.6a3,3,0,0,0-3-3,3.08,3.08,0,0,0-3,3Z"/><path class="cls-5" d="M272.33,146.06a44.92,44.92,0,0,1,17.46,4.1l-.61-4.71a6.09,6.09,0,0,1-.44.44c.18-.12.19-.12,0,0s-.95.46-.45.28a5.77,5.77,0,0,1-.84.23c-.81.19.46,0-.39.05a30,30,0,0,1-4.24-.22c-3.24-.36-6.28-.49-9.32.87-2.45,1.09-1.59,4.85.72,5.48l13,3.57v-5.79a77.34,77.34,0,0,1-14.64,1.4,3,3,0,0,0-2.95,2.6,3,3,0,0,0,2.15,3.29l11.1,1.93-1.33-5c-1.19,1.15-2.58,2.64-4.31,2.83.18-.07.09-.08-.25,0q.38,0-.18-.09c.38.16-.49-.3-.47-.29.18.13.14.07-.13-.17.14.2.11.15-.08-.15.06-.11-.13,1.15.12.23l-5.89-.8q-1.55,16.69-4.66,33.16a3,3,0,0,0,1.74,3.54,3,3,0,0,0,3.74-1.23,163.78,163.78,0,0,1,12.67-21.79c.57-.82,1.14-1.63,1.72-2.44a16.06,16.06,0,0,0,1.92-2.76c1-2.34-1.09-4.69-3.33-5.1-4.74-.88-6.81,4.74-8.25,8.2-3,7.17-4.07,14.91-5.7,22.44a75,75,0,0,1-3.28,11.4c-1.51,3.9-3.43,7.62-5.06,11.47-3.35,7.88-5.21,16.29-8.41,24.23a107.77,107.77,0,0,1-11.6,21.3,9.31,9.31,0,0,1-3.06,3.18s-.51.28-.22.11c0,0-.51.17-.23.09s-.17,0-.22,0,.24,0,.28,0c.19.45,0,0,0-.08s.08.15.08.17a4.66,4.66,0,0,0,0-.63,20.15,20.15,0,0,1,1.58-4.81c.71-1.82,1.51-3.62,2.36-5.38a94.92,94.92,0,0,1,6.23-10.92,107.8,107.8,0,0,0,6.51-10.54c3.88-7.71,5.53-16.38,7.59-24.69,2.17-8.73,4.29-17.48,6.22-26.27q.72-3.24,1.39-6.49l-5.78-1.59q-3.45,19-5.41,38.23c-.61,6-1,12-1.84,18A79.73,79.73,0,0,1,253,244.37a176,176,0,0,1-8.64,18.2,3,3,0,0,0,5.18,3c5.7-11,11.17-22,13.26-34.29,1.05-6.21,1.54-12.49,2.13-18.75s1.31-12.65,2.17-19q1.44-10.69,3.38-21.34a3.08,3.08,0,0,0-2.09-3.69,3,3,0,0,0-3.69,2.1c-1.64,7.85-3.45,15.66-5.34,23.46-1.81,7.51-3.57,15.06-5.62,22.51a53.3,53.3,0,0,1-3.64,10,92.37,92.37,0,0,1-5.64,9.22,101.85,101.85,0,0,0-10.32,19.7c-1.18,3.07-2.55,6.79-.43,9.8,2.47,3.51,6.8,2.7,9.74.38,2.67-2.12,4.49-5.34,6.3-8.19,1.92-3,3.7-6.14,5.32-9.33a131.28,131.28,0,0,0,8.18-20.76c1.13-3.68,2.24-7.37,3.67-10.95,1.34-3.37,3-6.62,4.44-10a74.05,74.05,0,0,0,4-11.59c.92-3.74,1.62-7.53,2.39-11.31a92.69,92.69,0,0,1,2.82-11.11,38.93,38.93,0,0,1,1.91-4.75c.41-.84.87-1.65,1.33-2.47s.16-.1.09-.16a1.27,1.27,0,0,1-.92,0,1.81,1.81,0,0,1-1-1.08l.31-2.31a163.79,163.79,0,0,0-16.16,26.63l5.49,2.32q3.25-17.25,4.87-34.76c.31-3.43-5-4-5.89-.79-1,3.68,1.8,7.22,5.39,7.92,4,.77,7.26-1.83,9.94-4.39,1.52-1.46.93-4.63-1.33-5l-11.09-1.92-.8,5.89a85.88,85.88,0,0,0,16.23-1.61c3-.58,2.72-5,0-5.79l-13-3.56.72,5.48c-.33.14.66-.18.78-.21s.95-.14.48-.09a16.33,16.33,0,0,1,2.32,0c1.47.09,2.92.31,4.39.43,3.24.27,6.58-.2,8.9-2.7,1.2-1.3,1.23-3.86-.61-4.71a52.42,52.42,0,0,0-20.48-4.92c-3.86-.13-3.86,5.87,0,6Z"/><path class="cls-5" d="M213.27,296.47a74.21,74.21,0,0,0-5.17,9.47c-1.24,2.74-4.35,7.95-1.16,10.47a3.22,3.22,0,0,0,3.64.47c3.71-1.62,5.65-5.82,7.49-9.17q1.47-2.67,2.84-5.4c.48-1,1-2,1.43-3a4.92,4.92,0,0,0,.55-1.1s0,0,0,0q-.84.5-1.77-.69c-.15-.77-.21-.88-.18-.34l0-.14a14.53,14.53,0,0,0-.44,1.42c-.36,1-.72,2-1.09,3.07l-2.24,6.36-4.67,13.19c-1,2.73,3.14,5.25,5,2.91a62.94,62.94,0,0,0,7.4-11.36,68.27,68.27,0,0,0,2.73-6.27c.31-.8.59-1.6,1-2.36a8.42,8.42,0,0,1,.78-1.33c-.08.1,0,0,.26-.28s.36-.37-.12,0h-1.6a1.81,1.81,0,0,1-1.29-1.62c0,.33,0,.4,0,.19s0-.15-.06.16-.19.6-.29.9c-.29.9-.59,1.79-.9,2.69-.7,2-1.44,4-2.22,6-1.5,3.78-3.18,7.49-5,11.14a3.08,3.08,0,0,0,1.08,4.11,3,3,0,0,0,4.1-1.08l7.34-12.77c1.13-2,2.22-4,3.42-5.9a13.2,13.2,0,0,1,3.3-3.94l-4.1-4.11q-9.8,13.92-19.39,28a3,3,0,0,0,1.07,4.1,3.06,3.06,0,0,0,4.11-1.08q9.6-14,19.39-28c1.69-2.4-1.7-5.84-4.1-4.1-3.91,2.81-6.05,7.06-8.39,11.14l-7.83,13.62,5.18,3q2.8-5.64,5.15-11.48,1.16-2.85,2.19-5.74a38.17,38.17,0,0,0,1.8-5.48c.37-2-.11-4.18-2-5.22-2.43-1.33-4.67.5-6.05,2.37-2.13,2.88-2.94,6.68-4.52,9.88a56.9,56.9,0,0,1-6.65,10.54l5,2.92,5.33-15.07q1.33-3.78,2.66-7.54c.78-2.24,1.07-4.85-.87-6.62-2.38-2.18-5.81-.94-7.47,1.45-1.34,1.94-2.18,4.36-3.27,6.46S212.3,305.79,211,308c-.94,1.59-1.81,3-3.49,3.75l3.64.47.37,1.13h0a6.22,6.22,0,0,0,.3-.89c.24-.63.49-1.26.75-1.88.5-1.22,1-2.41,1.63-3.59a74.46,74.46,0,0,1,4.21-7.44,3,3,0,1,0-5.18-3Z"/><path class="cls-5" d="M266.25,148A166,166,0,0,1,256,183.57l5.79,1.6q5.19-18.69,10.39-37.35l-5.48.71a14.17,14.17,0,0,1,.6,9.81,3,3,0,0,0,5.49,2.31,19.15,19.15,0,0,1,8.51-9.36l-4.4-1.79a49.26,49.26,0,0,1-.54,17.29l5.78,1.6A15.49,15.49,0,0,1,289,157.44l-4.41-1.79a5.21,5.21,0,0,1-.7,5.25l5,2.92a8.39,8.39,0,0,1,1.55-4l-5-2.91a10.09,10.09,0,0,1-2.21,3.51l5.12,2.12a22,22,0,0,1,4.58-10.64,3,3,0,0,0-4.71-3.63,59.18,59.18,0,0,1-22.45,16.6c-2.75,1.16-1.34,5.8,1.51,5.59a22.18,22.18,0,0,0,11.28-3.91l-4.41-1.79a31.51,31.51,0,0,1-2.45,17.66,3.08,3.08,0,0,0,1.08,4.1,3,3,0,0,0,4.11-1.07l8.62-15.26L280,167.86a126.9,126.9,0,0,1-12.14,29l5.49.72-3.56-8.68a3.07,3.07,0,0,0-2.5-2.14,3,3,0,0,0-3,1.43l-6.5,14,5.48.72a134.85,134.85,0,0,1-3.56-17l-5.79,1.6a32.42,32.42,0,0,1-1.8,16.57l5.89.8a11.19,11.19,0,0,1,2.29-6l-5.48-2.31a124.68,124.68,0,0,1-14.75,33.64l5.59,1.51a25,25,0,0,1,5.08-16.13l-5.48-2.31q-3.62,12.38-8,24.51c-1,2.71,3.18,5.29,5,2.92a282.65,282.65,0,0,0,26.24-40.53l-5.18-3-15,35a3.09,3.09,0,0,0,1.07,4.1,3,3,0,0,0,4.11-1.07,57.19,57.19,0,0,1,15.54-20.39l-5-2.92a124.15,124.15,0,0,1-20,33.93l5,2.92,4.06-11.32c1.18-3.27-3.77-5.15-5.48-2.31l-14.45,24c-2,3.31,3.18,6.33,5.18,3l14.45-24-5.48-2.31-4.07,11.32c-1,2.76,3.12,5.2,5,2.92a133.21,133.21,0,0,0,21.55-36.59,3,3,0,0,0-1.38-3.38,3.11,3.11,0,0,0-3.64.47,61.16,61.16,0,0,0-16.48,21.6l5.18,3,15-35a3.09,3.09,0,0,0-1.08-4.1,3,3,0,0,0-4.1,1.07A274.15,274.15,0,0,1,238,236.48l5,2.91q4.4-12.12,8-24.51a3,3,0,0,0-1.74-3.53,3.07,3.07,0,0,0-3.75,1.22,30.23,30.23,0,0,0-5.9,19.16,3,3,0,0,0,5.59,1.52,130.35,130.35,0,0,0,15.35-35.08,3,3,0,0,0-1.73-3.53,3.05,3.05,0,0,0-3.75,1.22,16.79,16.79,0,0,0-3.11,9,3,3,0,0,0,2.6,2.94,3,3,0,0,0,3.3-2.15,38.63,38.63,0,0,0,1.8-19.76,3,3,0,0,0-3.69-2.09,3.08,3.08,0,0,0-2.1,3.69,137.05,137.05,0,0,0,3.57,17c.64,2.31,4.35,3.13,5.48.71l6.5-14-5.48-.72,3.56,8.67a3,3,0,0,0,2.5,2.15,3,3,0,0,0,3-1.43,133.57,133.57,0,0,0,12.75-30.45c.91-3.26-3.79-5.3-5.48-2.31l-8.63,15.25,5.19,3a38.89,38.89,0,0,0,3-22.28c-.28-1.84-2.94-2.83-4.41-1.8a16.27,16.27,0,0,1-8.25,3.09l1.51,5.59a63,63,0,0,0,23.67-17.54l-4.71-3.63a27.75,27.75,0,0,0-5.4,13.66c-.33,2.64,3.46,3.86,5.12,2.12a17.07,17.07,0,0,0,3.75-6.16c1-2.73-3.15-5.26-5-2.92a14,14,0,0,0-3.1,6.67,3.15,3.15,0,0,0,1.38,3.39,3,3,0,0,0,3.64-.47,11.42,11.42,0,0,0,2.24-11.1,3,3,0,0,0-4.41-1.79,21.26,21.26,0,0,0-9.53,14.53,3.09,3.09,0,0,0,2.09,3.69,3,3,0,0,0,3.69-2.09,57.15,57.15,0,0,0,.54-20.49c-.3-2-2.88-2.62-4.4-1.79a24.44,24.44,0,0,0-10.68,11.51l5.49,2.31a20.68,20.68,0,0,0-1.21-14.43c-1.11-2.43-4.84-1.59-5.48.72q-5.21,18.67-10.4,37.35a3,3,0,0,0,5.79,1.6A165.53,165.53,0,0,0,272,149.6a3.09,3.09,0,0,0-2.09-3.69,3,3,0,0,0-3.69,2.1Z"/><path class="cls-5" d="M268.64,168.57a32.38,32.38,0,0,0-7.92,23.48,3.08,3.08,0,0,0,3,3,3,3,0,0,0,3-3,26.32,26.32,0,0,1,6.16-19.24,3.08,3.08,0,0,0,0-4.24,3,3,0,0,0-4.24,0Z"/><path class="cls-5" d="M262.49,181.59A26.42,26.42,0,0,0,256,192.42a3,3,0,0,0,2.1,3.69,3.07,3.07,0,0,0,3.69-2.1c.23-.75.5-1.49.8-2.22l-.3.72a23.6,23.6,0,0,1,3-5.16l-.47.61a23.74,23.74,0,0,1,1.87-2.13,3,3,0,0,0-4.24-4.24Z"/><path class="cls-5" d="M268.3,146.13c.24,1,.44,2,.62,3.06,0,.23.07.47.11.71s.14.93,0,.15c.07.51.12,1,.18,1.55a49.84,49.84,0,0,1,.2,6.11,3,3,0,0,0,3,3,3.07,3.07,0,0,0,3-3,51.19,51.19,0,0,0-1.36-13.17,3,3,0,1,0-5.78,1.59Z"/><path class="cls-5" d="M242.49,250.45a18.89,18.89,0,0,1-.63,2.57c-.13.39-.28.76-.42,1.14q-.12.32.09-.21c0,.11-.09.21-.13.31l-.24.5a20,20,0,0,1-1.32,2.29c-.12.19-.25.37-.38.55s-.42.59-.16.23-.19.23-.25.3-.28.34-.43.5a19.11,19.11,0,0,1-1.8,1.8c-.17.14-.33.29-.51.43s-.58.59-.08.07a5.29,5.29,0,0,1-1,.7,19.94,19.94,0,0,1-2.21,1.25s-.6.26-.6.28l.31-.13-.41.16c-.41.16-.83.3-1.25.43a3,3,0,1,0,1.59,5.78A22.79,22.79,0,0,0,248.28,252a3.08,3.08,0,0,0-2.1-3.69c-1.46-.33-3.39.45-3.69,2.1Z"/><path class="cls-5" d="M228.09,268.63a26.66,26.66,0,0,0,20.43-1.38,3,3,0,0,0,1.08-4.1,3.07,3.07,0,0,0-4.1-1.08c-.37.18-.74.36-1.11.52.43-.18-.47.17-.57.2-.71.26-1.45.48-2.19.67s-1.39.31-2.09.43.22,0-.42.05l-1.22.1c-.71,0-1.42,0-2.14,0-.4,0-.81,0-1.22-.08-.1,0-1-.1-.41,0a21.94,21.94,0,0,1-4.45-1.1,3,3,0,0,0-3.69,2.1,3.08,3.08,0,0,0,2.1,3.69Z"/><path class="cls-5" d="M249.54,261.93a33.76,33.76,0,0,0-9.24-.72,3.22,3.22,0,0,0-2.12.88,3.08,3.08,0,0,0-.88,2.12,3,3,0,0,0,3,3,31.17,31.17,0,0,1,6,.19l-.8-.1c.81.11,1.61.25,2.41.42a3.2,3.2,0,0,0,2.31-.3,3.08,3.08,0,0,0,1.38-1.8,3,3,0,0,0-2.09-3.69Z"/><path class="cls-5" d="M231.14,260.56a10.85,10.85,0,0,0-.47,6.13,2.2,2.2,0,0,0,.54,1,2.31,2.31,0,0,0,.84.77,3.1,3.1,0,0,0,2.31.3,3,3,0,0,0,1.79-1.38l.31-.71a3.1,3.1,0,0,0,0-1.6c0-.13-.05-.27-.07-.4l.11.8a8,8,0,0,1,0-2.18l-.11.79a8.29,8.29,0,0,1,.53-2A2.19,2.19,0,0,0,237,261a2.28,2.28,0,0,0-.36-1.12,3.09,3.09,0,0,0-1.79-1.38,3.05,3.05,0,0,0-2.31.31l-.61.46a3,3,0,0,0-.77,1.33Z"/><path class="cls-5" d="M217.05,295.94a211.28,211.28,0,0,1,21.74,5.45,3,3,0,1,0,1.59-5.79,211,211,0,0,0-21.73-5.44,3.09,3.09,0,0,0-3.7,2.09,3,3,0,0,0,2.1,3.69Z"/><path class="cls-5" d="M210.58,310.44a156.22,156.22,0,0,0,4.65,22.64,3,3,0,0,0,5.78-1.6,146.51,146.51,0,0,1-4.43-21,3.09,3.09,0,0,0-3-3c-1.45,0-3.21,1.38-3,3Z"/><path class="cls-5" d="M237.8,296.75c-6.31,10.37-12.26,21.21-20.1,30.53a3.07,3.07,0,0,0,0,4.24,3,3,0,0,0,4.24,0c8.19-9.73,14.45-20.92,21-31.74,2-3.31-3.18-6.33-5.18-3Z"/><path class="cls-5" d="M270.1,144.45a28.42,28.42,0,0,1,14.35,2.37l2.31-5.48c-4.58-1.31-9.24-2.55-14.05-2.45a3,3,0,0,0-2.89,2.2,4.46,4.46,0,0,0,1.75,4.58,9.25,9.25,0,0,0,4.3,1.44l10.27,1.65.8-5.89a52.12,52.12,0,0,1-13.38-.46,3.08,3.08,0,0,0-3.69,2.09,3,3,0,0,0,2.09,3.69l11.4,3.27.79-5.9A29.37,29.37,0,0,1,271,142l-2.32,5.49a3.81,3.81,0,0,1,2.61,1.41,3,3,0,0,0,3.75,1.22,3,3,0,0,0,1.73-3.54,13,13,0,0,0-2.05-4.34,3.12,3.12,0,0,0-3.39-1.38,3,3,0,0,0-2.2,2.89,29,29,0,0,1-.83,9.65l5.48-.71a2.43,2.43,0,0,1-.41-2.18l-5.48-.72a12.3,12.3,0,0,1-2,12.13l5,2.91a21.42,21.42,0,0,1,3.43-5.88l-5.12-2.12a22.52,22.52,0,0,1-3.64,10.39L271,169.5a41.35,41.35,0,0,1,8.13-17.68l-5-2.92a25,25,0,0,1-5.21,9.88l5.12,2.12a49.84,49.84,0,0,1,2.9-11.59l-5.79-1.6a36.43,36.43,0,0,1-6.24,13l5.49.72a6.28,6.28,0,0,1,1.36-6.89l-5-1.32a13.41,13.41,0,0,1-3.87,11.07l5,2.92a15.33,15.33,0,0,1,3.54-7.57l-5.12-2.12a15,15,0,0,1-1.23,8.26l5.48,2.31a39.49,39.49,0,0,1,13.56-17.17l-4.4-3.38a52.07,52.07,0,0,1-5.34,13.73l5.48.72a8,8,0,0,1,1.8-8.54l-5.12-2.12a13.43,13.43,0,0,1-2.55,9.19h5.18a3.75,3.75,0,0,1,.43-3.35l-5.48-.72a.64.64,0,0,1,0-.36c.14-.22.12-.17-.07.14.49.11-.27-.68-.07,0a.63.63,0,0,1,.31-.17,2.26,2.26,0,0,0-1.15.26,3.62,3.62,0,0,0-1.67,1.59,9.34,9.34,0,0,0-1.61,6.66c.31,2.27,3.61,2.82,5,1.32,5.4-5.78,10.84-11.53,16.2-17.34l-5-2.91a17.9,17.9,0,0,1-2.74,4.58l4.72,3.64a2.22,2.22,0,0,1,1-1.33l-4.41-1.79A3.27,3.27,0,0,1,285,153c-1,3.75,4.66,5.29,5.78,1.6l1.64-5.39L288,151c-.38-.23-.42-.91-.37-1.25a3,3,0,0,0,1.74,3.54,3,3,0,0,0,3.75-1.23l1.11-1.86h-5.18a2.42,2.42,0,0,1,0-.76c-.52,2.81,2.76,5.17,5,2.91l1.55-1.55-5.12-2.12c.06.55.11.46-.29.79l4.71,3.64,1.1-1.94-5.48-2.31a21.72,21.72,0,0,1-2.89,7.7l5.49.72a1,1,0,0,1,.18-1.3l-5.18-3a42.61,42.61,0,0,1-5.4,9.34l5.12,2.12a11.17,11.17,0,0,1,3.3-9.08l-5-2.92a75.92,75.92,0,0,1-2.59,11.74,3,3,0,0,0,1.74,3.54,3,3,0,0,0,3.74-1.23l3.91-5.46-5.48-2.31a12.74,12.74,0,0,1-2.67,5.5l5.12,2.13a25,25,0,0,1,3.55-11.84l-5.18-3-.88,1.71,5.59,1.51.23-3h-6c0,8.21-6.52,15-10,22.23l5.59,1.52a14.21,14.21,0,0,1,1.62-6L279,167.13A38.86,38.86,0,0,1,276.6,176c-1.26,3.13,4.12,5.42,5.48,2.31a49.44,49.44,0,0,1,5.15-9l-5.48-.72a5.48,5.48,0,0,1-1,5.28l5.48.72a7.8,7.8,0,0,1,1.62-6.75l-5.48-.72a5.1,5.1,0,0,1-.64,3.06l5.59,1.52a8.13,8.13,0,0,1,1.47-3.49l-5.48-.72.08-1c-2,3.3,3.15,6.31,5.18,3a4.64,4.64,0,0,0,.52-3.67c-.62-2.66-4.12-2.74-5.48-.71a14.63,14.63,0,0,0-2.29,6.52c-.39,3,4.26,4,5.59,1.51a11.84,11.84,0,0,0,1.24-7.68,2.94,2.94,0,0,0-2.49-2.15,3.11,3.11,0,0,0-3,1.43,13.48,13.48,0,0,0-2.22,11.37,3,3,0,0,0,2.49,2.15,3.08,3.08,0,0,0,3-1.43,11.18,11.18,0,0,0,1.58-9.91,3,3,0,0,0-5.49-.71,48.3,48.3,0,0,0-5.15,9l5.48,2.31a38.41,38.41,0,0,0,2.39-8.87,3,3,0,0,0-1.73-3.54,3,3,0,0,0-3.75,1.23,21.17,21.17,0,0,0-2.44,9c-.14,2.88,4.3,4.2,5.59,1.51,4-8.28,10.74-15.6,10.78-25.26a3,3,0,1,0-6,0l-.23,3c-.22,3,4.26,4.1,5.59,1.52l.88-1.71c1.77-3.42-3.19-6.37-5.18-3a31.42,31.42,0,0,0-4.37,14.87c-.1,2.49,3.42,4.1,5.12,2.12a19.06,19.06,0,0,0,4.21-8.15,3,3,0,0,0-5.48-2.32l-3.91,5.47,5.48,2.31a76.07,76.07,0,0,0,2.6-11.75,3.15,3.15,0,0,0-1.38-3.38,3.06,3.06,0,0,0-3.64.47,17.07,17.07,0,0,0-5.05,13.32,3.06,3.06,0,0,0,1.85,2.74,3,3,0,0,0,3.27-.62A47.92,47.92,0,0,0,293.32,156a3.1,3.1,0,0,0-1.07-4.1,3.06,3.06,0,0,0-4.11,1.07,6.66,6.66,0,0,0-.79,5.92,3,3,0,0,0,5.49.72,26.35,26.35,0,0,0,3.48-9.13,3,3,0,0,0-1.73-3.54,3,3,0,0,0-3.75,1.22l-1.1,1.94a3,3,0,0,0,.77,3.87,3,3,0,0,0,3.94-.23,6,6,0,0,0,2.05-5c-.26-2.47-3.14-4.1-5.12-2.12l-1.55,1.55,5,2.92a5.17,5.17,0,0,0-.58-3.85,3,3,0,0,0-5.18,0L288,149l5.48,2.32a5.05,5.05,0,0,0-2.39-5.53,3,3,0,0,0-4.41,1.79L285,153l5.78,1.6a8.67,8.67,0,0,0-.28-5.51c-.73-1.75-2.56-2.87-4.41-1.79a7.53,7.53,0,0,0-3.19,3.48,3,3,0,0,0,.77,3.87,3,3,0,0,0,3.94-.24,26.77,26.77,0,0,0,4.27-7.23c1.14-2.83-3.08-5-5-2.92-5.37,5.81-10.8,11.56-16.2,17.34l5,1.32c-.08-.65.91-1.87,1.24-2.39L274.35,162a5.79,5.79,0,0,0,5.57-7.18c-.61-2.56-4.19-2.87-5.48-.72a10.05,10.05,0,0,0-.43,9.41c1,2.28,4,1.6,5.18,0a18.59,18.59,0,0,0,3.37-12.22c-.2-2.5-3.17-4.07-5.12-2.12a14,14,0,0,0-3.34,14.37c.83,2.33,4.14,3.1,5.48.72a57.55,57.55,0,0,0,5.94-15.17c.55-2.33-2.14-5-4.4-3.39a46.64,46.64,0,0,0-16.32,20.75,3,3,0,0,0,5.48,2.31,20.75,20.75,0,0,0,2.05-11.28,3.06,3.06,0,0,0-1.85-2.74,3,3,0,0,0-3.28.62,21.24,21.24,0,0,0-5.08,10.21c-.51,2.82,2.76,5.18,5,2.92a19.65,19.65,0,0,0,5.4-16.91c-.33-2.31-3.57-2.77-5-1.32A12.28,12.28,0,0,0,264.62,163a3,3,0,0,0,5.48.72,41,41,0,0,0,6.85-14.4,3,3,0,0,0-5.79-1.6,56.92,56.92,0,0,0-3.11,13.19c-.3,2.57,3.51,4,5.13,2.13a31.73,31.73,0,0,0,6.74-12.54,3.07,3.07,0,0,0-1.38-3.39,3,3,0,0,0-3.63.47,47.72,47.72,0,0,0-9.68,20.33,3,3,0,0,0,5.48,2.32,28.81,28.81,0,0,0,4.46-13.42c.21-2.5-3.49-4.09-5.12-2.12a30.06,30.06,0,0,0-5,8.53c-1.06,2.78,3.12,5.13,5,2.92a18.33,18.33,0,0,0,3.56-18,3,3,0,0,0-2.49-2.15,3,3,0,0,0-3,1.43,8.57,8.57,0,0,0,.41,8.23,3,3,0,0,0,5.48-.71,34.15,34.15,0,0,0,1.05-11.25l-5.59,1.51a8.51,8.51,0,0,1,1.45,2.92l5.48-2.31a9.8,9.8,0,0,0-6.19-4.17,3,3,0,0,0-3.54,1.74,3,3,0,0,0,1.23,3.75,36.18,36.18,0,0,0,16.2,4.4c3.43.11,4-5,.8-5.89l-11.39-3.26-1.6,5.78a57.84,57.84,0,0,0,15,.68,3,3,0,0,0,2.94-2.6,3,3,0,0,0-2.15-3.29l-7.33-1.18-3.42-.55c-.53-.08-1.08-.24-1.61-.3l-.2-.06a2,2,0,0,1,.43,1.8l-2.89,2.2c4.28-.09,8.37,1.07,12.46,2.24a3,3,0,0,0,2.31-5.49,34.48,34.48,0,0,0-17.38-3.19,3.08,3.08,0,0,0-3,3,3,3,0,0,0,3,3Z"/><path class="cls-5" d="M283.88,167.18l-.32,2.55a2.3,2.3,0,0,0,.26,1.16,2.34,2.34,0,0,0,.62,1,2.31,2.31,0,0,0,1,.62,2.26,2.26,0,0,0,1.15.25l.8-.1a3,3,0,0,0,1.32-.77l.47-.61a3,3,0,0,0,.41-1.52l.32-2.55a2.32,2.32,0,0,0-.25-1.16,2.7,2.7,0,0,0-1.59-1.58,2.2,2.2,0,0,0-1.16-.26l-.79.11a3,3,0,0,0-1.33.77l-.47.61a3.05,3.05,0,0,0-.41,1.51Z"/><path class="cls-5" d="M274,142q.19.53,0,0c-.07-.34-.08-.31,0,.08,0-.25,0-.5,0-.74,0,.65,0,0,.08-.17-.15.33-.16.35,0,0,.08-.14.17-.28.26-.41l-4.71.6c-.42-.89-.57-1.14-.46-.74.05.22,0,.12,0-.32,0,0,0,.48,0,.51A11.11,11.11,0,0,0,269,142a4.6,4.6,0,0,0,1.58,3.53,15.51,15.51,0,0,0,5.75,2.66c1.75.49,3.54.81,5.3,1.27a26.62,26.62,0,0,1,2.62.84c-.39-.15-.18-.08.08,0l.56.27a14.88,14.88,0,0,1,1.27.78l3-5.18-1.08-.47a3.08,3.08,0,0,0-4.1,1.08c-.69,1.29-.46,3.43,1.07,4.1l1.08.47a3,3,0,1,0,3-5.18c-3.13-2.16-6.93-2.69-10.54-3.61-.85-.22-1.7-.47-2.53-.77-.07,0-.71-.3-.33-.13l-.33-.16-.66-.35c-.16-.09-.45-.44-.28-.14a4.2,4.2,0,0,1,.46.74c-.18-.5-.06.56,0,0,.05-.35.06-.71.08-1.06a4.92,4.92,0,0,0-1.24-3.58c-1.3-1.61-3.72-.82-4.71.61a7.22,7.22,0,0,0-.34,7.23,3,3,0,0,0,4.1,1.08A3.08,3.08,0,0,0,274,142Z"/><path class="cls-5" d="M272.23,164.62c.2,4.59-2.24,8.61-4.51,12.42-2,3.33,3.12,6.27,5.18,3a70.76,70.76,0,0,0,6.38-12.8l-5.79-1.59c-1.55,5.4-3.13,10.8-5.09,16.07l5.89.8a19.3,19.3,0,0,1,3.89-9.4l-5.18-3a75.93,75.93,0,0,1-7.29,13.29h5.18c-.27-.48,0-1.64.12-2.32l.64-4.34,1.23-8.44a3.1,3.1,0,0,0-2.09-3.69,3,3,0,0,0-3.69,2.09,111,111,0,0,1-5.76,15.84l5.59,1.52a45.44,45.44,0,0,1,1.82-17.31l-5.9-.8a55.41,55.41,0,0,1-2.18,15.14l5.89.79a18.52,18.52,0,0,1-.06-3.57,3.55,3.55,0,0,1,.79-2l-5-2.92a80.7,80.7,0,0,1-4.64,15l5.48,2.31q.94-3.42,2.22-6.73l-5.78-1.59a35.35,35.35,0,0,1-2.8,6.44l5.49.72a3.78,3.78,0,0,1,.68-3.57l-5.59-1.51a21.22,21.22,0,0,1-1.19,5.57c-1.14,3.28,3.77,5.16,5.48,2.32l.86-1.43-5.48-.72a46.12,46.12,0,0,1,.76,5.85,3,3,0,0,0,2.61,2.95,3,3,0,0,0,3.29-2.15,33.09,33.09,0,0,1,2.25-8L260,188l-.66,7.53c-.26,2.93,4.33,4.15,5.59,1.52a9.64,9.64,0,0,0,1-3.75,3,3,0,0,0-3-3,3.06,3.06,0,0,0-3,3s-.15.65-.18.72l5.59,1.51L266,188a3,3,0,0,0-2.6-2.95,3.07,3.07,0,0,0-3.29,2.15,33.88,33.88,0,0,0-2.25,8l5.89.79a58,58,0,0,0-1-7.44c-.52-2.63-4.23-2.81-5.49-.72l-.86,1.43,5.49,2.31a27.36,27.36,0,0,0,1.4-7.17,3,3,0,0,0-2.2-2.89,3.12,3.12,0,0,0-3.39,1.37,9.6,9.6,0,0,0-1.29,8.19,3,3,0,0,0,5.49.72,44.27,44.27,0,0,0,3.39-7.88,3,3,0,0,0-2.09-3.69,3.07,3.07,0,0,0-3.69,2.1,68.86,68.86,0,0,0-2.23,6.73,3,3,0,0,0,1.74,3.54c1.24.5,3.15.16,3.75-1.23A87.57,87.57,0,0,0,268.06,175c.59-2.78-2.84-5.23-5-2.92-2.53,2.69-2.77,6.28-2.49,9.78a3,3,0,0,0,5.89.8,61.5,61.5,0,0,0,2.4-16.73c0-3.43-4.91-4-5.89-.8a50.4,50.4,0,0,0-2,18.91,3.1,3.1,0,0,0,2.2,2.89,3,3,0,0,0,3.39-1.38,120.31,120.31,0,0,0,6.36-17.27l-5.78-1.6-1.45,9.89c-.46,3.14-1.66,6.9.06,9.83a3,3,0,0,0,5.18,0,75.49,75.49,0,0,0,7.29-13.28A3.11,3.11,0,0,0,277.1,169a3.07,3.07,0,0,0-4.1,1.08,25.13,25.13,0,0,0-4.71,12.43,3,3,0,0,0,2.6,3,3,3,0,0,0,3.29-2.15c2-5.27,3.54-10.67,5.1-16.08a3,3,0,0,0-5.79-1.59A63.27,63.27,0,0,1,267.72,177l5.18,3c2.81-4.71,5.57-9.79,5.33-15.44a3,3,0,0,0-6,0Z"/><path class="cls-5" d="M274,181.41a74.28,74.28,0,0,0-4.71,12.65l5.79,1.6a25.3,25.3,0,0,1,1.1-3.85c.24-.66.5-1.31.76-2,0-.07.36-.86.2-.47.12-.3.25-.6.38-.89a35.78,35.78,0,0,0,2.66-8,3,3,0,0,0-1.74-3.54,3,3,0,0,0-3.74,1.23l-10.58,19,5.59,1.52.24-16.44a3,3,0,0,0-3-3,4.26,4.26,0,0,0-4,3.18,15.24,15.24,0,0,0-.35,4.37c-.06,3.2,0,6.4,0,9.61a3,3,0,0,0,1.85,2.74,3,3,0,0,0,3.27-.62,5.47,5.47,0,0,0,1.27-4.82,3,3,0,0,0-3.69-2.09,3.09,3.09,0,0,0-2.1,3.69,1,1,0,0,1,.28-1l5.12,2.12c-.05-2.45-.08-4.9-.06-7.35,0-1.2,0-2.39.05-3.58,0-.32,0-.63,0-.95s.18-.6,0-.06a3.39,3.39,0,0,0,.12-.45.88.88,0,0,1-.23.46,1.86,1.86,0,0,1-1.53.77l-3-3-.24,16.44a3,3,0,0,0,5.59,1.51l10.58-19-5.48-2.31c-.92,5.56-4,9.65-5.11,15.2a3,3,0,0,0,5.79,1.6,65.07,65.07,0,0,1,4.1-11.22,3,3,0,1,0-5.18-3Z"/><path class="cls-5" d="M282,170.92a58.21,58.21,0,0,1-6.06,12.93l5.59,1.52a12.07,12.07,0,0,1,3.14-6.9l-5-2.92-6.37,18.86,5.89.79A16.12,16.12,0,0,1,282,187l-5.48-2.31a72.24,72.24,0,0,1-7.08,16l5.49.72a7.23,7.23,0,0,1,.86-5.78l-5.48-2.31-3.92,9.4,5.78,1.59a12.21,12.21,0,0,1,3.75-7.07l-5-1.32a3.72,3.72,0,0,1-.27,3.83L276.1,202l1.8-5.8-5.9-.79a10.07,10.07,0,0,1-1.73,5.72l5.59,1.51a7,7,0,0,1,2.34-4.09l-4.71-3.64Q269.62,203.66,265,212l5.48,2.32,2.77-7.62-5.9-.8a12.42,12.42,0,0,1-1.91,6.52l5.18,3,3.8-7.52-5.59-1.51a4.06,4.06,0,0,1-1.11,2.59l5.12,2.13a2.27,2.27,0,0,1,.34-1.27l-5.48-2.31a12.13,12.13,0,0,1-2.33,5l5,1.33A97.33,97.33,0,0,1,269.21,200c0-3.26-5.22-4.21-5.9-.79a46.4,46.4,0,0,0-.9,10,3.07,3.07,0,0,0,2.2,2.89,3,3,0,0,0,3.39-1.38l5-11.37L267.51,197a36.18,36.18,0,0,1-4.93,11.7l5.49,2.31,1.61-9.45a3.09,3.09,0,0,0-2.1-3.69,3.06,3.06,0,0,0-3.69,2.09l-4,11.47h5.78l-2.05-7.51a3,3,0,0,0-5.48-.72l-4.09,7.13,5.48.71a32.1,32.1,0,0,1-.22-9.88,3.09,3.09,0,0,0-2.09-3.69c-1.42-.39-3.44.48-3.69,2.09a22.14,22.14,0,0,1-3.12,8.51l5.49.72a20.38,20.38,0,0,1,1.33-11.1c.6-1.51-.66-3.3-2.1-3.69a3.07,3.07,0,0,0-3.69,2.09,26.29,26.29,0,0,0-1.33,14.29c.46,2.69,4.23,2.74,5.48.72a26.35,26.35,0,0,0,3.72-9.94l-5.78-1.6a41.29,41.29,0,0,0,.22,13.08c.46,2.61,4.27,2.82,5.48.72l4.09-7.13-5.49-.72,2.06,7.52c.82,3,4.84,2.7,5.78,0l4-11.47-5.79-1.6-1.61,9.45a3,3,0,0,0,5.49,2.32,41.31,41.31,0,0,0,5.52-13.13,3,3,0,0,0-1.73-3.54,3,3,0,0,0-3.75,1.23l-5,11.36,5.59,1.52a38.66,38.66,0,0,1,.69-8.39l-5.89-.8a107.83,107.83,0,0,0,1.36,15.54c.34,2.14,3.67,3,5,1.32a18.94,18.94,0,0,0,3.87-7.65c.76-3.26-3.72-5.32-5.49-2.31a8.37,8.37,0,0,0-1.16,4.29c0,2.52,3.33,4,5.12,2.12a10.64,10.64,0,0,0,2.87-6.84c.15-2.93-4.26-4.15-5.59-1.52l-3.8,7.52c-1.74,3.44,3.14,6.35,5.18,3a18.6,18.6,0,0,0,2.73-9.55,3,3,0,0,0-2.6-2.94,3,3,0,0,0-3.29,2.15l-2.76,7.61c-1.17,3.22,3.85,5.24,5.48,2.31q4.65-8.34,8.52-17.08a3,3,0,0,0-4.71-3.64,13.27,13.27,0,0,0-4.1,8.34,3,3,0,0,0,2.21,2.89,3.08,3.08,0,0,0,3.38-1.37,15.9,15.9,0,0,0,2.55-8.75c0-3.43-4.89-4-5.89-.8l-1.8,5.79c-1,3.33,3.71,5.13,5.48,2.32a9.52,9.52,0,0,0,.88-8.46c-.83-2.09-3.24-3-5-1.32a17.38,17.38,0,0,0-5.29,9.72,3,3,0,1,0,5.78,1.59l3.93-9.4a3,3,0,0,0-1.74-3.54,3,3,0,0,0-3.75,1.23,13.35,13.35,0,0,0-1.47,10.4,3,3,0,0,0,5.48.72,79.13,79.13,0,0,0,7.69-17.38,3,3,0,0,0-1.74-3.54A3,3,0,0,0,276.8,184a22.06,22.06,0,0,0-3.67,11.21,3,3,0,0,0,2.6,3A3,3,0,0,0,279,196l6.37-18.86c1-2.83-3-5.08-5-2.92a18.85,18.85,0,0,0-4.9,11.15c-.3,3.13,4.13,3.84,5.59,1.51a64.47,64.47,0,0,0,6.66-14.37,3,3,0,1,0-5.78-1.59Z"/><path class="cls-5" d="M254.36,193.38l-8,21.2,5.78,1.59A20.09,20.09,0,0,1,262,203.58l-4.41-3.39a102.19,102.19,0,0,1-5.19,14l5.48,2.31,4.47-10.7-5.79-1.6a53,53,0,0,1-2.48,6.1c-.49,1-1,2-1.55,3-.28.52-.58,1-.89,1.55-.15.25-.3.51-.46.76q-.31.66-.21.24l1.32-.77-.29,0,2.31.31c1.63.86.59,1.36.79.68.1-.36,0-.2.06-.43s-.17.11.2-.41c-.16.23.5-.48.46-.45l-5.12-2.12a38.4,38.4,0,0,1-4,13.27l5.59,1.51c.3-4.67,2.73-8.87,5-12.87,1.65-3-2.26-6.07-4.71-3.63a10.74,10.74,0,0,0-3.12,6.92c-.25,3,4.27,4.08,5.59,1.51a47.63,47.63,0,0,1,5-7.86l-5-2.92a29.82,29.82,0,0,1-4.2,8.19l5.48,2.31a34.65,34.65,0,0,1,2.31-8.31l-5.6-1.52a26,26,0,0,1-1.37,11.83,3,3,0,0,0,1.38,3.39,3.14,3.14,0,0,0,3.64-.47,28.22,28.22,0,0,0,6.12-7l-5.48-.71a2.39,2.39,0,0,1-.1,1.49l5.48,2.31a22.06,22.06,0,0,1,2.1-5.07c1.89-3.37-3.29-6.4-5.18-3a29.08,29.08,0,0,0-2.7,6.5,3,3,0,0,0,1.74,3.54,3,3,0,0,0,3.74-1.23,9.27,9.27,0,0,0,.7-6.11c-.58-2.63-4.17-2.79-5.48-.72a23.27,23.27,0,0,1-5.19,5.74l5,2.92A30.2,30.2,0,0,0,259,209.24a3.12,3.12,0,0,0-2.2-2.89,3,3,0,0,0-3.39,1.38,40.93,40.93,0,0,0-2.91,9.74,3,3,0,0,0,5.49,2.32,35,35,0,0,0,4.81-9.63,3,3,0,0,0-5-2.91,55.8,55.8,0,0,0-5.91,9.07l5.59,1.52a4.47,4.47,0,0,1,1.36-2.68l-4.71-3.63c-2.79,5-5.41,10.09-5.78,15.89-.18,2.94,4.26,4.13,5.59,1.51a46.22,46.22,0,0,0,4.8-16.29,3,3,0,0,0-1.84-2.74,3.1,3.1,0,0,0-3.28.62,7.36,7.36,0,0,0-2.37,6.63,4.36,4.36,0,0,0,2,3.34,3.62,3.62,0,0,0,4.75-1.26,52.45,52.45,0,0,0,6.42-13.47,3,3,0,0,0-2.1-3.69,3.08,3.08,0,0,0-3.69,2.09l-4.46,10.71a3,3,0,0,0,5.48,2.31,114.11,114.11,0,0,0,5.8-15.39A3,3,0,0,0,259,198.4a26,26,0,0,0-12.58,16.18,3,3,0,1,0,5.78,1.59l8-21.19a3,3,0,0,0-2.1-3.69,3.06,3.06,0,0,0-3.69,2.09Z"/><path class="cls-5" d="M269.39,207.73q-5,8.49-10.07,16.94L264.8,227l4.09-10.22L263,216a38.67,38.67,0,0,1-2.56,10c-1.24,3.14,4,5.38,5.48,2.31l3.63-7.67-5.48-2.32a21,21,0,0,1-6.14,11.29l5,1.32a10.05,10.05,0,0,1,.52-5.15h-5.79a16.8,16.8,0,0,1-.41,10l5.79,1.59a33,33,0,0,1,4-9.42l-5.18-3a87.65,87.65,0,0,1-6,11.31l5.19,3,4.93-8.45-5.59-1.52a10.09,10.09,0,0,1,0,1.1c0,.22,0,.21,0,0,0,.15-.06.29-.1.44a5,5,0,0,1-.53,1.42,23.92,23.92,0,0,1-2.14,3.19c-1.76,2.28-3.75,4.78-4.66,7.74-.85,2.78,3,5.21,5,2.92l6.22-7.16-4.71-3.63-11.58,24a3.09,3.09,0,0,0,1.08,4.11,3.05,3.05,0,0,0,4.1-1.08l2-3.31-5.49-2.31a14.33,14.33,0,0,1-2.42,5l5,2.92A34.92,34.92,0,0,1,258,255l-5-2.92a46.44,46.44,0,0,1-6.79,12.09l5.18,3,2-2.62-5.49-2.31-1.11,3.92c-1.06,3.72,4.73,5.3,5.78,1.59l1.12-3.91a3,3,0,0,0-1.74-3.54,3.06,3.06,0,0,0-3.74,1.22l-2,2.62c-1,1.29-.21,3.36,1.07,4.11a3.09,3.09,0,0,0,4.11-1.08,51.56,51.56,0,0,0,7.4-13.52c1-2.78-3.1-5.14-5-2.92A43.85,43.85,0,0,0,246.34,263c-1.1,2.72,3.21,5.23,5,2.92a21.83,21.83,0,0,0,4-7.63c.92-3.29-3.74-5.23-5.48-2.31l-2,3.31,5.18,3,11.58-24a3,3,0,0,0-.77-3.87,3,3,0,0,0-3.94.23l-6.23,7.16,5,2.92a11.73,11.73,0,0,1,1.79-3.33c.92-1.32,1.7-2.21,2.73-3.61,1.84-2.48,3.31-5.34,3.1-8.52-.19-2.87-4-4.21-5.59-1.51l-4.94,8.45c-1.95,3.35,3.13,6.29,5.19,3a88.84,88.84,0,0,0,6-11.31,3.09,3.09,0,0,0-1.08-4.1,3,3,0,0,0-4.1,1.07,38.62,38.62,0,0,0-4.57,10.86c-.94,3.78,4.54,5.22,5.79,1.59a22.59,22.59,0,0,0,.41-13.2c-.81-3-4.86-2.71-5.79,0a16.47,16.47,0,0,0-.52,8.33c.41,2.33,3.51,2.76,5,1.33a26.34,26.34,0,0,0,7.67-13.93,3,3,0,0,0-1.74-3.54,3,3,0,0,0-3.74,1.23l-3.63,7.67,5.48,2.31A43.93,43.93,0,0,0,269,216a3,3,0,0,0-2.6-2.94,3.05,3.05,0,0,0-3.29,2.14L259,225.38a3,3,0,0,0,1.74,3.54,3,3,0,0,0,3.75-1.23q5.07-8.44,10.07-16.93c2-3.33-3.22-6.35-5.18-3Z"/><path class="cls-5" d="M258,219l-5.68,13.57-2.85,6.78a19.2,19.2,0,0,0-1.83,6.93c-.07,2.82,4.34,4.29,5.59,1.51a166.05,166.05,0,0,0,7.63-20.35,3,3,0,0,0-2.9-3.8c-2.48.2-3.46,1.85-4.25,4l-2.14,5.72-4.27,11.45,5-1.32a4.42,4.42,0,0,0,.15.48c.08.37.12.41.11.14,0,0,0-.13.09-.36.2-.8.44-1.59.65-2.39l1.32-4.76,2.63-9.54a3,3,0,0,0-5.49-2.31A119.21,119.21,0,0,0,245,243.12l5.79,1.59c1.48-6.69,3.63-13.66,3.17-20.58a3,3,0,0,0-5.89-.79A84.12,84.12,0,0,1,241.17,242l5.48,2.31a42.8,42.8,0,0,1,4.58-11.24,3,3,0,0,0-5.18-3,94.82,94.82,0,0,0-8.48,15l5.49,2.31c.81-4.74,1.62-9.73,4-14s7.15-6.56,10-10.65l-5.49-2.31a150.92,150.92,0,0,1-10.39,23c-1.88,3.38,3.3,6.4,5.18,3a160.05,160.05,0,0,0,11-24.45,3,3,0,0,0-1.74-3.54,3,3,0,0,0-3.74,1.23c-1.32,1.92-3.35,3.31-5.09,4.82a22.42,22.42,0,0,0-5.05,6.17c-2.55,4.65-3.57,9.89-4.46,15.05a3,3,0,0,0,1.74,3.54,3,3,0,0,0,3.74-1.22,94.82,94.82,0,0,1,8.48-15l-5.18-3a48.72,48.72,0,0,0-5.19,12.68c-.8,3.19,3.88,5.43,5.49,2.31a91.08,91.08,0,0,0,7.52-20.13l-5.9-.8c.42,6.41-1.58,12.8-3,19-.83,3.75,4.76,5.34,5.79,1.59a107.65,107.65,0,0,1,6.17-17l-5.48-2.31-3.15,11.44c-.51,1.84-1.12,3.69-1.53,5.56s-.31,4,1.28,5.26a3,3,0,0,0,5-1.32l3.51-9.39,1.71-4.58.85-2.29c.14-.38.28-.77.43-1.15.34-.87.1,0-.36.27l-1.52.41.26,0-2.89-3.8a154.13,154.13,0,0,1-7,18.93l5.59,1.51c.06-2.17,1.17-4.27,2-6.24l2.65-6.33,5.5-13.12c.62-1.49-.68-3.3-2.1-3.69A3.09,3.09,0,0,0,258,219Z"/><path class="cls-5" d="M239.52,235.7A67.36,67.36,0,0,0,233.94,251a3,3,0,0,0,5.48,2.31l5.44-7.73-5.18-3a75.94,75.94,0,0,1-8.07,14.3l5.49,2.31c.87-3.48,2.83-6.48,4.83-9.53l-5.19-3-5.62,8.77,5.49,2.31A28.79,28.79,0,0,1,243,247a3,3,0,0,0-4.24-4.24,35.4,35.4,0,0,0-8,13.29,3,3,0,0,0,1.74,3.54,3,3,0,0,0,3.75-1.23l5.62-8.77a3,3,0,0,0-5.19-3c-2.24,3.43-4.43,6.95-5.43,11a3,3,0,0,0,1.74,3.54,3.06,3.06,0,0,0,3.75-1.23,76.45,76.45,0,0,0,8.06-14.3,3.1,3.1,0,0,0-1.08-4.1,3.06,3.06,0,0,0-4.1,1.07l-5.44,7.74,5.48,2.31a60.84,60.84,0,0,1,5-13.86,3.07,3.07,0,0,0-1.08-4.1,3,3,0,0,0-4.1,1.07Z"/><path class="cls-5" d="M264.93,219.78a3,3,0,0,1,.25.25l-.47-.61a1.77,1.77,0,0,1,.19.33l-.3-.72a1.91,1.91,0,0,1,.11.41l-.11-.8a1.34,1.34,0,0,1,0,.4l.11-.79a1.61,1.61,0,0,1-.1.36l.31-.72,0,.07a2.24,2.24,0,0,0-.35,1.12,2.3,2.3,0,0,0,.05,1.19,2.2,2.2,0,0,0,.54,1,2.15,2.15,0,0,0,.84.77l.72.31a3.06,3.06,0,0,0,1.59,0l.72-.31a2.89,2.89,0,0,0,1.07-1.07c.13-.27.24-.55.35-.82,0,0,0-.09,0-.13a7.62,7.62,0,0,0,.15-1,1.31,1.31,0,0,0,0-.28c0-.3-.07-.6-.11-.89l0-.14a1.83,1.83,0,0,0-.08-.25,5.07,5.07,0,0,0-.41-.93.44.44,0,0,0-.08-.11c-.17-.23-.34-.47-.53-.69a1.8,1.8,0,0,0-.2-.19,2.25,2.25,0,0,0-1-.62,2.72,2.72,0,0,0-2.32,0,2.25,2.25,0,0,0-1,.62l-.47.61a3,3,0,0,0-.41,1.51l.11.8a2.94,2.94,0,0,0,.77,1.32Z"/><path class="cls-5" d="M237.74,245.94c-.07.85.17-.45-.06.36-.06.23-.11.46-.18.69s-.15.46-.23.68c.2-.52-.16.31-.17.34a24.72,24.72,0,0,1-1.7,2.79,29.77,29.77,0,0,0-3.46,6.15l5.78,1.59,2-11a3,3,0,0,0-5.79-1.59q-3.58,8.67-6.67,17.54c-1,2.78,3.08,5.16,5,2.91a51.43,51.43,0,0,0,5.1-7.79c.38-.66.77-1.31,1.18-1.94l.48-.69.32-.45,0,0a16.11,16.11,0,0,1,1.5-1.59c.13-.13.27-.24.41-.36-.25.18-.23.17.05,0s.61-.42.94-.6l-4.41-3.39c-1.18,2.8-2.61,5.72-4.08,8.47a3,3,0,1,0,5.18,3,63.89,63.89,0,0,1,11.76-12.85l-4.71-3.64a47,47,0,0,1-6.57,10.92l4.71,3.63,6.72-10-5.48-2.31L240.86,258a3,3,0,0,0,5,2.92,33.05,33.05,0,0,0,6-11.77,3,3,0,0,0-5.49-2.31c-1.67,3.67-3,7.46-4.32,11.27l5.79,1.59a106,106,0,0,1,4.08-10.5l-5.48-2.31A39.65,39.65,0,0,1,241.42,260l5.59,1.51c0-.15.06-1,0-.84s.12-.55.16-.67a9.59,9.59,0,0,1,.32-1c-.17.44.19-.39.21-.42a8.13,8.13,0,0,1,.47-.81s.56-.75.27-.4a8.18,8.18,0,0,1,.64-.68c.08-.09.88-.74.59-.53l-4.52-2.59a9.62,9.62,0,0,1-1.09,3.36l-1.53,3.72a3,3,0,0,0,1.38,3.39,3.14,3.14,0,0,0,3.63-.47,23.41,23.41,0,0,0,5.41-6.28l-5.59-1.52c0-.31,0,.11,0,.2s-.1.43-.16.65a9.71,9.71,0,0,1-.4,1.22,14.43,14.43,0,0,1-1.12,1.87l5,2.92c.55-2.89,1.13-5.79,1.73-8.67a3,3,0,1,0-5.78-1.6,36.42,36.42,0,0,1-1.11,3.56,10.29,10.29,0,0,1-1,1.81c.19-.28-.29.33-.35.39-.4.41-.17.09.1.07h-.33c-.36-.06-.72-.17-1.07-.26l-2.22-.55a18.43,18.43,0,0,0-2.16-.54c-1-.3-.58.5,1.25,2.39a2.64,2.64,0,0,1-.18.38.53.53,0,0,1-.23.24l.48-.28-4.52-2.59a6.41,6.41,0,0,1-.52,3.62,3,3,0,0,0,4.71,3.64,16.36,16.36,0,0,0,4.27-7.61A3,3,0,1,0,238,255l-2.67,6.34,5.89.8c0,.24,0,.18.06-.19a4.75,4.75,0,0,1,.2-.64c-.07.21,0,.15.13-.18a5.5,5.5,0,0,1,.38-.56,3,3,0,0,0-1.08-4.1,3.07,3.07,0,0,0-4.11,1.07,9.46,9.46,0,0,0-1.58,4.6,3,3,0,0,0,2.6,2.94,3.06,3.06,0,0,0,3.29-2.14l2.67-6.34L238,255a10,10,0,0,1-2.74,5l4.72,3.64a12.27,12.27,0,0,0,1.34-6.65c-.22-2.21-2.39-3.81-4.51-2.59a5.48,5.48,0,0,0-2.76,3,4.2,4.2,0,0,0,1,4.2c1,.95,2.41,1.15,3.66,1.46s2.44.65,3.66.91a6.56,6.56,0,0,0,4.45-.41,8.24,8.24,0,0,0,2.91-2.81,22,22,0,0,0,2.71-6.79l-5.78-1.6c-.61,2.89-1.18,5.78-1.73,8.68a3.1,3.1,0,0,0,1.38,3.39,3,3,0,0,0,3.63-.47,15.54,15.54,0,0,0,3.48-8.19,3,3,0,0,0-2.2-2.89,3.08,3.08,0,0,0-3.39,1.38,18.05,18.05,0,0,1-4.47,5.07l5,2.91,1.68-4.07a10.87,10.87,0,0,0,1.16-4.6c-.07-2.07-2.57-4-4.51-2.59A13.22,13.22,0,0,0,241,261.49c-.06,3,4.07,4,5.59,1.52a44.88,44.88,0,0,0,5.68-14.48,3,3,0,0,0-1.73-3.54,3,3,0,0,0-3.75,1.22,119.66,119.66,0,0,0-4.69,11.94,3,3,0,1,0,5.79,1.59c1.14-3.31,2.26-6.64,3.72-9.84l-5.49-2.31a26.26,26.26,0,0,1-4.5,9.13l5,2.91,4.56-11.32a3,3,0,0,0-1.74-3.53,3,3,0,0,0-3.74,1.22L239,256a3,3,0,0,0,4.71,3.63,51.09,51.09,0,0,0,7.51-12.13,3,3,0,0,0-4.71-3.63c-5,3.92-9,9-12.7,14.06l5.18,3c1.73-3.23,3.26-6.53,4.68-9.91a3,3,0,0,0-1.07-3.15,3,3,0,0,0-3.33-.23,19.65,19.65,0,0,0-6.64,7.12c-.79,1.31-1.52,2.66-2.3,4-.39.66-.79,1.31-1.22,1.94-.21.31-.43.62-.66.92.34-.44-.35.41-.41.49l5,2.92q3.08-8.87,6.67-17.54l-5.79-1.59-2,11a3,3,0,1,0,5.78,1.59c.33-.86-.26.45.16-.37l.41-.8c.27-.48.56-.95.86-1.41.62-1,1.3-1.91,1.93-2.88a15.42,15.42,0,0,0,2.66-7.14,3,3,0,0,0-3-3,3.06,3.06,0,0,0-3,3Z"/><path class="cls-5" d="M227.45,271.14q2.93-.25,5.85-.54l-.79-5.89a26.08,26.08,0,0,1-5.63,1.36l.8,5.89a14.4,14.4,0,0,1,7.53-1.07c1.61.19,3-1.51,3-3a3.08,3.08,0,0,0-3-3,13.29,13.29,0,0,0-5,.36,3,3,0,0,0-.72,5.48,14.52,14.52,0,0,0,7.29,1.28l-.8-5.89a16,16,0,0,1-2.71.27v6L244.41,271l-1.52-5.59a4.84,4.84,0,0,1-2.06.45,3,3,0,0,0-3,3c0,1.8,1.38,2.78,3,3a18,18,0,0,0,8.36-.91,3,3,0,0,0,1.33-5,16,16,0,0,0-3.33-2.63l-2.31,5.49,2.11.84-1.32-5-.94,1.14a3.15,3.15,0,0,0-.47,3.63,3.71,3.71,0,0,0,2.56,1.93,3.08,3.08,0,0,0,3.69-2.09,3,3,0,0,0-2.09-3.69l1,.82L249,270l.93-1.14a3.06,3.06,0,0,0-1.32-5l-2.11-.84a3,3,0,0,0-2.32,5.48,8.4,8.4,0,0,1,2.11,1.69l1.33-5a13.78,13.78,0,0,1-6.77.7v6a12,12,0,0,0,5.09-1.27,3,3,0,0,0-1.51-5.59l-11.16,1.42a3.1,3.1,0,0,0-3,3,3,3,0,0,0,3,3,25.73,25.73,0,0,0,4.3-.48c3.28-.64,2.59-6.25-.79-5.9a8.48,8.48,0,0,1-4.26-.46l-.72,5.48a9.35,9.35,0,0,1,3.43-.14v-6a18.4,18.4,0,0,0-9.13,1.29,3,3,0,0,0-2.15,3.29,3,3,0,0,0,2.95,2.6,31.9,31.9,0,0,0,7.22-1.58,3,3,0,0,0,2.15-3.29,3,3,0,0,0-2.95-2.6q-2.93.28-5.85.54a3.09,3.09,0,0,0-3,3,3,3,0,0,0,3,3Z"/><path class="cls-5" d="M248.66,266.66a2.09,2.09,0,0,1,.11.43l-.11-.8a3.21,3.21,0,0,1,0,.62l.1-.8a2.46,2.46,0,0,1-.16.59l.3-.71a2.48,2.48,0,0,1-.27.47l.47-.61-.16.18a2.9,2.9,0,0,0-.62,3.28,2.34,2.34,0,0,0,.62,1l.61.46a2.88,2.88,0,0,0,1.51.41l.8-.1a3,3,0,0,0,1.32-.77,8.57,8.57,0,0,0,.66-.83,2.61,2.61,0,0,0,.17-.28,9.32,9.32,0,0,0,.42-1,1.92,1.92,0,0,0,.09-.32l0-.15c0-.3.09-.61.12-.91,0-.11,0-.22,0-.33s0-.11,0-.17c0-.3-.07-.61-.12-.91a1.59,1.59,0,0,0-.09-.33,2.29,2.29,0,0,0-.54-1,2.25,2.25,0,0,0-.84-.78,2.17,2.17,0,0,0-1.12-.35,2.29,2.29,0,0,0-1.19.05l-.72.3a3.1,3.1,0,0,0-1.08,1.08l-.3.72a3.06,3.06,0,0,0,0,1.59Z"/><path class="cls-5" d="M249.81,263.74a13.46,13.46,0,0,1-1,1.41l.47-.6A14.21,14.21,0,0,1,246.9,267l.61-.47c-.19.14-.38.29-.58.42a2.31,2.31,0,0,0-.84.77,2.27,2.27,0,0,0-.53,1,2.23,2.23,0,0,0-.06,1.2,2.28,2.28,0,0,0,.36,1.12,3,3,0,0,0,1.79,1.37,2.91,2.91,0,0,0,2.31-.3,17.34,17.34,0,0,0,2.82-2.38,18.22,18.22,0,0,0,2.22-3,3.18,3.18,0,0,0,.3-2.32,3.05,3.05,0,0,0-1.38-1.79,3,3,0,0,0-2.31-.3,3.15,3.15,0,0,0-1.8,1.38Z"/><path class="cls-5" d="M249.73,265.28a1.1,1.1,0,0,0,0,.18l.1-.8a5.79,5.79,0,0,1-.42,1.53l.3-.72a6.25,6.25,0,0,1-.79,1.37l.47-.61a6.4,6.4,0,0,1-.65.72,2.9,2.9,0,0,0-.62,3.28,2.24,2.24,0,0,0,.62,1,3,3,0,0,0,2.12.87,3.16,3.16,0,0,0,2.12-.87,12.24,12.24,0,0,0,1.18-1.41,5.83,5.83,0,0,0,.58-1,10.19,10.19,0,0,0,.68-1.68,9.9,9.9,0,0,0,.33-1.87,2.32,2.32,0,0,0-.26-1.16,2.25,2.25,0,0,0-.62-1,2.13,2.13,0,0,0-1-.62,2.17,2.17,0,0,0-1.15-.26,3,3,0,0,0-2.12.88l-.47.6a3,3,0,0,0-.41,1.52Z"/><path class="cls-5" d="M229.09,263.91A10.71,10.71,0,0,0,229,265a2.41,2.41,0,0,0,0,.38,10.71,10.71,0,0,0,.14,1.12,2.83,2.83,0,0,0,.09.37,3,3,0,0,0,.77,1.32,2.22,2.22,0,0,0,1,.62,2.26,2.26,0,0,0,1.15.26,3,3,0,0,0,1.52-.41l.13-.09.7-.54.21-.21c.12-.13.22-.28.33-.42l.31-.41a2.26,2.26,0,0,0,.16-.26c.13-.27.24-.55.35-.83a.69.69,0,0,0,.05-.13,1.67,1.67,0,0,0,.08-.3A3.13,3.13,0,0,1,236,265l-.31.71.07-.11-.47.61.05-.05-.61.47.07,0-.72.3.06,0-.79.11h0l-.8-.11h0l-.72-.3h0l-.6-.47s0,0,0,0l-.46-.61s0,0,0,.05l-.3-.71a.64.64,0,0,1,0,.07l-.11-.8v.09l.11-.8s0,0,0,.05l.31-.71,0,0,.47-.61h0l.6-.47h0l.71-.3h0l.79-.11h0l.8.11h0l.72.3h0l.61.46,0,0a2.25,2.25,0,0,0-1-.62,2.32,2.32,0,0,0-1.16-.26,2.26,2.26,0,0,0-1.15.26,2.22,2.22,0,0,0-1,.62l-.47.61a3,3,0,0,0-.41,1.51l.11.8a3,3,0,0,0,.77,1.33,2.54,2.54,0,0,0,.64.49c.1.06.63.28.74.32a3,3,0,0,0,2.34-.31,3.11,3.11,0,0,0,1.11-1.11c.06-.12.27-.62.31-.74s.17-1.45.12-.84a2.81,2.81,0,0,0-.05-.49c0-.11,0-.3-.06-.44v0l-.31-.72,0,0-.47-.61,0,0a2.2,2.2,0,0,0-1-.63,2.09,2.09,0,0,0-1.18-.27,3.31,3.31,0,0,0-2.32,1,3.51,3.51,0,0,0-.9,1.59,2.79,2.79,0,0,0-.07.4,2.25,2.25,0,0,1-.14.44l.31-.72a2.36,2.36,0,0,1-.29.48l.47-.61a1.85,1.85,0,0,1-.37.37l.61-.47-.16.12,4.4,1.79a3.56,3.56,0,0,1-.1-.47l.11.8a2.68,2.68,0,0,1,0-.8l-.11.8s0-.08,0-.12a2.33,2.33,0,0,0,.05-1.2,2.3,2.3,0,0,0-.35-1.11,2.25,2.25,0,0,0-.78-.84,2.2,2.2,0,0,0-1-.54l-.8-.11a3,3,0,0,0-1.51.41l-.61.47a3,3,0,0,0-.77,1.32Z"/><path class="cls-5" d="M229.7,272.8l2.84-.3a2.44,2.44,0,0,0,1.16-.26,2.7,2.7,0,0,0,1.58-1.59,2.19,2.19,0,0,0,.26-1.15l-.11-.8a3,3,0,0,0-.77-1.33l-.6-.47a3,3,0,0,0-1.52-.4l-2.84.3a2.32,2.32,0,0,0-1.16.26,2.25,2.25,0,0,0-1,.62,2.22,2.22,0,0,0-.62,1,2.17,2.17,0,0,0-.26,1.15l.11.8a2.94,2.94,0,0,0,.77,1.32l.61.47a3,3,0,0,0,1.51.41Z"/><path class="cls-5" d="M213.46,289.51c-.19.58-.41,1.15-.64,1.72l.3-.72a25.23,25.23,0,0,1-3.19,5.48l.47-.61c-.26.34-.53.67-.8,1a3.19,3.19,0,0,0-.88,2.12,3.06,3.06,0,0,0,.88,2.12,3,3,0,0,0,2.12.88,2.94,2.94,0,0,0,2.12-.88,28.86,28.86,0,0,0,5.41-9.5,3,3,0,0,0-2.1-3.69,3.07,3.07,0,0,0-3.69,2.09Z"/><path class="cls-5" d="M214.86,286.55a16.4,16.4,0,0,0-4.73,13.39,3.27,3.27,0,0,0,.88,2.12,3,3,0,0,0,4.24,0,2.85,2.85,0,0,0,.88-2.12,13.38,13.38,0,0,1-.06-2.9l0-.35c0-.38-.11.72,0,.19,0-.23.08-.47.13-.7a14.65,14.65,0,0,1,.4-1.44c.08-.22.17-.44.24-.66s-.26.57-.1.23l.15-.33a14,14,0,0,1,.71-1.32c.12-.2.25-.39.38-.59l.2-.28a2,2,0,1,0-.15.18,15.06,15.06,0,0,0,1.06-1.18,3,3,0,1,0-4.24-4.24Z"/><path class="cls-5" d="M215.83,293.82l9.41,3.4a24.65,24.65,0,0,1,3.8,1.65,6.67,6.67,0,0,0,5.09,1c3-.73,2.7-4.91,0-5.78s-4.94-2.44-7.53-3.37a20.88,20.88,0,0,0-3.48-.8,9.94,9.94,0,0,1-1.7-.38c-.22-.08,0,.05-.35-.17.32.23-.37-.39-.37-.4l-1.33,5c1.76-.41,3,.36,4.47,1.2a24.62,24.62,0,0,0,6.24,2.3,53.19,53.19,0,0,0,13.82,1.54c3.86-.07,3.87-6.07,0-6a47,47,0,0,1-13.61-1.69,16.1,16.1,0,0,1-2.64-.9c-.93-.46-1.79-1.06-2.73-1.5a10.6,10.6,0,0,0-7.14-.73c-2.35.56-2.71,3.38-1.33,5,2,2.39,5,2.24,7.77,3,2.91.84,5.43,2.69,8.31,3.62v-5.78c.34-.09.59.25.25,0a3.81,3.81,0,0,0-.71-.4,19.78,19.78,0,0,0-1.78-.9c-1.43-.63-2.9-1.15-4.37-1.68l-8.5-3.07a3,3,0,1,0-1.59,5.78Z"/><path class="cls-5" d="M243.28,293.92,237,300.69a3.15,3.15,0,0,0-.88,2.13,3,3,0,0,0,5.12,2.12l6.31-6.78a3,3,0,0,0,0-4.24,3,3,0,0,0-4.24,0Z"/><path class="cls-5" d="M244.11,294a25.11,25.11,0,0,0-4.84,4.48,2.16,2.16,0,0,0-.62,1,2.72,2.72,0,0,0,0,2.32,2.16,2.16,0,0,0,.62,1,3,3,0,0,0,2.12.88,2.9,2.9,0,0,0,2.12-.88,22.44,22.44,0,0,1,3.69-3.6l-.61.46.55-.4a2.39,2.39,0,0,0,.84-.77,2.27,2.27,0,0,0,.53-1,3.28,3.28,0,0,0-.3-2.31,3,3,0,0,0-1.79-1.38,2.91,2.91,0,0,0-2.31.3Z"/><path class="cls-5" d="M242.37,296v.09l.1-.8a10,10,0,0,1-.66,2.41l.3-.71a10.56,10.56,0,0,1-1.25,2.16l.46-.61a9.06,9.06,0,0,1-.64.75,3.16,3.16,0,0,0-.87,2.12,3,3,0,0,0,5.12,2.13,12.62,12.62,0,0,0,2.2-3.16,15.15,15.15,0,0,0,.83-2.09,15.93,15.93,0,0,0,.42-2.29,3,3,0,0,0-.88-2.12,3,3,0,0,0-4.24,0l-.47.61a3,3,0,0,0-.41,1.51Z"/><path class="cls-5" d="M235.81,298.63a36,36,0,0,1-1.21,5.15c-.27.83-.56,1.65-.88,2.46-.09.22-.44.78,0,.05-.1.18-.17.4-.26.6-.19.42-.39.84-.59,1.26a3.2,3.2,0,0,0-.31,2.31,3.09,3.09,0,0,0,1.38,1.79,3,3,0,0,0,4.11-1.07,38.6,38.6,0,0,0,3.56-10.95,3.24,3.24,0,0,0-.3-2.31,3,3,0,0,0-4.11-1.08,2.93,2.93,0,0,0-1.37,1.79Z"/><path class="cls-5" d="M233,298a32.65,32.65,0,0,1-2.1,7.37l.31-.72c-.22.51-.44,1-.68,1.5-.11.22-.23.43-.33.66-.22.5.41-.41.21-.23s.68-.43.28-.24l.72-.3-.1,0,.8-.11a.25.25,0,0,1-.17,0l1.51.41.49.38.77,1.32,0-.09a3.2,3.2,0,0,0-1.38-1.79,3,3,0,0,0-4.41,3.39,3.28,3.28,0,0,0,3.22,2.38,3.82,3.82,0,0,0,2.9-1.57,16.56,16.56,0,0,0,1.89-3.93,32,32,0,0,0,1.88-6.86,3.24,3.24,0,0,0-.3-2.31,3,3,0,0,0-4.1-1.08A2.91,2.91,0,0,0,233,298Z"/><path class="cls-5" d="M218.29,298.6c-.89.42-1.09.55-.61.41-.45.05-.51.08-.16.07-.49,0-.3,0,.07.06.6.15,1.19.36,1.79.52,1.19.33,2.39.61,3.6.85a54.25,54.25,0,0,0,8.14.93,3,3,0,0,0,3-3,3.06,3.06,0,0,0-3-3c-1.42-.05-2.84-.17-4.25-.34-.36,0-.38-.05-.05,0l-.56-.09-1.13-.19c-.65-.11-1.3-.25-1.95-.39-1.35-.3-2.65-.73-4-1.08a5.37,5.37,0,0,0-5.14,1,3,3,0,0,0,0,4.24,3.07,3.07,0,0,0,4.24,0Z"/><path class="cls-5" d="M215.49,296.43h3.12a2.2,2.2,0,0,0,1.16-.26,2.25,2.25,0,0,0,1-.62,2.16,2.16,0,0,0,.62-1,2.22,2.22,0,0,0,.26-1.16l-.1-.8a3,3,0,0,0-.78-1.32,3.08,3.08,0,0,0-2.12-.88h-3.12a2.2,2.2,0,0,0-1.16.26,2.34,2.34,0,0,0-1,.62,2.25,2.25,0,0,0-.62,1,2.32,2.32,0,0,0-.25,1.16l.1.8a2.94,2.94,0,0,0,.77,1.32,3.13,3.13,0,0,0,2.13.88Z"/><path class="cls-5" d="M216.3,292.49l5.9,3a3.15,3.15,0,0,0,2.31.3,3.08,3.08,0,0,0,1.79-1.37,3,3,0,0,0-1.07-4.11l-5.9-3A3.2,3.2,0,0,0,217,287a3.05,3.05,0,0,0-1.79,1.38,3,3,0,0,0-.3,2.31,3,3,0,0,0,1.37,1.79Z"/><path class="cls-5" d="M215.53,299.21a136.43,136.43,0,0,0,17.07,3.65c1.55.23,3.3-.38,3.69-2.09.33-1.43-.43-3.45-2.09-3.69a138,138,0,0,1-17.08-3.66,3,3,0,0,0-1.59,5.79Z"/><path class="cls-5" d="M227.45,299.1a3.64,3.64,0,0,1,.32.48c.38.65,0,0,0,0s.14.48.17.55c.19.56,0-.7,0,.06,0,.19,0,.38,0,.58s0,.12,0-.32c0,.09,0,.18,0,.28s-.05.18-.08.28-.08.24,0,0,.11-.24,0,0-.12.23-.19.34l5.59,1.51c0-.47,0,.06,0,.13a2.16,2.16,0,0,0,.1-.55c.07-.33.16-.65.26-1,0-.1.21-.83.3-.84-.09,0-.26.56,0,0,.08-.17.17-.33.26-.49l-5.59-1.52a9.73,9.73,0,0,1-.11,1.62c.16-.84,0,.18-.08.34s-.12.53-.19.79c-.14.52-.33,1-.5,1.53-.08.21-.06.15.08-.18-.06.14-.12.28-.19.42a3.24,3.24,0,0,1-.17.32,2.53,2.53,0,0,1,1.11-.92h1.6c-.5-.08-.26.07.71.47a3.45,3.45,0,0,1-.26-.28c-.2-.25-.17-.2.1.15l-.22-.32a13,13,0,0,1-.81-1.35c-.47-.87-.87-1.78-1.32-2.66-1.27-2.48-3.3-5.35-6.44-4.92a5,5,0,0,0-4,3.65,19.78,19.78,0,0,0-.49,4.15l-.33,3.88c0,.33-.06.66-.08,1,0,.78.2-.76,0,.08,0,.1-.06.21-.1.31.21-.46.25-.56.1-.29a2.3,2.3,0,0,1,2.38-.83,3.28,3.28,0,0,0-2.32.3,3,3,0,0,0-1.37,1.79c-.33,1.42.43,3.45,2.09,3.69a4.14,4.14,0,0,0,2.95-.42,4.4,4.4,0,0,0,1.59-1.78,12.16,12.16,0,0,0,.84-4.48l.33-4c0-.34.06-.67.08-1,0-.15,0-.3,0-.45,0-.42-.12.57,0,.16,0-.2,0-.57.19-.72-.15.15-.2.45-.37.62.19-.18.18-.19,0,0a.94.94,0,0,1-.52.25,1.72,1.72,0,0,1-.64,0c-.09,0-.82-.32-.52-.15s-.41-.41-.17-.13a3.57,3.57,0,0,0,.27.28c.09.09.17.2.26.29.27.29-.33-.47-.11-.15s.33.48.49.73c.55.9,1,1.86,1.45,2.8a17.57,17.57,0,0,0,1.57,2.73,7,7,0,0,0,1.84,1.93,3.68,3.68,0,0,0,3.75.13c1.6-.89,2.27-2.91,2.77-4.56a18,18,0,0,0,.72-4.79,3,3,0,0,0-2.2-2.89,3.08,3.08,0,0,0-3.39,1.38,14.55,14.55,0,0,0-1.73,5.75,3,3,0,0,0,2.2,2.89,3.09,3.09,0,0,0,3.39-1.38,7.71,7.71,0,0,0-.26-8.27,3.25,3.25,0,0,0-1.79-1.38,3.1,3.1,0,0,0-2.31.31c-1.25.8-2.07,2.75-1.08,4.1Z"/><path class="cls-5" d="M211.16,297.87a10.24,10.24,0,0,0-1.46,5.88c0,.83,0,1.66,0,2.5,0,.2,0,.41,0,.62-.06.77,0,0,0,0a6,6,0,0,1-.37,1.36l5.89.8a28.64,28.64,0,0,0-.25-7.68,2.94,2.94,0,0,0-2.49-2.15,3,3,0,0,0-3,1.43q-1.28,1.88-2.42,3.84l5.59,1.52c0-.31.05-.69,0-.17a5.85,5.85,0,0,1,.12-.71,15.47,15.47,0,0,1,.36-1.53,13.77,13.77,0,0,1,.46-1.37,3.42,3.42,0,0,1,.13-.34c-.13.31-.16.36-.07.16s.24-.51.37-.76l-4.71.6.26.27c.21.24.17.19-.13-.17a2.59,2.59,0,0,1,.19.31c.15.29.12.22-.06-.22a2.89,2.89,0,0,0,.22.71c0,.12.05.25.07.37-.06-.49-.07-.56,0-.23s0,.9,0,1.36,0,.26,0-.21l-.06.38c-.05.26-.11.51-.18.76-.66,2.55-1.8,4.92-1.7,7.62l5.59-1.51a8.73,8.73,0,0,1-.75-1.15l-.1-.2c-.14-.31-.14-.28,0,.08a2.07,2.07,0,0,1-.21-.65,3,3,0,0,0-5.79,1.6,10.58,10.58,0,0,0,1.65,3.35,3.12,3.12,0,0,0,3.39,1.38,3.07,3.07,0,0,0,2.2-2.9c0-.31,0-.62,0-.93,0-.74-.1.39,0,0,0-.15.06-.31.09-.46a18.63,18.63,0,0,1,.55-1.94,26.52,26.52,0,0,0,1.06-3.63c.5-2.91.2-6.05-2.05-8.21a3,3,0,0,0-4.71.61,21.21,21.21,0,0,0-2.19,7.75,3,3,0,0,0,2.2,2.89,3.08,3.08,0,0,0,3.39-1.38q1.14-2,2.42-3.84l-5.48-.72c.05.35.05.34,0,0,0,.13,0,.26.05.38s.05.51.07.77c.05.55.07,1.1.08,1.66a24.54,24.54,0,0,1-.17,3.32,3,3,0,0,0,2.6,2.94,3.05,3.05,0,0,0,3.3-2.14,15.29,15.29,0,0,0,.61-5.47c0-.41,0-.82,0-1.24l0-.61,0-.2c0-.33,0-.26,0,.21.05,0,.2-.91.25-1,.21-.64-.15.22,0,0s.23-.4.36-.59a3,3,0,0,0-1.07-4.1,3.08,3.08,0,0,0-4.11,1.07Z"/><path class="cls-5" d="M205.82,307.43a20.66,20.66,0,0,0-.08,8.29,3,3,0,0,0,1.38,1.79,3.12,3.12,0,0,0,1.92.36,3,3,0,0,0,2.6-2.95l0-2.44a3,3,0,0,0-6,0l0,2.44,5.89-.8c-.06-.33-.12-.67-.16-1l.1.8a17.27,17.27,0,0,1,0-4.31l-.1.79c.06-.46.14-.92.24-1.37a3.23,3.23,0,0,0-.3-2.32,3.06,3.06,0,0,0-1.8-1.37,3,3,0,0,0-2.31.3,3.05,3.05,0,0,0-1.38,1.79Z"/><path class="cls-5" d="M205.07,309.6c.36,2.17.78,4.34,1.08,6.51l-.11-.8a.37.37,0,0,1,0,.18l.11-.8,0,.07.78-1.32-.06.06,1.33-.77-.06,0,.8-.1h-.07l1.51.41-.06,0,.61.46,0,0,.77,1.32v-.05l-.3,2.31,0,0a3.1,3.1,0,0,0,.3-2.31,3,3,0,0,0-5.48-.72,3.14,3.14,0,0,0,3.53,4.6,3.24,3.24,0,0,0,1.67-1.16,3.29,3.29,0,0,0,.68-2,6,6,0,0,0-.15-1.17l-.21-1.27-.82-4.95a3,3,0,0,0-5.49-.72l-.3.72a3.06,3.06,0,0,0,0,1.59Z"/><path class="cls-5" d="M205.19,312.87a55.36,55.36,0,0,1,3.34,5.59c.5.94,1,1.9,1.4,2.88l.3.68c.13.31.11.26,0-.13l.16.4q.33.78.63,1.59a3.23,3.23,0,0,0,1.37,1.79,3,3,0,0,0,2.32.3c1.43-.46,2.68-2.12,2.09-3.69a59.11,59.11,0,0,0-6.38-12.43,3,3,0,0,0-5.18,3Z"/><path class="cls-5" d="M209.62,316.07c.31.61.62,1.23.89,1.87-.2-.47.22.56.26.66l.3.84a28.64,28.64,0,0,1,1.1,4.16c.07.34.12.68.18,1s.06.4,0,.09c0,.15,0,.29,0,.44.07.69.12,1.38.15,2.08a30.9,30.9,0,0,1-.14,4.3,3,3,0,0,0,3,3,3.09,3.09,0,0,0,3-3A33.13,33.13,0,0,0,214.8,313a3,3,0,0,0-4.11-1.08,3.07,3.07,0,0,0-1.07,4.11Z"/><path class="cls-5" d="M210.86,321.86a148.7,148.7,0,0,1,1,19c0,3.39,5,4.06,5.89.79l2.13-7.71h-5.78a6.28,6.28,0,0,1-.11,2.89,3,3,0,0,0,5,2.91c4.17-3.68,4.93-9.31,8.12-13.64,1.53-2.08,4.08-3.79,5.87-5.85a25.77,25.77,0,0,0,4.84-8.36,3,3,0,0,0-1.74-3.54,3,3,0,0,0-3.74,1.22,131.16,131.16,0,0,0-9.44,15.68l5.48,2.31,1.76-4.27c1.14-2.78-3.13-5.1-5-2.92a38.79,38.79,0,0,0-3,3.89c-.83,1.26-1.42,2.62-2.18,3.91a3.83,3.83,0,0,0-.28.4c-.83.76.08,1.05,2.74.85l-.12-.38c-.05-.55-.23-1-.23-1.58a6,6,0,0,1,1.12-3.39l-5.59-1.51a23.51,23.51,0,0,1-.84,5.2l5.79,1.6a40.88,40.88,0,0,1,9.51-21.21l-5-1.33a25,25,0,0,1,.78,6.26c0,3.87,5.87,3.85,6,0l.16-4.71c.09-3-4.14-4.05-5.6-1.52l-7,12.17,5.48,2.31,3.21-9a3,3,0,0,0-5.79-1.6,63.87,63.87,0,0,1-5.44,11.11l5.59,1.51a39.49,39.49,0,0,1,1.65-15.91,3,3,0,0,0-5.79-1.59,44.13,44.13,0,0,0-1.86,17.5,3.11,3.11,0,0,0,2.2,2.89,3.06,3.06,0,0,0,3.39-1.38,72.68,72.68,0,0,0,6.05-12.53l-5.79-1.6-3.2,9c-1.16,3.24,3.81,5.21,5.48,2.31l7-12.17L228,308.36l-.16,4.71h6a31.93,31.93,0,0,0-1-7.85c-.53-2.09-3.52-3-5-1.33a46.39,46.39,0,0,0-11.06,23.86,3.09,3.09,0,0,0,2.1,3.69,3,3,0,0,0,3.69-2.09,31.88,31.88,0,0,0,1-6.8c.15-3.15-4-3.84-5.59-1.52a11.56,11.56,0,0,0-1.93,6.82c.11,2.52.9,5.69,3.72,6.33s4.74-1.85,5.88-4.08a27.8,27.8,0,0,1,3.68-5.5l-5-2.92L222.63,326a3,3,0,0,0,5.48,2.32,131.16,131.16,0,0,1,9.44-15.68l-5.48-2.31a18.37,18.37,0,0,1-4,6.47c-2.05,2.14-4.38,3.88-6.12,6.31-2.81,3.92-3.62,9.27-7.19,12.43l5,2.92a13,13,0,0,0,.1-6.07c-.62-3-5-2.74-5.78,0L212,340.05l5.89.8a148.7,148.7,0,0,0-1-19,3.09,3.09,0,0,0-3-3c-1.47,0-3.19,1.38-3,3Z"/><path class="cls-5" d="M223.42,301.41c-.08.61,0,0-.07.53l-.15,1q-.16,1-.36,2c-.26,1.31-.57,2.62-.93,3.91s-.76,2.57-1.21,3.83-.86,2.29-1.32,3.33l5.48,2.31,2.77-9.43c1-3.33,1.83-6.77.87-10.22a3,3,0,0,0-5.78,1.6,7.43,7.43,0,0,1,.07,3.38c-.28,1.47-.73,2.89-1.14,4.32l-2.57,8.75a3,3,0,0,0,5.48,2.32,61.67,61.67,0,0,0,4.86-17.6,3,3,0,0,0-3-3,3.08,3.08,0,0,0-3,3Z"/><path class="cls-5" d="M228.92,298.52l0-.14a3.11,3.11,0,0,0-1.38-3.39c-2.94-1.89-5.65,1.38-6.63,3.83-.89,2.19-.92,4.6-1.39,6.88-1.16,5.56-3.4,10.94-5.26,16.29l5.89.8,0-19.81c0-3.86-6-3.86-6,0a65.28,65.28,0,0,1-.76,10.07h5.79a76.14,76.14,0,0,1-.83-10.45c-.05-3.35-5-4.12-5.89-.8a40.21,40.21,0,0,0-1.26,7.78c-.19,2.85,4.41,4.27,5.59,1.52a36.72,36.72,0,0,0,3-12.93,3,3,0,0,0-2.61-2.94,3,3,0,0,0-3.29,2.14l-2.29,6.31-1.1,3-.51,1.4-.34.94c-.42,1-.07.72,1-.71h1.6l-.28-.09,1.32.77a19.6,19.6,0,0,1-2.69-3.17,3,3,0,0,0-4.24,0,3.08,3.08,0,0,0,0,4.25c1.14,1.4,2.31,3.47,4.15,4,2.61.73,4.09-1.32,4.88-3.44,1.44-3.88,2.82-7.79,4.24-11.68l-5.89-.8a28.59,28.59,0,0,1-2.19,9.9l5.59,1.51a32.45,32.45,0,0,1,1-6.18l-5.89-.8a88.25,88.25,0,0,0,1,12c.44,2.87,5.34,2.86,5.79,0a75.8,75.8,0,0,0,1-11.66h-6l0,19.81c0,3.49,4.81,3.92,5.9.79,1.54-4.43,3.24-8.85,4.53-13.37a47.72,47.72,0,0,0,1.27-6.36,18.46,18.46,0,0,1,.49-2.46,2.55,2.55,0,0,1,.35-.85c.2-.31.24-.38.11-.21.54-.49.23-.43-.92.16l-1.51-.41.14.09-1.37-3.38,0,.14a3.07,3.07,0,0,0,2.09,3.69,3,3,0,0,0,3.69-2.1Z"/><path class="cls-5" d="M204.83,306.8a30.24,30.24,0,0,0,.09,4.85,3.3,3.3,0,0,0,.87,2.12,3,3,0,0,0,4.25,0,3,3,0,0,0,.88-2.12,30.24,30.24,0,0,1-.09-4.85,3.06,3.06,0,0,0-.88-2.13,3,3,0,0,0-4.24,0l-.47.61a3,3,0,0,0-.41,1.52Z"/><path class="cls-5" d="M204.31,306.66l-1.41,1.86,5.48.72c0-.1,0-.2,0-.3l.1.8a3.57,3.57,0,0,1,0-.8l-.11.8a4.31,4.31,0,0,1,.24-.87l-.3.71a3.34,3.34,0,0,1,.43-.73l-.47.6a3.1,3.1,0,0,1,.6-.6l-.61.47a3.37,3.37,0,0,1,.61-.36,2.23,2.23,0,0,0,.84-.77,2.27,2.27,0,0,0,.53-1,3.28,3.28,0,0,0-.3-2.31,3,3,0,0,0-1.79-1.38l-.8-.11a3,3,0,0,0-1.51.41,5.29,5.29,0,0,0-1.52,1.09,8.05,8.05,0,0,0-.82,1,3.15,3.15,0,0,0-.3.5,7.75,7.75,0,0,0-.49,1.2,5.16,5.16,0,0,0-.17.94,4.36,4.36,0,0,0-.08.95,6.86,6.86,0,0,0,.19,1.35l.3.71.47.61.61.47a2.21,2.21,0,0,0,1.11.36,1.55,1.55,0,0,0,.8,0,1.58,1.58,0,0,0,.76-.21,1.49,1.49,0,0,0,.66-.39,2.31,2.31,0,0,0,.77-.84l1.41-1.86a2.14,2.14,0,0,0,.35-1.12,2.66,2.66,0,0,0-.59-2.21,2.15,2.15,0,0,0-.84-.77,3,3,0,0,0-2.31-.31l-.72.31a2.89,2.89,0,0,0-1.07,1.07Z"/><path class="cls-5" d="M213.9,300a28.68,28.68,0,0,1-.18,5.24l.1-.79a28.11,28.11,0,0,1-1,4.42,3,3,0,0,0,2.09,3.69,3.07,3.07,0,0,0,3.69-2.1A30.33,30.33,0,0,0,219.9,300a3,3,0,0,0-6,0Z"/><path class="cls-5" d="M217.1,300.7a50.12,50.12,0,0,0-2.73,8.16,3,3,0,0,0,2.09,3.69,3.05,3.05,0,0,0,2.31-.31,3,3,0,0,0,1.38-1.79,45.88,45.88,0,0,1,2.38-7.31l-.31.72.06-.13a2.11,2.11,0,0,0,.35-1.11,2.23,2.23,0,0,0,0-1.2,3.05,3.05,0,0,0-1.38-1.79,3,3,0,0,0-2.31-.3,2.86,2.86,0,0,0-1.79,1.37Z"/><path class="cls-5" d="M204.59,303.83l-2,4.29a2.11,2.11,0,0,0-.35,1.11,2.23,2.23,0,0,0,.05,1.2,3.05,3.05,0,0,0,1.38,1.79,3,3,0,0,0,2.31.3,2.92,2.92,0,0,0,1.79-1.37l2-4.29a2.21,2.21,0,0,0,.36-1.11,2.33,2.33,0,0,0,0-1.2,3.06,3.06,0,0,0-1.38-1.79,3,3,0,0,0-2.31-.31,3,3,0,0,0-1.8,1.38Z"/><path class="cls-5" d="M205.36,303.21a19.23,19.23,0,0,0-1.54,2,14.46,14.46,0,0,0-.9,1.52,2.28,2.28,0,0,0-.36,1.12,2.19,2.19,0,0,0,.06,1.19,2.27,2.27,0,0,0,.53,1,2.36,2.36,0,0,0,.85.78l.71.3a3.1,3.1,0,0,0,1.6,0l.71-.3a3,3,0,0,0,1.08-1.08,13.3,13.3,0,0,1,1.34-2.12l-.47.6q.3-.37.63-.75a2.25,2.25,0,0,0,.62-1,2.3,2.3,0,0,0,.26-1.16,2.26,2.26,0,0,0-.26-1.15,2.22,2.22,0,0,0-.62-1l-.61-.47a3,3,0,0,0-1.51-.41l-.8.11a2.94,2.94,0,0,0-1.32.77Z"/><path class="cls-5" d="M221.59,300c-.13.48-.27,1-.44,1.43-.08.23-.17.46-.26.69-.19.5.3-.61-.1.24s-.83,1.67-1.31,2.47-1,1.59-1.57,2.35l-.44.61-.18.23c-.3.4-.62.79-.94,1.18a99.8,99.8,0,0,0-7.53,9.73,3,3,0,0,0,5.18,3c.54-.86,1.1-1.69,1.7-2.5l.46-.61.18-.23c.31-.4.63-.79.95-1.19,1.29-1.57,2.61-3.11,3.87-4.7,2.68-3.37,5.08-6.93,6.22-11.13a3,3,0,0,0-5.79-1.6Z"/><path class="cls-5" d="M209.81,306.49a46,46,0,0,0,1.67,9.46,43.64,43.64,0,0,1,.91,4.38c0,.21,0,.2,0,0,0,.21.05.42.06.63,0,.36.06.73.07,1.09s0,.73,0,1.1c0,.11-.1,1.24,0,.78-.21,1.54.37,3.3,2.1,3.69,1.41.32,3.45-.44,3.69-2.1a27.3,27.3,0,0,0-.77-10.21c-.36-1.51-.76-3-1.09-4.54-.16-.73-.3-1.46-.42-2.2q-.09-.56,0-.15l-.06-.64c0-.42-.06-.84-.08-1.27a3,3,0,0,0-6,0Z"/><path class="cls-5" d="M222.89,267.77l-.86,1.62a2.2,2.2,0,0,0-.35,1.11,2.33,2.33,0,0,0,0,1.2l.3.72a2.25,2.25,0,0,0,.78.84,1.45,1.45,0,0,0,.66.38,2.19,2.19,0,0,0,1.15.26l.8-.11a3,3,0,0,0,1.33-.77l1.44-1.29a2.25,2.25,0,0,0,.62-1,2.72,2.72,0,0,0,0-2.32,2.25,2.25,0,0,0-.62-1l-.61-.47a3,3,0,0,0-1.51-.41l-.8.11a2.94,2.94,0,0,0-1.32.77l-1.45,1.29,4.71,3.64.86-1.62a2.25,2.25,0,0,0,.36-1.11,2.33,2.33,0,0,0-.05-1.2,2.29,2.29,0,0,0-.54-1,2.15,2.15,0,0,0-.84-.77l-.72-.31a3.06,3.06,0,0,0-1.59,0l-.72.31a3,3,0,0,0-1.08,1.07Z"/><path class="cls-5" d="M224.87,273.68H228a2.17,2.17,0,0,0,1.15-.26,2.19,2.19,0,0,0,1-.62,2.25,2.25,0,0,0,.62-1,2.32,2.32,0,0,0,.26-1.16l-.11-.8a3,3,0,0,0-.77-1.32,3.12,3.12,0,0,0-2.12-.88h-3.13a2.32,2.32,0,0,0-1.16.26,2.25,2.25,0,0,0-1,.62,2.22,2.22,0,0,0-.62,1,2.17,2.17,0,0,0-.26,1.15l.11.8a2.94,2.94,0,0,0,.77,1.32,3.1,3.1,0,0,0,2.12.88Z"/><path class="cls-5" d="M298.14,266.6,251.68,268l-23,.67-11.49.34a27.07,27.07,0,0,0-8.82,1.22c-2.71,1-5.09,3-5.72,5.95-.59,2.77.64,5.33,2.4,7.4,3.81,4.45,9.9,6.7,15.36,8.27a359.57,359.57,0,0,0,43.17,9.59,358.21,358.21,0,0,0,49.7,4.42c3.86.07,3.86-5.93,0-6a352.6,352.6,0,0,1-82.45-11.38c-5.9-1.53-12.15-2.77-17.39-5.85a19.36,19.36,0,0,1-2.81-2,7.53,7.53,0,0,1-1.85-2.11c-.06-.12-.33-.87-.13-.23a4.34,4.34,0,0,0-.14-.48c-.26-.56-.08.45,0-.15.08-.75-.29.55,0-.16.06-.15.08-.33.14-.48-.24.63.13-.14.19-.23-.26.37.12-.12.2-.2s.15-.14,0,0l.52-.34c1.75-1,4.47-1.16,6.8-1.24,3.62-.12,7.24-.21,10.86-.32l21.73-.63,49.21-1.45c3.85-.11,3.86-6.11,0-6Z"/></g></svg>