<?xml version="1.0" encoding="utf-8"?>
<!-- Generator: Adobe Illustrator 16.0.0, SVG Export Plug-In . SVG Version: 6.00 Build 0)  -->
<!DOCTYPE svg PUBLIC "-//W3C//DTD SVG 1.1//EN" "http://www.w3.org/Graphics/SVG/1.1/DTD/svg11.dtd">
<svg version="1.1" xmlns="http://www.w3.org/2000/svg" xmlns:xlink="http://www.w3.org/1999/xlink" x="0px" y="0px"
	 width="522.055px" height="452.977px" viewBox="0 0 522.055 452.977" enable-background="new 0 0 522.055 452.977"
	 xml:space="preserve">
<g id="Image_xA0_5_1_">
	<g id="_x31_">
		<g>
			<path fill-rule="evenodd" clip-rule="evenodd" fill="#00A651" d="M83.522,386.697h111.594v-11.039H83.522V386.697z
				 M332.638,375.658v11.039H444v-11.039H332.638z"/>
		</g>
	</g>
	<g id="_x32_">
		<g>
			<path fill-rule="evenodd" clip-rule="evenodd" fill="#ED1C24" d="M83.522,406.86h111.594v-11.039H83.522V406.86z
				 M332.638,395.821v11.039H444v-11.039H332.638z"/>
		</g>
	</g>
	<g id="tehran__x2013__iran_2017">
		<g>
			<path fill-rule="evenodd" clip-rule="evenodd" fill="#4D4D4F" d="M83.02,326.73h8.584v31.152h4.873V326.73h8.613v-4.928H83.02
				V326.73z M110.247,357.882h20.002v-4.871H115.12v-12.404h15.129v-4.871H115.12v-9.006h15.129v-4.928h-20.002V357.882z
				 M158.411,335.679h-17.254v-13.877h-4.93v36.08h4.93V340.55h17.254v17.332h4.873v-36.08h-4.873V335.679z M190.489,338.536
				c1.583-1.85,2.374-3.983,2.374-6.399c0-3.02-1.223-5.497-3.669-7.432c-2.446-1.935-5.614-2.902-9.505-2.902h-7.82v36.08h4.93
				v-14.84h1.105l10.013,14.84h5.655l-10.485-15.44C186.438,341.687,188.906,340.384,190.489,338.536z M176.798,338.738v-12.574
				c2.739,0,4.816,0.175,6.233,0.524c1.417,0.349,2.55,1.01,3.4,1.982c0.85,0.973,1.275,2.223,1.275,3.752
				C187.706,336.784,184.07,338.889,176.798,338.738z M225.463,357.882h5.167l-17.042-37.468l-16.9,37.468h5.128l4.142-9.232h15.317
				L225.463,357.882z M207.8,344.543l5.774-12.868l5.837,12.868H207.8z M261.568,347.78l-26.689-27.422v37.524h4.93v-25.63
				l26.688,27.301v-37.751h-4.93V347.78z M315.456,340.777H285.82v5.154h29.635V340.777z M334.806,357.882h4.873v-36.08h-4.873
				V357.882z M366.998,338.536c1.582-1.85,2.374-3.983,2.374-6.399c0-3.02-1.223-5.497-3.669-7.432
				c-2.446-1.935-5.614-2.902-9.505-2.902h-7.819v36.08h4.93v-14.84h1.105l10.012,14.84h5.656l-10.485-15.44
				C362.947,341.687,365.415,340.384,366.998,338.536z M353.307,338.738v-12.574c2.738,0,4.816,0.175,6.233,0.524
				c1.417,0.349,2.55,1.01,3.4,1.982s1.275,2.223,1.275,3.752C364.215,336.784,360.579,338.889,353.307,338.738z M373.196,357.882
				h5.128l4.142-9.232h15.317l4.188,9.232h5.166l-17.042-37.468L373.196,357.882z M384.309,344.543l5.774-12.868l5.837,12.868
				H384.309z M438.076,321.802v25.978l-26.688-27.422v37.524h4.93v-25.63l26.689,27.301v-37.751H438.076z M233.268,389.118
				c0.519-1.198,0.779-2.516,0.779-3.954c0-2.974-1.025-5.548-3.074-7.721s-4.453-3.26-7.213-3.26s-5.16,0.863-7.2,2.589
				c-2.041,1.727-3.268,4.142-3.681,7.247h4.164c0.38-1.899,1.194-3.304,2.441-4.212s2.582-1.362,4.003-1.362
				c1.718,0,3.213,0.686,4.486,2.056c1.272,1.372,1.908,2.99,1.908,4.856c0,1.586-0.603,3.039-1.809,4.36l-16.086,17.096h21.564
				v-4.212h-12.02l8.98-9.58C231.83,391.617,232.749,390.316,233.268,389.118z M250.178,374.183h-0.248
				c-3.239,0-6.02,1.499-8.341,4.497c-2.321,2.997-3.482,7.181-3.482,12.549c0,4.84,1.128,8.824,3.383,11.954
				c2.256,3.13,5.085,4.695,8.489,4.695c3.272,0,6.077-1.528,8.415-4.584c2.338-3.056,3.507-7.16,3.507-12.313
				c0-4.972-1.087-9.014-3.26-12.128C256.469,375.74,253.647,374.183,250.178,374.183z M255.345,399.888
				c-1.363,2.288-3.119,3.432-5.267,3.432c-2.23,0-4.049-1.119-5.453-3.357c-1.405-2.238-2.107-5.199-2.107-8.883
				c0-3.716,0.694-6.709,2.082-8.98c1.388-2.271,3.181-3.407,5.378-3.407c2.132,0,3.9,1.148,5.304,3.444s2.107,5.228,2.107,8.795
				C257.39,394.615,256.708,397.6,255.345,399.888z M269.357,379.51h5.378v27.303h4.263v-31.466h-8.204L269.357,379.51z
				 M290.816,379.312h18.371l-17.85,26.832l3.308,2.188l22.222-33.183h-26.05V379.312z"/>
		</g>
	</g>
</g>
<g id="Logo_1_">
	<g id="_x31__2_">
		<g>
			<path fill-rule="evenodd" clip-rule="evenodd" fill="#FCAF17" d="M91.377,162.202c-5.096,0.295-7.008,5.676-7.008,5.676
				c-0.546,1.348-2.915,12.454-0.197,16.873c2.806,4.562,12.137,4.984,15.852,2.879c3.714-2.106,8.414-7.88,8.406-15.592
				C108.421,164.325,96.473,161.907,91.377,162.202z"/>
		</g>
	</g>
	<g id="_x33_">
		<g>
			<path fill-rule="evenodd" clip-rule="evenodd" fill="#1E478E" d="M239.369,232.586c-24.377-9.994-41.247-34.28-40.496-62.188
				c0.446-16.554,7.016-31.5,17.479-42.731c0.472-0.417,0.083-2.263-1.307-1.854c-20.596,7.236-31.006,14.273-34.956,17.371
				c-0.585,0.358-1.549,1.97-0.827,3.254c5.342,8.65,26.492,50.492-4.805,88.605c-0.958,0.977-1.467,3.616-0.342,4.93
				c6.043,7.99,13.131,15.155,21.065,21.29c1.094,0.935,2.802,0.093,3.125-0.367c5.924-8.226,19.509-19.346,41.025-26.589
				C239.844,234.242,240.685,233.147,239.369,232.586z"/>
		</g>
	</g>
	<g id="_x34_">
		<g>
			<path fill-rule="evenodd" clip-rule="evenodd" fill="#349E49" d="M175.246,151.28c-1.328-2.296-3.267-1.582-4.708-0.257
				c-33.031,29.836-16.35,71.422-10.105,84.066c1.188,2.804,3.342,2.759,4.74,1.416C173.919,228.212,199.364,198.493,175.246,151.28
				z"/>
		</g>
	</g>
	<path fill-rule="evenodd" clip-rule="evenodd" fill="#00ADD4" d="M398.796,186.509c-8.046-0.9-18.188,26.109-3.119,39.845
		c6.356,5.706,15.412,8.821,28.662,3.885c12.95-4.825,18.992-14.981,19.665-26.869c-0.325-18.563-22.269-13.528-17.267-24.709
		c5.541-8.998,13.629-1.072,19.426-3.602c13.686-5.974,11.777-36.475-1.919-40.3c-6.361-1.776-23.346,12.681-24.701,16.073
		s7.5,9.984,5.036,21.831C421.303,183.967,408.829,187.594,398.796,186.509z"/>
	<path fill-rule="evenodd" clip-rule="evenodd" fill="#00ADD4" d="M393.607,146.889c-16.368-7.618-16.817-43.484,0.756-47.156
		c6.75-0.409,17.051,1.059,22.303,5.758c5.727,5.125,11.056,11.11,12.23,19.672c1.175,8.562-7.316,18.646-14.795,21.123
		C409.756,148.183,397.226,148.573,393.607,146.889z"/>
	<path fill-rule="evenodd" clip-rule="evenodd" fill="#00ADD4" d="M88.852,155.793c-8.058,0.9-18.215-26.107-3.124-39.842
		c6.366-5.706,15.435-8.82,28.706-3.884c12.97,4.824,19.021,14.98,19.694,26.867c-0.326,18.562-22.303,13.527-17.292,24.708
		c5.549,8.997,15.329-2.972,20.205,6.336s5.277,35.458-2.672,37.563c-6.393,1.692-23.381-12.68-24.738-16.072
		c-1.357-3.392,7.511-9.983,5.044-21.83C111.393,158.335,98.899,154.709,88.852,155.793z"/>
	<path fill-rule="evenodd" clip-rule="evenodd" fill="#00ADD4" d="M83.654,195.411c-16.392,7.617-16.842,43.48,0.757,47.152
		c6.761,0.409,17.077-1.059,22.336-5.757c5.736-5.124,11.072-11.109,12.249-19.67c1.176-8.561-7.328-18.646-14.817-21.122
		C99.828,194.117,87.279,193.726,83.654,195.411z"/>
	<path fill-rule="evenodd" clip-rule="evenodd" fill="#00ADD4" d="M367.211,218.365c21.294-47.786,2.65-87.184,2.5-87.485
		c-1.459-3.422-5.174-1.261-5.174-1.261s-50.783,20.249-35.33,78.502c0.182,0.743,0.997,1.219,1.397,1.001
		c16.059-6.797,25.209,0.081,34.208,9.845C365.078,219.256,366.964,218.914,367.211,218.365z"/>
	<g id="_x32__1_">
		<g>
			<path fill-rule="evenodd" clip-rule="evenodd" fill="#00ADD4" d="M265.933,237.265c-0.248-0.222-1.581-0.418-1.938-0.375
				c-42.36,4.723-61.043,27.668-57.582,32.229c0.59,2.605,39.118,22.905,81.454,11.978c0.802-0.253,1.371-1.688,1.298-2.686
				C288.538,269.809,274.153,241.759,265.933,237.265z"/>
		</g>
	</g>
	<path fill-rule="evenodd" clip-rule="evenodd" fill="#1E478E" d="M438.146,63.853c-8.753,0-34.957,0-43.269,0
		c-1.093,0-2.479,1.174-2.56,2.48c0,5.217,0,18.478,0,23.763c0,1.015,1.168,2.359,2.255,2.199c3.636-0.483,10.988-0.573,16.94,1.561
		c8.252,2.96,15.588,10.352,18.235,14.402c3.886,6.994,7.816,6.149,9.26,6.111c1.888,0.073,2.017-2.19,2.017-2.19s0-36.697,0-45.526
		C441.026,65.32,439.827,63.933,438.146,63.853z"/>
	<path fill-rule="evenodd" clip-rule="evenodd" fill="#1E478E" d="M392.544,237.799c-0.033,7.896,0,29.668,0.011,37.748
		c0.006,1.934,1.471,2.835,2.699,2.905c8.638,0.013,35.531-0.005,43.515-0.011c1.706,0.094,2.226-1.498,2.255-2.284
		c-0.005-8.118-0.021-34.411-0.005-43.927c0.072-2.378-1.523-1.795-1.852-1.553c-5.136,3.982-19.597,17.116-44.253,5.481
		C394.557,235.93,392.629,236.324,392.544,237.799z"/>
	<path fill-rule="evenodd" clip-rule="evenodd" fill="#1E478E" d="M82.59,104.506c-0.033-7.895,0-29.666,0.011-37.745
		c0.005-1.934,1.474-2.834,2.703-2.905c8.651-0.013,35.585,0.004,43.581,0.01c1.709-0.093,2.229,1.499,2.259,2.284
		c-0.005,8.118-0.021,34.409-0.005,43.924c0.072,2.377-1.525,1.795-1.855,1.553c-5.144-3.983-19.626-17.116-44.321-5.482
		C84.605,106.375,82.675,105.982,82.59,104.506z"/>
	<path fill-rule="evenodd" clip-rule="evenodd" fill="#1E478E" d="M128.163,278.458c-8.756,0-34.968,0-43.282,0
		c-1.093,0-2.48-1.175-2.56-2.483c0-5.224,0-18.502,0-23.795c0-1.016,1.168-2.362,2.256-2.202
		c3.637,0.484,10.991,0.574,16.945-1.563c8.255-2.963,15.593-10.365,18.241-14.421c3.888-7.004,7.819-6.157,9.263-6.119
		c1.889-0.073,2.018,2.193,2.018,2.193s0,36.747,0,45.587C131.043,276.989,129.844,278.377,128.163,278.458z"/>
	<path fill-rule="evenodd" clip-rule="evenodd" fill="#FCAF17" d="M359.567,226.481c0.113,14.522-40.421,47.052-47.943,44.98
		c-14.322-0.92-21.657-8.328-24.305-15.883c-2.648-7.554-3.351-25.089,12.346-30.279c11.657-3.854,22.549,5.337,27.384,10.324
		c0.718,0.721,1.668,0.186,1.631-0.93c-1.07-5.247-1.929-14.455,3.803-18.851C340.762,209.494,356.717,213.547,359.567,226.481z"/>
	<path fill-rule="evenodd" clip-rule="evenodd" fill="#FCAF17" d="M394.32,174.423c0,0,1.91,5.382,6.998,5.677
		s17.019-2.123,17.026-9.836c0.008-7.713-4.684-13.488-8.393-15.593c-3.709-2.106-13.026-1.684-15.828,2.878
		C391.41,161.968,393.775,173.076,394.32,174.423z"/>
	<path fill-rule="evenodd" clip-rule="evenodd" fill="#349E49" d="M210.142,63.382c11.733-4.629,56.623-19.084,83.905,17.884
		c2.057,2.426,0.458,4.108-1.194,4.731c-49.766,19.38-76.82-9.732-83.772-18.829C207.674,65.208,209.206,63.703,210.142,63.382z"/>
	<path fill-rule="evenodd" clip-rule="evenodd" fill="#1E478E" d="M326.892,150.048c-7.446-46.598-23.306-72.532-41.427-86.132
		c-0.622-0.672-0.514-2.328,1.266-2.272c33.114,6.828,61.24,28.517,76.834,57.15c0.504,0.765-0.036,2.205-0.879,2.54
		c-9.583,4.598-24.461,13.232-33.854,29.818C327.921,152.035,327.088,151.339,326.892,150.048z"/>
	<path fill-rule="evenodd" clip-rule="evenodd" fill="#1E478E" d="M311.986,127.787c-11.518-12.436-27.837-20.403-46.116-20.896
		c-6.18-0.167-12.183,0.532-17.891,1.986c-0.042-0.056-0.084-0.114-0.126-0.168c-53.828,11.819-81.275,31.758-93.923,52.898
		c-0.73,1.072-2.142,0.225-2.054-0.509c3.53-36.616,24.485-67.923,54.297-85.796c0.89-0.638,2.053-0.174,2.353,0.201
		c35.539,37.172,80.952,18.934,89.478,14.651c1.002-0.505,2.112,0.109,2.407,0.608c2.378,3.56,8.556,14.229,13.983,35.727
		C314.596,128.175,312.629,128.494,311.986,127.787z"/>
</g>
</svg>
