<svg xmlns="http://www.w3.org/2000/svg" xmlns:xlink="http://www.w3.org/1999/xlink" xml:space="preserve" width="1414" height="919" version="1.1" style="shape-rendering:geometricPrecision; text-rendering:geometricPrecision; image-rendering:optimizeQuality; fill-rule:evenodd; clip-rule:evenodd"><rect id="backgroundrect" width="100%" height="100%" x="0" y="0" fill="none" stroke="none"/>
 <defs>
  <style type="text/css">
   <![CDATA[
    .fil4 {fill:#2E2E2D}
    .fil5 {fill:#2E2E2D}
    .fil2 {fill:#FEFEFE}
    .fil3 {fill:#5A9631}
    .fil0 {fill:#64B7E0}
    .fil1 {fill:#D02438}
   ]]>
  </style>
 </defs>
 
<g class="currentLayer" style=""><title>Layer 1</title>
  <metadata id="CorelCorpID_0Corel-Layer"/>
  
   
   
   
   
   
   
   
   
   
   
   
   
   
   
   
   
   
   
   
   
   
   
   
   
   
   
   
   
   
   
   
  
 <g class=""><path class="fil0" d="M906 828c6,4 12,7 19,9 -9,8 -17,15 -27,21 -9,7 -19,13 -30,19 0,1 -1,1 -2,1 -23,13 -48,23 -75,30 -27,7 -55,11 -84,11 -29,0 -58,-4 -85,-11 -26,-7 -51,-17 -75,-30 -1,0 -1,0 -2,-1 -10,-5 -20,-12 -30,-19 -9,-6 -18,-13 -26,-20 7,-3 14,-6 19,-9 14,9 29,13 46,13 21,0 39,-7 50,-13 16,9 32,14 50,14 23,0 42,-8 53,-14 15,9 31,13 48,13 21,0 38,-7 49,-13 16,9 33,13 50,13 23,0 41,-7 52,-14z" id="svg_1"/><path class="fil1" d="M1040 586c0,44 -9,87 -25,125l-7 -9 -14 13c-2,2 -5,4 -7,5 -10,6 -20,9 -31,9 -21,0 -36,-13 -37,-13l-11 -10 -13 9c-14,9 -28,14 -41,14 -22,0 -37,-13 -38,-13l-12 -11 -13 11c-11,8 -23,13 -35,13 -20,0 -36,-13 -36,-13l-12 -10 -13 9c-12,9 -25,13 -38,13 -23,0 -40,-12 -40,-13l-13 -9 -12 10c-11,9 -22,13 -33,13 -21,0 -38,-13 -38,-13l-13 -10 -12 9c-12,10 -25,14 -37,14 -15,0 -27,-6 -33,-10 -3,-1 -4,-3 -4,-3l-13 -11 -10 8c-16,-39 -25,-82 -25,-127 0,-184 149,-333 333,-333 184,0 333,149 333,333zm-352 -240c0,0 73,14 59,100 0,0 23,-31 61,-29 0,0 -24,26 -20,62 4,36 33,87 -22,136 0,0 -58,58 -133,0 0,0 -41,-29 -23,-93 0,0 22,-51 -5,-88 0,0 37,-3 53,30 0,0 2,-27 21,-49 19,-21 9,-69 9,-69zm-1 130l0 0c4,-37 26,-45 26,-45 -16,27 15,78 15,78 19,26 8,50 8,50 -1,-24 -34,-33 -34,-33 -1,8 -23,37 -23,37 -23,42 16,57 16,57 -35,-45 15,-70 15,-70 37,19 13,70 13,70 80,-54 9,-135 9,-135 -22,-35 -9,-73 -9,-73 -16,2 -30,17 -30,17 -23,28 -17,45 -19,60 -1,15 -10,35 -10,35 22,-10 23,-48 23,-48z" id="svg_2"/><path class="fil0" d="M1006 732c-5,11 -12,23 -19,34 -3,1 -6,2 -10,3 -7,2 -14,3 -22,3 -15,0 -32,-4 -49,-19 0,0 -20,19 -52,19 -14,0 -30,-4 -47,-14l0 0c-1,-1 -2,-2 -4,-2 0,0 0,0 0,0l0 0c0,0 -20,16 -48,16 -15,0 -31,-4 -47,-16 0,0 -23,16 -54,16 -15,0 -32,-4 -50,-17 0,0 -22,17 -50,17 -15,0 -31,-4 -46,-17 0,0 -21,17 -51,17 -6,0 -13,0 -21,-3 -3,-1 -7,-2 -10,-4 -7,-11 -13,-22 -19,-33 1,0 1,-1 1,-1 0,0 3,2 8,5 8,6 23,13 43,13 14,0 31,-4 49,-18 0,0 22,18 51,18 14,0 30,-4 45,-18 0,0 23,17 53,17 15,0 33,-4 50,-17 0,0 21,18 49,18 14,0 31,-5 47,-18 0,0 20,18 51,18 15,0 33,-4 52,-18 0,0 21,18 50,18 13,0 27,-3 41,-12 3,-2 6,-4 9,-6 0,0 0,0 0,1z" id="svg_3"/><path class="fil0" d="M963 799c-7,8 -14,15 -21,22 -3,0 -6,-1 -9,-2 -9,-3 -18,-8 -27,-15 0,0 -20,18 -52,18 -14,0 -32,-4 -51,-16l0 0c0,0 -20,16 -48,16 -15,0 -31,-4 -47,-16 0,0 -23,17 -54,17 -15,0 -32,-5 -50,-18 0,0 -22,17 -50,17 -15,0 -31,-4 -46,-17 0,0 -11,9 -28,14 -3,1 -6,2 -9,2 -7,-7 -14,-14 -20,-22 2,0 5,0 7,0 1,0 2,0 3,0 14,0 30,-5 47,-18 0,0 22,18 51,18 14,0 30,-4 45,-18 0,0 23,18 53,18 15,0 33,-5 50,-18 0,0 21,18 49,18 14,0 31,-4 47,-18 0,0 20,18 51,18 15,0 33,-4 52,-18 0,0 19,17 47,18 1,0 2,0 4,0 1,0 3,0 6,0z" id="svg_4"/><path class="fil2" d="M804 755l-1 1c2,0 3,1 4,2l-3 -3z" id="svg_5"/><path class="fil3" d="M38 586l0 333 94 0 193 0 0 -558 -287 0 0 225zm325 -380l0 11 0 123c0,4 -3,6 -6,6l-15 0 0 -21c0,-4 -4,-8 -9,-8l0 0c-5,0 -9,4 -9,8l0 21 -20 0 0 -21c0,-4 -4,-8 -9,-8 -5,0 -9,4 -9,8l0 21 -20 0 0 -21c0,-4 -4,-8 -9,-8 -5,0 -9,4 -9,8l0 21 -20 0 0 -21c0,-4 -4,-8 -9,-8l0 0c-5,0 -9,4 -9,8l0 21 -20 0 0 -21c0,-4 -4,-8 -9,-8l0 0c-4,0 -8,4 -8,8l0 21 -21 0 0 -21c0,-4 -4,-8 -9,-8 -4,0 -8,4 -8,8l0 21 -19 0 0 -21c0,-4 -4,-8 -9,-8 -5,0 -9,4 -9,8l0 21 -21 0 0 -21c0,-4 -4,-8 -9,-8 -5,0 -9,4 -9,8l0 21 -21 0 0 -21c0,-4 -4,-8 -9,-8 -5,0 -9,4 -9,8l0 21 -14 0c-3,0 -6,-2 -6,-6l0 -123 0 -11 0 -3c0,-9 5,-23 25,-28 21,5 26,19 26,28l0 3 0 7c0,4 2,7 6,7l23 0c3,0 6,-3 6,-6l0 -11c0,-9 4,-23 20,-28 16,5 20,19 20,28l0 11c0,3 2,6 6,6l24 0c3,0 6,-3 6,-7l0 -7c0,0 0,-1 0,-1l0 -2c0,-9 4,-23 19,-28 16,5 20,19 20,28l0 2c0,0 0,1 0,1l0 7c0,4 3,7 6,7l24 0c3,0 6,-3 6,-7l0 -7 0 -3c0,-9 4,-23 20,-28 16,5 19,19 19,28l0 3 0 7c0,4 3,7 6,7l24 0c3,0 6,-3 6,-7l0 -7c0,0 0,-1 0,-1l0 -2c0,-9 5,-23 26,-28 20,5 25,19 25,28l0 3zm-246 580c0,4 3,7 7,7l49 0 0 16 -21 0c-4,0 -7,3 -7,7 0,4 3,7 7,7l55 0c4,0 7,-3 7,-7 0,-4 -4,-7 -8,-7l-20 0 0 -16 21 0c4,0 7,-3 7,-7 0,-4 -3,-7 -7,-7l-48 0 0 -16 59 0c4,0 7,-3 7,-7l0 0c0,-3 -3,-6 -7,-6l-4 0 0 -16 24 0c4,0 7,-4 7,-7l0 0c0,-4 -3,-7 -7,-7l-56 0c-4,0 -7,3 -7,7 0,3 3,7 7,7l18 0 0 16 -41 0 0 0 -14 0 0 0 -21 0c-4,0 -7,3 -7,6 0,4 3,7 7,7l21 0 0 16 -21 0c-4,0 -7,3 -7,7zm64 -365c-31,8 -38,37 -38,54l0 27 38 0 39 0 0 -27c0,-17 -7,-46 -39,-54z" id="svg_6"/><path class="fil1" d="M176 0c0,0 38,7 31,52 0,0 11,-16 31,-16 0,0 -12,14 -10,33 2,18 17,45 -12,70 0,0 -30,30 -68,0 0,0 -22,-15 -12,-48 0,0 11,-27 -3,-46 0,0 19,-1 27,16 0,0 2,-14 11,-25 10,-11 5,-36 5,-36zm-1 67l0 0c2,-19 14,-23 14,-23 -8,14 8,40 8,40 9,13 4,26 4,26 -1,-12 -18,-17 -18,-17 -1,4 -12,19 -12,19 -12,22 8,30 8,30 -17,-24 8,-37 8,-37 20,10 7,37 7,37 41,-29 5,-70 5,-70 -11,-18 -5,-38 -5,-38 -8,1 -16,9 -16,9 -12,15 -8,23 -9,31 -1,7 -5,18 -5,18 11,-5 11,-25 11,-25z" id="svg_7"/><path class="fil3" d="M1089 361l0 558 193 0 93 0 0 -333 0 -225 -286 0zm-13 -186c-21,5 -25,19 -25,28l0 3 0 11 0 123c0,4 2,6 6,6l14 0 0 -21c0,-4 4,-8 8,-8 5,0 9,4 9,8l0 21 22 0 0 -21c0,-4 4,-8 9,-8 4,0 8,4 8,8l0 21 22 0 0 -21c0,-4 4,-8 9,-8 4,0 8,4 8,8l0 21 19 0 0 -21c0,-4 4,-8 9,-8 5,0 9,4 9,8l0 21 20 0 0 -21c0,-4 4,-8 9,-8l0 0c5,0 9,4 9,8l0 21 20 0 0 -21c0,-4 4,-8 9,-8l0 0c5,0 9,4 9,8l0 21 20 0 0 -21c0,-4 4,-8 9,-8 4,0 8,4 8,8l0 21 21 0 0 -21c0,-4 4,-8 8,-8 5,0 9,4 9,8l0 21 20 0 0 -21c0,-4 4,-8 9,-8l0 0c5,0 9,4 9,8l0 21 15 0c4,0 7,-2 7,-6l0 -123 0 -11 0 -3c0,-9 -5,-23 -26,-28 -20,5 -25,19 -25,28l0 2c0,0 0,1 0,1l0 7c0,4 -3,7 -6,7l-24 0c-3,0 -6,-3 -6,-7l0 -7 0 -3c0,-9 -4,-23 -20,-28 -15,5 -19,19 -19,28l0 3 0 7c0,4 -3,7 -6,7l-24 0c-4,0 -6,-3 -6,-7l0 -7c0,0 0,-1 0,-1l0 -2c0,-9 -4,-23 -20,-28 -16,5 -20,19 -20,28l0 2c0,0 0,1 0,1l0 7c0,4 -2,7 -6,7l-24 0c-3,0 -6,-3 -6,-6l0 -11c0,-9 -4,-23 -20,-28 -15,5 -19,19 -19,28l0 11c0,3 -3,6 -6,6l-24 0c-3,0 -6,-3 -6,-7l0 -7 0 -3c0,-9 -5,-23 -25,-28zm220 611c0,4 -3,7 -7,7l-48 0 0 16 20 0c4,0 7,3 7,7 0,4 -3,7 -7,7l-55 0c-4,0 -7,-3 -7,-7 1,-4 4,-7 8,-7l20 0 0 -16 -21 0c-3,0 -7,-3 -7,-7 0,-4 4,-7 7,-7l49 0 0 -16 -60 0c-4,0 -7,-3 -7,-7l0 0c0,-3 3,-6 7,-6l4 0 0 -16 -24 0c-4,0 -7,-4 -7,-7l0 0c0,-4 3,-7 7,-7l57 0c3,0 7,3 7,7 0,3 -4,7 -7,7l-19 0 0 16 42 0 0 0 13 0 0 0 21 0c4,0 7,3 7,6 0,4 -3,7 -7,7l-21 0 0 16 21 0c4,0 7,3 7,7zm-64 -365c-31,8 -39,37 -39,54l0 27 39 0 39 0 0 -27c0,-17 -8,-46 -39,-54z" id="svg_8"/><path class="fil1" d="M1222 0c0,0 38,7 31,52 0,0 12,-16 31,-16 0,0 -12,14 -10,33 2,18 17,45 -11,70 0,0 -30,30 -69,0 0,0 -21,-15 -12,-48 0,0 11,-27 -2,-46 0,0 18,-1 27,16 0,0 1,-14 11,-25 9,-11 4,-36 4,-36zm0 67l0 0c2,-19 13,-23 13,-23 -8,14 8,40 8,40 10,13 4,26 4,26 0,-12 -18,-17 -18,-17 0,4 -11,19 -11,19 -12,22 8,30 8,30 -18,-24 8,-37 8,-37 19,10 7,37 7,37 41,-29 4,-70 4,-70 -11,-18 -5,-38 -5,-38 -8,1 -15,9 -15,9 -12,15 -9,23 -10,31 0,7 -5,18 -5,18 11,-5 12,-25 12,-25z" id="svg_9"/></g></g></svg>