<?xml version="1.0" encoding="UTF-8"?>
<!DOCTYPE svg PUBLIC "-//W3C//DTD SVG 1.1//EN" "http://www.w3.org/Graphics/SVG/1.1/DTD/svg11.dtd">
<!-- Creator: CorelDRAW X6 -->
<svg xmlns="http://www.w3.org/2000/svg" xml:space="preserve" width="54.5638mm" height="52.0322mm" version="1.1" style="shape-rendering:geometricPrecision; text-rendering:geometricPrecision; image-rendering:optimizeQuality; fill-rule:evenodd; clip-rule:evenodd"
viewBox="0 0 1414 1348"
 xmlns:xlink="http://www.w3.org/1999/xlink">
 <defs>
  <style type="text/css">
   <![CDATA[
    .fil4 {fill:#2E2E2D}
    .fil5 {fill:#2E2E2D}
    .fil2 {fill:#FEFEFE}
    .fil3 {fill:#5A9631}
    .fil0 {fill:#64B7E0}
    .fil1 {fill:#D02438}
   ]]>
  </style>
 </defs>
 <g id="Layer_x0020_1">
  <metadata id="CorelCorpID_0Corel-Layer"/>
  <g id="_741617120">
   <path class="fil0" d="M906 828c6,4 12,7 19,9 -9,8 -17,15 -27,21 -9,7 -19,13 -30,19 0,1 -1,1 -2,1 -23,13 -48,23 -75,30 -27,7 -55,11 -84,11 -29,0 -58,-4 -85,-11 -26,-7 -51,-17 -75,-30 -1,0 -1,0 -2,-1 -10,-5 -20,-12 -30,-19 -9,-6 -18,-13 -26,-20 7,-3 14,-6 19,-9 14,9 29,13 46,13 21,0 39,-7 50,-13 16,9 32,14 50,14 23,0 42,-8 53,-14 15,9 31,13 48,13 21,0 38,-7 49,-13 16,9 33,13 50,13 23,0 41,-7 52,-14z"/>
   <path class="fil1" d="M1040 586c0,44 -9,87 -25,125l-7 -9 -14 13c-2,2 -5,4 -7,5 -10,6 -20,9 -31,9 -21,0 -36,-13 -37,-13l-11 -10 -13 9c-14,9 -28,14 -41,14 -22,0 -37,-13 -38,-13l-12 -11 -13 11c-11,8 -23,13 -35,13 -20,0 -36,-13 -36,-13l-12 -10 -13 9c-12,9 -25,13 -38,13 -23,0 -40,-12 -40,-13l-13 -9 -12 10c-11,9 -22,13 -33,13 -21,0 -38,-13 -38,-13l-13 -10 -12 9c-12,10 -25,14 -37,14 -15,0 -27,-6 -33,-10 -3,-1 -4,-3 -4,-3l-13 -11 -10 8c-16,-39 -25,-82 -25,-127 0,-184 149,-333 333,-333 184,0 333,149 333,333zm-352 -240c0,0 73,14 59,100 0,0 23,-31 61,-29 0,0 -24,26 -20,62 4,36 33,87 -22,136 0,0 -58,58 -133,0 0,0 -41,-29 -23,-93 0,0 22,-51 -5,-88 0,0 37,-3 53,30 0,0 2,-27 21,-49 19,-21 9,-69 9,-69zm-1 130l0 0c4,-37 26,-45 26,-45 -16,27 15,78 15,78 19,26 8,50 8,50 -1,-24 -34,-33 -34,-33 -1,8 -23,37 -23,37 -23,42 16,57 16,57 -35,-45 15,-70 15,-70 37,19 13,70 13,70 80,-54 9,-135 9,-135 -22,-35 -9,-73 -9,-73 -16,2 -30,17 -30,17 -23,28 -17,45 -19,60 -1,15 -10,35 -10,35 22,-10 23,-48 23,-48z"/>
   <path class="fil0" d="M1006 732c-5,11 -12,23 -19,34 -3,1 -6,2 -10,3 -7,2 -14,3 -22,3 -15,0 -32,-4 -49,-19 0,0 -20,19 -52,19 -14,0 -30,-4 -47,-14l0 0c-1,-1 -2,-2 -4,-2 0,0 0,0 0,0l0 0c0,0 -20,16 -48,16 -15,0 -31,-4 -47,-16 0,0 -23,16 -54,16 -15,0 -32,-4 -50,-17 0,0 -22,17 -50,17 -15,0 -31,-4 -46,-17 0,0 -21,17 -51,17 -6,0 -13,0 -21,-3 -3,-1 -7,-2 -10,-4 -7,-11 -13,-22 -19,-33 1,0 1,-1 1,-1 0,0 3,2 8,5 8,6 23,13 43,13 14,0 31,-4 49,-18 0,0 22,18 51,18 14,0 30,-4 45,-18 0,0 23,17 53,17 15,0 33,-4 50,-17 0,0 21,18 49,18 14,0 31,-5 47,-18 0,0 20,18 51,18 15,0 33,-4 52,-18 0,0 21,18 50,18 13,0 27,-3 41,-12 3,-2 6,-4 9,-6 0,0 0,0 0,1z"/>
   <path class="fil0" d="M963 799c-7,8 -14,15 -21,22 -3,0 -6,-1 -9,-2 -9,-3 -18,-8 -27,-15 0,0 -20,18 -52,18 -14,0 -32,-4 -51,-16l0 0c0,0 -20,16 -48,16 -15,0 -31,-4 -47,-16 0,0 -23,17 -54,17 -15,0 -32,-5 -50,-18 0,0 -22,17 -50,17 -15,0 -31,-4 -46,-17 0,0 -11,9 -28,14 -3,1 -6,2 -9,2 -7,-7 -14,-14 -20,-22 2,0 5,0 7,0 1,0 2,0 3,0 14,0 30,-5 47,-18 0,0 22,18 51,18 14,0 30,-4 45,-18 0,0 23,18 53,18 15,0 33,-5 50,-18 0,0 21,18 49,18 14,0 31,-4 47,-18 0,0 20,18 51,18 15,0 33,-4 52,-18 0,0 19,17 47,18 1,0 2,0 4,0 1,0 3,0 6,0z"/>
   <path class="fil2" d="M804 755l-1 1c2,0 3,1 4,2l-3 -3z"/>
   <path class="fil3" d="M38 586l0 333 94 0 193 0 0 -558 -287 0 0 225zm325 -380l0 11 0 123c0,4 -3,6 -6,6l-15 0 0 -21c0,-4 -4,-8 -9,-8l0 0c-5,0 -9,4 -9,8l0 21 -20 0 0 -21c0,-4 -4,-8 -9,-8 -5,0 -9,4 -9,8l0 21 -20 0 0 -21c0,-4 -4,-8 -9,-8 -5,0 -9,4 -9,8l0 21 -20 0 0 -21c0,-4 -4,-8 -9,-8l0 0c-5,0 -9,4 -9,8l0 21 -20 0 0 -21c0,-4 -4,-8 -9,-8l0 0c-4,0 -8,4 -8,8l0 21 -21 0 0 -21c0,-4 -4,-8 -9,-8 -4,0 -8,4 -8,8l0 21 -19 0 0 -21c0,-4 -4,-8 -9,-8 -5,0 -9,4 -9,8l0 21 -21 0 0 -21c0,-4 -4,-8 -9,-8 -5,0 -9,4 -9,8l0 21 -21 0 0 -21c0,-4 -4,-8 -9,-8 -5,0 -9,4 -9,8l0 21 -14 0c-3,0 -6,-2 -6,-6l0 -123 0 -11 0 -3c0,-9 5,-23 25,-28 21,5 26,19 26,28l0 3 0 7c0,4 2,7 6,7l23 0c3,0 6,-3 6,-6l0 -11c0,-9 4,-23 20,-28 16,5 20,19 20,28l0 11c0,3 2,6 6,6l24 0c3,0 6,-3 6,-7l0 -7c0,0 0,-1 0,-1l0 -2c0,-9 4,-23 19,-28 16,5 20,19 20,28l0 2c0,0 0,1 0,1l0 7c0,4 3,7 6,7l24 0c3,0 6,-3 6,-7l0 -7 0 -3c0,-9 4,-23 20,-28 16,5 19,19 19,28l0 3 0 7c0,4 3,7 6,7l24 0c3,0 6,-3 6,-7l0 -7c0,0 0,-1 0,-1l0 -2c0,-9 5,-23 26,-28 20,5 25,19 25,28l0 3zm-246 580c0,4 3,7 7,7l49 0 0 16 -21 0c-4,0 -7,3 -7,7 0,4 3,7 7,7l55 0c4,0 7,-3 7,-7 0,-4 -4,-7 -8,-7l-20 0 0 -16 21 0c4,0 7,-3 7,-7 0,-4 -3,-7 -7,-7l-48 0 0 -16 59 0c4,0 7,-3 7,-7l0 0c0,-3 -3,-6 -7,-6l-4 0 0 -16 24 0c4,0 7,-4 7,-7l0 0c0,-4 -3,-7 -7,-7l-56 0c-4,0 -7,3 -7,7 0,3 3,7 7,7l18 0 0 16 -41 0 0 0 -14 0 0 0 -21 0c-4,0 -7,3 -7,6 0,4 3,7 7,7l21 0 0 16 -21 0c-4,0 -7,3 -7,7zm64 -365c-31,8 -38,37 -38,54l0 27 38 0 39 0 0 -27c0,-17 -7,-46 -39,-54z"/>
   <path class="fil1" d="M176 0c0,0 38,7 31,52 0,0 11,-16 31,-16 0,0 -12,14 -10,33 2,18 17,45 -12,70 0,0 -30,30 -68,0 0,0 -22,-15 -12,-48 0,0 11,-27 -3,-46 0,0 19,-1 27,16 0,0 2,-14 11,-25 10,-11 5,-36 5,-36zm-1 67l0 0c2,-19 14,-23 14,-23 -8,14 8,40 8,40 9,13 4,26 4,26 -1,-12 -18,-17 -18,-17 -1,4 -12,19 -12,19 -12,22 8,30 8,30 -17,-24 8,-37 8,-37 20,10 7,37 7,37 41,-29 5,-70 5,-70 -11,-18 -5,-38 -5,-38 -8,1 -16,9 -16,9 -12,15 -8,23 -9,31 -1,7 -5,18 -5,18 11,-5 11,-25 11,-25z"/>
   <path class="fil3" d="M1089 361l0 558 193 0 93 0 0 -333 0 -225 -286 0zm-13 -186c-21,5 -25,19 -25,28l0 3 0 11 0 123c0,4 2,6 6,6l14 0 0 -21c0,-4 4,-8 8,-8 5,0 9,4 9,8l0 21 22 0 0 -21c0,-4 4,-8 9,-8 4,0 8,4 8,8l0 21 22 0 0 -21c0,-4 4,-8 9,-8 4,0 8,4 8,8l0 21 19 0 0 -21c0,-4 4,-8 9,-8 5,0 9,4 9,8l0 21 20 0 0 -21c0,-4 4,-8 9,-8l0 0c5,0 9,4 9,8l0 21 20 0 0 -21c0,-4 4,-8 9,-8l0 0c5,0 9,4 9,8l0 21 20 0 0 -21c0,-4 4,-8 9,-8 4,0 8,4 8,8l0 21 21 0 0 -21c0,-4 4,-8 8,-8 5,0 9,4 9,8l0 21 20 0 0 -21c0,-4 4,-8 9,-8l0 0c5,0 9,4 9,8l0 21 15 0c4,0 7,-2 7,-6l0 -123 0 -11 0 -3c0,-9 -5,-23 -26,-28 -20,5 -25,19 -25,28l0 2c0,0 0,1 0,1l0 7c0,4 -3,7 -6,7l-24 0c-3,0 -6,-3 -6,-7l0 -7 0 -3c0,-9 -4,-23 -20,-28 -15,5 -19,19 -19,28l0 3 0 7c0,4 -3,7 -6,7l-24 0c-4,0 -6,-3 -6,-7l0 -7c0,0 0,-1 0,-1l0 -2c0,-9 -4,-23 -20,-28 -16,5 -20,19 -20,28l0 2c0,0 0,1 0,1l0 7c0,4 -2,7 -6,7l-24 0c-3,0 -6,-3 -6,-6l0 -11c0,-9 -4,-23 -20,-28 -15,5 -19,19 -19,28l0 11c0,3 -3,6 -6,6l-24 0c-3,0 -6,-3 -6,-7l0 -7 0 -3c0,-9 -5,-23 -25,-28zm220 611c0,4 -3,7 -7,7l-48 0 0 16 20 0c4,0 7,3 7,7 0,4 -3,7 -7,7l-55 0c-4,0 -7,-3 -7,-7 1,-4 4,-7 8,-7l20 0 0 -16 -21 0c-3,0 -7,-3 -7,-7 0,-4 4,-7 7,-7l49 0 0 -16 -60 0c-4,0 -7,-3 -7,-7l0 0c0,-3 3,-6 7,-6l4 0 0 -16 -24 0c-4,0 -7,-4 -7,-7l0 0c0,-4 3,-7 7,-7l57 0c3,0 7,3 7,7 0,3 -4,7 -7,7l-19 0 0 16 42 0 0 0 13 0 0 0 21 0c4,0 7,3 7,6 0,4 -3,7 -7,7l-21 0 0 16 21 0c4,0 7,3 7,7zm-64 -365c-31,8 -39,37 -39,54l0 27 39 0 39 0 0 -27c0,-17 -8,-46 -39,-54z"/>
   <path class="fil1" d="M1222 0c0,0 38,7 31,52 0,0 12,-16 31,-16 0,0 -12,14 -10,33 2,18 17,45 -11,70 0,0 -30,30 -69,0 0,0 -21,-15 -12,-48 0,0 11,-27 -2,-46 0,0 18,-1 27,16 0,0 1,-14 11,-25 9,-11 4,-36 4,-36zm0 67l0 0c2,-19 13,-23 13,-23 -8,14 8,40 8,40 10,13 4,26 4,26 0,-12 -18,-17 -18,-17 0,4 -11,19 -11,19 -12,22 8,30 8,30 -18,-24 8,-37 8,-37 19,10 7,37 7,37 41,-29 4,-70 4,-70 -11,-18 -5,-38 -5,-38 -8,1 -15,9 -15,9 -12,15 -9,23 -10,31 0,7 -5,18 -5,18 11,-5 12,-25 12,-25z"/>
   <path class="fil4" d="M23 1332l10 0 45 -128 29 0 45 128 10 0 0 13 -61 0 0 -13 16 0 -10 -30 -46 0 -10 30 16 0 0 13 -44 0 0 -13zm42 -44l38 0 -19 -59 -1 0 -18 59z"/>
   <polygon class="fil4" points="178,1331 253,1219 206,1219 206,1242 181,1242 181,1204 293,1204 293,1219 218,1330 270,1330 270,1303 295,1303 295,1345 178,1345 "/>
   <polygon class="fil4" points="314,1332 328,1332 328,1218 314,1218 314,1204 429,1204 429,1242 404,1242 404,1219 363,1219 363,1264 389,1264 389,1252 405,1252 405,1291 389,1291 389,1279 363,1279 363,1330 406,1330 406,1303 431,1303 431,1345 314,1345 "/>
   <path class="fil4" d="M450 1332l15 0 0 -114 -15 0 0 -14 83 0c6,0 12,1 17,2 6,1 11,3 15,6 4,3 7,7 9,11 2,5 3,10 3,17 0,5 -1,9 -2,13 -2,4 -4,8 -7,11 -3,3 -6,5 -10,7 -4,2 -8,4 -13,5l27 44c3,5 6,8 9,9 2,2 6,3 11,3l0 0 0 13 -20 0c-5,0 -9,0 -13,-1 -3,0 -7,-2 -10,-3 -2,-2 -5,-4 -7,-6 -2,-3 -4,-6 -6,-9l-22 -43 -14 0 0 49 14 0 0 13 -64 0 0 -13zm50 -63l19 0c7,0 13,-2 16,-5 4,-3 6,-8 6,-14l0 -12c0,-7 -2,-11 -6,-14 -3,-3 -9,-5 -16,-5l-19 0 0 50z"/>
   <path class="fil4" d="M608 1332l14 0 0 -114 -14 0 0 -14 75 0c8,0 16,1 22,2 6,2 11,5 15,7 4,3 7,7 9,11 2,4 3,8 3,13 0,5 -1,9 -3,13 -1,4 -4,7 -7,10 -2,2 -6,5 -10,6 -4,2 -7,3 -12,4l0 1c5,1 9,2 13,4 5,1 9,3 13,6 3,3 6,7 9,11 2,4 3,9 3,14 0,13 -4,22 -13,29 -8,7 -21,10 -38,10l-79 0 0 -13zm49 -1l22 0c7,0 13,-2 17,-6 4,-3 6,-8 6,-15l0 -10c0,-6 -2,-11 -6,-15 -4,-3 -10,-5 -17,-5l-22 0 0 51zm0 -65l18 0c14,0 21,-7 21,-19l0 -9c0,-13 -7,-19 -21,-19l-18 0 0 47z"/>
   <path class="fil4" d="M750 1332l10 0 45 -128 30 0 44 128 11 0 0 13 -62 0 0 -13 16 0 -10 -30 -46 0 -10 30 17 0 0 13 -45 0 0 -13zm42 -44l39 0 -19 -59 -1 0 -19 59z"/>
   <polygon class="fil4" points="905,1332 919,1332 919,1218 905,1218 905,1204 968,1204 968,1218 954,1218 954,1332 968,1332 968,1345 905,1345 "/>
   <path class="fil4" d="M1017 1348c-11,0 -20,-2 -25,-7 -6,-4 -9,-10 -9,-17 0,-4 2,-8 5,-11 2,-3 7,-5 12,-5 4,0 8,2 11,4 3,3 4,6 4,10 0,3 0,5 -1,7 -1,2 -2,3 -4,4l0 1c1,1 2,1 3,1 2,0 3,0 4,0 5,0 8,-2 11,-5 3,-3 4,-8 4,-15l0 -97 -20 0 0 -14 69 0 0 14 -14 0 0 85c0,7 -1,13 -3,18 -2,6 -4,10 -8,14 -4,4 -9,8 -16,10 -6,2 -14,3 -23,3z"/>
   <path class="fil4" d="M1086 1332l10 0 45 -128 29 0 45 128 10 0 0 13 -62 0 0 -13 17 0 -10 -30 -46 0 -10 30 16 0 0 13 -44 0 0 -13zm42 -44l38 0 -19 -59 -1 0 -18 59z"/>
   <polygon class="fil4" points="1241,1332 1255,1332 1255,1218 1241,1218 1241,1204 1298,1204 1356,1304 1357,1304 1357,1218 1343,1218 1343,1204 1388,1204 1388,1218 1374,1218 1374,1345 1342,1345 1273,1228 1271,1228 1271,1332 1286,1332 1286,1345 1241,1345 "/>
   <polygon class="fil4" points="38,1124 50,1124 50,1029 38,1029 38,1018 91,1018 91,1029 79,1029 79,1124 91,1124 91,1135 38,1135 "/>
   <path class="fil4" d="M161 1125c4,0 7,-1 10,-2 3,-1 5,-2 8,-5 2,-2 4,-5 5,-8 1,-4 2,-8 2,-13l0 -40c0,-6 -1,-10 -2,-13 -1,-4 -3,-7 -5,-9 -3,-2 -5,-4 -8,-5 -3,-1 -6,-2 -10,-2 -3,0 -6,1 -9,2 -3,1 -6,3 -8,5 -2,2 -4,5 -5,9 -2,3 -3,7 -3,13l0 40c0,5 1,9 3,13 1,3 3,6 5,8 2,3 5,4 8,5 3,1 6,2 9,2zm0 13c-8,0 -15,-2 -22,-4 -7,-3 -13,-7 -18,-12 -5,-5 -9,-12 -12,-19 -3,-8 -5,-17 -5,-26 0,-10 2,-19 5,-26 3,-8 7,-14 12,-19 5,-6 11,-10 18,-12 7,-3 14,-4 22,-4 8,0 16,1 23,4 7,2 13,6 18,12 5,5 9,11 12,19 3,7 4,16 4,26 0,9 -1,18 -4,26 -3,7 -7,14 -12,19 -5,5 -11,9 -18,12 -7,2 -15,4 -23,4z"/>
   <polygon class="fil4" points="231,1124 243,1124 243,1029 231,1029 231,1018 284,1018 284,1029 272,1029 272,1124 284,1124 284,1135 231,1135 "/>
   <path class="fil4" d="M336 1116l33 -32c5,-5 9,-11 13,-16 3,-5 5,-11 5,-17l0 -5c0,-7 -2,-11 -5,-15 -4,-3 -8,-5 -14,-5 -3,0 -6,1 -8,2l0 1c1,1 3,2 4,4 1,2 2,4 2,6 0,4 -2,7 -4,10 -2,3 -6,4 -10,4 -5,0 -8,-1 -11,-4 -2,-2 -4,-6 -4,-11 0,-3 1,-6 3,-8 1,-3 4,-5 7,-8 3,-2 7,-3 11,-4 5,-2 10,-2 16,-2 14,0 25,3 32,8 8,6 12,14 12,24 0,5 -1,9 -3,13 -2,4 -4,8 -7,11 -3,3 -6,6 -10,9 -4,3 -8,6 -12,9l-30 22 0 1 52 0 0 -15 13 0 0 37 -85 0 0 -19z"/>
   <path class="fil4" d="M483 1125c4,0 6,-1 8,-2 2,-2 4,-4 5,-7 1,-3 1,-7 1,-12 0,-4 0,-9 0,-15l0 -24c0,-6 0,-11 0,-16 0,-4 0,-8 -1,-11 -1,-3 -3,-6 -5,-7 -2,-2 -4,-3 -8,-3 -3,0 -6,1 -8,3 -2,1 -3,4 -4,7 -1,3 -2,7 -2,11 0,5 0,10 0,16l0 24c0,6 0,11 0,15 0,5 1,9 2,12 1,3 2,5 4,7 2,1 5,2 8,2zm0 13c-15,0 -26,-6 -34,-16 -7,-11 -11,-26 -11,-45 0,-20 4,-35 11,-45 8,-11 19,-16 34,-16 15,0 27,5 34,16 8,10 11,25 11,45 0,19 -3,34 -11,45 -7,10 -19,16 -34,16z"/>
   <polygon class="fil4" points="547,1124 573,1124 573,1038 545,1047 541,1038 581,1018 602,1018 602,1124 627,1124 627,1135 547,1135 "/>
   <path class="fil4" d="M648 1129c15,-4 26,-10 34,-18 7,-9 12,-19 13,-32l-1 0c-1,2 -2,4 -3,6 -2,2 -3,4 -6,5 -2,2 -4,3 -7,4 -3,1 -6,1 -10,1 -11,0 -19,-3 -24,-9 -6,-7 -8,-16 -8,-28 0,-6 1,-12 2,-17 2,-5 5,-10 9,-13 4,-4 8,-7 14,-9 5,-2 12,-3 19,-3 7,0 13,1 18,3 6,2 10,5 14,10 4,4 7,9 9,14 2,6 3,13 3,20 0,12 -2,23 -5,32 -4,9 -9,17 -16,23 -6,6 -14,11 -23,14 -9,4 -19,6 -29,7l-3 -10zm32 -51c3,0 5,0 7,-1 2,-1 4,-3 5,-5 1,-2 1,-4 1,-7 1,-3 1,-6 1,-10l0 -4c0,-3 0,-6 -1,-9 0,-3 0,-5 -1,-7 -1,-2 -3,-4 -5,-5 -2,-1 -4,-2 -7,-2 -3,0 -6,1 -7,2 -2,1 -4,3 -5,5 -1,2 -1,4 -2,7 0,3 0,6 0,9l0 4c0,4 0,7 0,10 1,3 1,5 2,7 1,2 3,4 5,5 1,1 4,1 7,1z"/>
   <path class="fil4" d="M877 1124l12 0 0 -95 -12 0 0 -11 62 0c7,0 14,1 19,2 5,1 9,3 12,6 4,2 6,5 8,9 1,3 2,7 2,10 0,5 -1,8 -2,11 -2,3 -3,6 -6,8 -2,2 -5,4 -8,6 -4,1 -7,2 -10,3l0 1c3,0 7,1 11,3 3,1 7,3 10,5 3,2 5,5 7,9 2,3 3,7 3,12 0,10 -4,18 -11,24 -7,6 -17,8 -31,8l-66 0 0 -11zm41 -1l18 0c6,0 11,-1 14,-4 3,-3 5,-7 5,-13l0 -8c0,-5 -2,-9 -5,-12 -3,-3 -8,-5 -14,-5l-18 0 0 42zm0 -54l15 0c11,0 17,-5 17,-16l0 -7c0,-11 -6,-16 -17,-16l-15 0 0 39z"/>
   <path class="fil4" d="M995 1124l9 0 37 -106 24 0 38 106 8 0 0 11 -51 0 0 -11 13 0 -8 -24 -38 0 -8 24 13 0 0 11 -37 0 0 -11zm35 -36l32 0 -16 -49 0 0 -16 49z"/>
   <polygon class="fil4" points="1124,1124 1136,1124 1136,1029 1124,1029 1124,1018 1177,1018 1177,1029 1165,1029 1165,1076 1166,1076 1186,1055 1210,1029 1198,1029 1198,1018 1240,1018 1240,1029 1228,1029 1198,1060 1238,1124 1247,1124 1247,1135 1193,1135 1193,1124 1204,1124 1178,1079 1165,1092 1165,1124 1177,1124 1177,1135 1124,1135 "/>
   <path class="fil4" d="M1321 1138c-10,0 -18,-1 -24,-3 -7,-2 -12,-5 -16,-9 -4,-3 -7,-8 -9,-14 -2,-6 -3,-13 -3,-22l0 -61 -12 0 0 -11 53 0 0 11 -12 0 0 62c0,5 0,10 1,14 1,5 2,8 4,11 2,3 5,5 8,6 4,1 8,2 13,2 10,0 17,-3 21,-8 4,-5 6,-13 6,-25l0 -62 -12 0 0 -11 38 0 0 11 -12 0 0 62c0,15 -4,27 -11,35 -7,8 -18,12 -33,12z"/>
   <circle class="fil5" cx="804" cy="1078" r="15"/>
  </g>
 </g>
</svg>
