<?xml version="1.0" encoding="UTF-8"?>
<!DOCTYPE svg PUBLIC "-//W3C//DTD SVG 1.1//EN" "http://www.w3.org/Graphics/SVG/1.1/DTD/svg11.dtd">
<!-- Creator: CorelDRAW X6 -->
<svg xmlns="http://www.w3.org/2000/svg" xml:space="preserve" width="93.9268mm" height="19.0567mm" version="1.1" style="shape-rendering:geometricPrecision; text-rendering:geometricPrecision; image-rendering:optimizeQuality; fill-rule:evenodd; clip-rule:evenodd"
viewBox="0 0 21735 4410"
 xmlns:xlink="http://www.w3.org/1999/xlink">
 <defs>
  <style type="text/css">
   <![CDATA[
    .fil4 {fill:#2E2E2D}
    .fil5 {fill:#2E2E2D}
    .fil2 {fill:#FEFEFE}
    .fil3 {fill:#5A9631}
    .fil0 {fill:#64B7E0}
    .fil1 {fill:#D02438}
   ]]>
  </style>
 </defs>
 <g id="Layer_x0020_1">
  <metadata id="CorelCorpID_0Corel-Layer"/>
  <g id="_794164848">
   <path class="fil0" d="M4342 3969c29,19 60,34 91,44 -41,36 -83,70 -128,101 -45,33 -93,63 -143,90 -3,2 -6,4 -10,6 -113,61 -233,110 -360,143 -130,34 -266,52 -405,52 -140,0 -275,-18 -404,-52 -127,-33 -248,-82 -361,-143 -3,-2 -6,-4 -9,-6 -49,-26 -98,-57 -143,-90 -45,-31 -87,-64 -128,-100 36,-11 67,-26 91,-39 67,41 141,61 220,61 102,0 188,-34 242,-62 75,43 155,65 241,65 108,0 198,-35 254,-64 71,41 148,61 227,61 101,0 184,-33 235,-61 80,40 161,61 243,61 108,0 193,-35 247,-67z"/>
   <path class="fil1" d="M4984 2809c0,212 -42,415 -118,601l-36 -44 -67 63c-10,8 -21,15 -34,23 -47,29 -96,43 -145,43 -101,0 -177,-62 -177,-62l-57 -50 -62 43c-65,46 -130,69 -195,69 -106,0 -179,-62 -180,-62l-60 -54 -63 50c-53,43 -107,63 -165,63 -99,0 -174,-61 -175,-61l-57 -47 -61 44c-57,42 -119,63 -183,63 -110,0 -193,-61 -193,-62l-62 -48 -59 51c-49,42 -101,62 -158,62 -100,0 -181,-64 -182,-64l-58 -46 -60 45c-58,44 -118,66 -179,66 -70,0 -127,-29 -155,-47 -15,-9 -23,-15 -23,-15l-60 -54 -48 39c-78,-187 -121,-393 -121,-609 0,-882 715,-1596 1596,-1596 882,0 1597,714 1597,1596zm-1688 -1150c0,0 352,68 287,479 0,0 108,-148 290,-141 0,0 -116,125 -96,299 19,174 159,417 -105,653 0,0 -280,277 -637,0 0,0 -200,-141 -111,-446 0,0 103,-247 -23,-425 0,0 174,-10 252,144 0,0 11,-130 100,-231 90,-104 43,-332 43,-332zm-4 624l0 0c19,-181 123,-219 123,-219 -72,130 75,375 75,375 89,124 36,238 36,238 -1,-111 -163,-156 -163,-156 -5,36 -109,178 -109,178 -112,201 75,274 75,274 -165,-218 74,-338 74,-338 180,93 64,338 64,338 380,-262 41,-646 41,-646 -103,-169 -45,-352 -45,-352 -76,11 -143,82 -143,82 -111,136 -80,215 -87,286 -8,71 -49,171 -49,171 105,-49 108,-231 108,-231z"/>
   <path class="fil0" d="M4823 3506c-27,57 -58,112 -92,164 -15,6 -31,12 -49,17 -31,9 -66,15 -103,15 -72,0 -154,-22 -236,-91 0,0 -97,89 -248,89 -67,0 -144,-18 -229,-68l0 0c-5,-3 -10,-6 -15,-9 -1,-1 -1,-1 -2,-1l0 0c0,0 -97,78 -232,78 -68,0 -145,-19 -225,-78 0,0 -110,80 -255,80 -74,0 -158,-20 -240,-83 0,0 -107,81 -244,81 -68,0 -144,-20 -218,-81 0,0 -103,83 -243,83 -32,0 -66,-4 -101,-15 -16,-5 -33,-12 -49,-20 -33,-51 -63,-104 -90,-159 2,-1 4,-2 5,-4 0,0 12,11 35,25 40,26 114,62 206,62 71,0 152,-22 237,-87 0,0 105,86 242,86 69,0 145,-22 220,-86 0,0 107,83 252,83 73,0 156,-21 240,-83 0,0 99,84 236,84 68,0 145,-21 224,-84 0,0 97,87 244,87 73,0 159,-22 251,-87 0,0 99,87 240,87 59,0 125,-15 195,-58 14,-8 28,-18 42,-29 0,0 1,1 2,2z"/>
   <path class="fil0" d="M4613 3831c-31,37 -63,72 -97,106 -14,-3 -29,-6 -43,-11 -43,-14 -86,-37 -130,-74 0,0 -97,89 -248,89 -71,-1 -154,-20 -246,-79l0 1c0,0 -97,78 -232,78 -68,0 -145,-20 -225,-78 0,0 -110,80 -256,80 -74,0 -157,-20 -239,-83 0,0 -107,81 -244,81 -68,0 -144,-20 -218,-81 0,0 -52,43 -133,66 -14,5 -28,8 -43,11 -35,-34 -67,-70 -98,-107 11,1 23,2 35,2 4,0 8,0 12,0 69,-2 146,-25 227,-87 0,0 105,86 242,86 69,0 145,-21 220,-86 0,0 107,83 252,83 73,0 156,-21 240,-83 0,0 99,84 236,84 68,0 145,-21 224,-84 0,0 97,87 244,87 73,0 159,-22 251,-87 0,0 90,80 223,86 6,1 12,1 18,1 9,0 19,0 28,-1z"/>
   <path class="fil2" d="M3853 3621l-2 2c5,3 10,6 15,9l-13 -11z"/>
   <path class="fil3" d="M184 2809l0 1596 448 0 924 0 0 -2677 -1372 0 0 1081zm-62 -1969c-98,21 -122,90 -122,132l0 14 0 53 0 591c0,16 13,29 29,29l68 0 0 -99c0,-23 18,-42 42,-42 23,0 42,19 42,42l0 99 103 0 0 -99c0,-23 19,-42 42,-42 23,0 42,19 42,42l0 99 103 0 0 -99c0,-23 19,-42 42,-42 23,0 42,19 42,42l0 99 90 0 0 -99c0,-23 19,-42 42,-42 24,0 43,19 43,42l0 99 97 0 0 -99c0,-23 19,-42 43,-42l0 0c23,0 42,19 42,42l0 99 97 0 0 -99c0,-23 19,-42 42,-42l0 0c23,0 42,19 42,42l0 99 97 0 0 -99c0,-23 19,-42 42,-42 24,0 43,19 43,42l0 99 96 0 0 -99c0,-23 19,-42 43,-42 23,0 42,19 42,42l0 99 96 0 0 -99c0,-23 19,-42 43,-42l0 0c23,0 42,19 42,42l0 99 74 0c16,0 29,-13 29,-29l0 -591 0 -53 0 -1 0 -13c0,-42 -24,-111 -122,-132 -98,21 -122,90 -122,132l0 11 0 3 0 37c0,16 -13,29 -29,29l-113 0c-16,0 -29,-12 -29,-28l0 -1 0 -51c0,-42 -19,-111 -94,-132 -76,21 -94,90 -94,132l0 14 0 37c0,16 -13,29 -29,29l-115 0c-16,0 -29,-13 -29,-29l0 -37 0 -3 0 -11c0,-42 -18,-111 -94,-132 -76,21 -94,90 -94,132l0 11 0 3 0 37c0,16 -13,29 -29,29l-116 0c-16,0 -29,-12 -29,-27l0 -53c0,-42 -19,-111 -94,-132 -76,21 -95,90 -95,132l0 53c0,15 -13,27 -29,27l-112 0c-15,0 -28,-12 -29,-28l0 -1 0 -51c0,-42 -24,-111 -121,-132zm748 1177c-149,40 -185,176 -185,259l0 131 185 0 185 0 0 -131c0,-83 -36,-219 -185,-259zm-308 1751c0,18 15,33 33,33l232 0 0 77 -100 0c-18,0 -33,15 -33,33 0,18 15,33 33,33l265 0c18,0 33,-15 32,-34 0,-18 -17,-32 -35,-32l-97 0 0 -77 100 0c18,0 32,-15 32,-33 0,-18 -14,-33 -32,-33l-232 0 0 -77 286 0c18,0 33,-14 33,-32l0 -1c0,-18 -15,-32 -33,-32l-21 0 0 -77 117 0c18,0 32,-15 32,-33l0 0c0,-18 -14,-33 -32,-33l-272 0c-18,0 -33,15 -33,33 0,18 15,33 33,33l89 0 0 77 -199 0 0 0 -66 0 0 0 -99 0c-18,0 -33,14 -33,32 0,19 15,33 33,33l99 0 0 77 -99 0c-18,0 -33,15 -33,33z"/>
   <path class="fil1" d="M843 0c0,0 182,35 148,248 0,0 56,-77 150,-74 0,0 -60,65 -50,155 10,90 83,216 -54,338 0,0 -145,143 -329,0 0,0 -103,-73 -57,-231 0,0 53,-127 -12,-219 0,0 89,-6 130,74 0,0 5,-67 51,-120 47,-53 23,-171 23,-171zm-2 323l0 0c9,-94 64,-114 64,-114 -38,68 38,194 38,194 46,64 19,123 19,123 -1,-57 -85,-80 -85,-80 -2,18 -56,91 -56,91 -58,105 39,142 39,142 -86,-113 38,-174 38,-174 93,47 33,174 33,174 197,-135 21,-334 21,-334 -53,-87 -23,-182 -23,-182 -39,6 -74,42 -74,42 -57,71 -41,112 -45,149 -4,36 -25,88 -25,88 54,-26 56,-119 56,-119z"/>
   <path class="fil3" d="M5219 1728l0 2677 924 0 448 0 0 -1596 0 -1081 -1372 0zm-62 -888c-98,21 -122,90 -122,132l0 13 0 1 0 53 0 591c0,16 13,29 29,29l68 0 0 -99c0,-23 19,-42 42,-42 23,0 42,19 42,42l0 99 103 0 0 -99c0,-23 19,-42 42,-42 23,0 42,19 42,42l0 99 103 0 0 -99c0,-23 19,-42 42,-42 23,0 42,19 42,42l0 99 90 0 0 -99c0,-23 19,-42 42,-42 24,0 43,19 43,42l0 99 97 0 0 -99c0,-23 19,-42 43,-42l0 0c23,0 42,19 42,42l0 99 97 0 0 -99c0,-23 19,-42 42,-42l0 0c24,0 42,19 42,42l0 99 97 0 0 -99c0,-23 19,-42 42,-42 24,0 43,19 43,42l0 99 96 0 0 -99c0,-23 19,-42 43,-42 23,0 42,19 42,42l0 99 96 0 0 -99c0,-23 19,-42 43,-42l0 0c23,0 42,19 42,42l0 99 74 0c16,0 29,-13 29,-29l0 -591 0 -53 0 -1 0 -13c0,-42 -24,-111 -122,-132 -98,21 -122,90 -122,132l0 11 0 3 0 37c0,16 -13,29 -29,29l-113 0c-16,0 -29,-12 -29,-28l0 -1 0 -51c0,-42 -19,-111 -94,-132 -76,21 -94,90 -94,132l0 14 0 37c0,16 -13,29 -29,29l-115 0c-16,0 -29,-13 -29,-29l0 -37 0 -3 0 -11c0,-42 -18,-111 -94,-132 -76,21 -94,90 -94,132l0 11 0 3 0 37c0,16 -13,29 -29,29l-116 0c-16,0 -29,-12 -29,-27l0 -53c0,-42 -19,-111 -94,-132 -76,21 -95,90 -95,132l0 53c-1,15 -13,27 -29,27l-112 0c-15,0 -28,-12 -29,-28l0 -1 0 -51c0,-42 -24,-111 -121,-132zm1054 2928c0,18 -15,33 -33,33l-231 0 0 77 99 0c18,0 33,15 33,33 0,18 -15,33 -33,33l-264 0c-19,0 -33,-15 -33,-34 1,-18 17,-32 35,-32l97 0 0 -77 -99 0c-18,0 -33,-15 -33,-33 0,-18 15,-33 33,-33l231 0 0 -77 -286 0c-18,0 -32,-14 -32,-32l0 -1c0,-18 14,-32 32,-32l22 0 0 -77 -118 0c-17,0 -32,-15 -32,-33l0 0c0,-18 15,-33 32,-33l272 0c18,0 33,15 33,33 0,18 -15,33 -33,33l-88 0 0 77 198 0 0 0 66 0 0 0 99 0c18,0 33,14 33,32 0,19 -15,33 -33,33l-99 0 0 77 99 0c18,0 33,15 33,33zm-306 -1751c-149,40 -185,176 -185,259l0 131 185 0 185 0 0 -131c0,-83 -36,-219 -185,-259z"/>
   <path class="fil1" d="M5858 0c0,0 182,35 148,248 0,0 56,-77 150,-74 0,0 -60,65 -50,155 11,90 83,216 -54,338 0,0 -144,143 -329,0 0,0 -103,-73 -57,-231 0,0 53,-127 -12,-219 0,0 90,-6 130,74 0,0 6,-67 52,-120 46,-53 22,-171 22,-171zm-2 323l0 0c9,-94 64,-114 64,-114 -38,68 38,194 38,194 46,64 19,123 19,123 -1,-57 -84,-80 -84,-80 -3,18 -57,91 -57,91 -58,105 39,142 39,142 -86,-113 38,-174 38,-174 93,47 33,174 33,174 197,-135 22,-334 22,-334 -54,-87 -24,-182 -24,-182 -39,6 -74,42 -74,42 -57,71 -41,112 -45,149 -4,36 -25,88 -25,88 54,-26 56,-119 56,-119z"/>
   <path class="fil4" d="M7928 1527c-36,0 -67,-3 -94,-10 -28,-7 -51,-16 -69,-27 -19,-12 -33,-25 -43,-41 -9,-15 -14,-32 -14,-51 0,-25 7,-45 22,-60 15,-15 34,-22 58,-22 27,0 47,7 60,22 13,16 20,34 20,56 0,10 -3,21 -10,31 -6,10 -14,19 -22,27l0 5c8,4 18,6 28,7 10,1 20,2 29,2 42,0 74,-8 94,-25 20,-16 30,-46 30,-89l0 -32c0,-39 -10,-68 -31,-88 -21,-19 -56,-29 -105,-29l-55 0 0 -71 55 0c47,0 80,-10 99,-28 20,-19 30,-45 30,-77l0 -21c0,-34 -10,-60 -29,-79 -20,-18 -45,-27 -78,-27 -21,0 -39,2 -53,7l0 6c10,5 18,13 25,24 7,12 10,23 10,36 0,22 -6,41 -19,56 -13,15 -33,23 -60,23 -24,0 -44,-8 -58,-23 -15,-15 -23,-35 -23,-60 0,-18 5,-35 14,-51 8,-15 22,-29 39,-41 18,-11 40,-21 67,-27 26,-7 57,-10 91,-10 86,0 148,13 188,40 40,27 60,67 60,120 0,21 -6,41 -17,60 -11,18 -25,35 -42,49 -18,14 -38,26 -60,35 -22,9 -45,14 -68,17l0 7c25,3 49,8 72,16 23,7 44,18 62,31 18,13 33,29 44,48 11,19 17,42 17,69 0,29 -6,56 -17,80 -10,24 -27,45 -48,62 -22,17 -49,30 -82,39 -34,9 -73,14 -117,14z"/>
   <polygon class="fil4" points="8325,1451 8474,1451 8474,964 8315,1017 8288,962 8515,851 8638,851 8638,1451 8777,1451 8777,1515 8325,1515 "/>
   <path class="fil4" d="M9015 1246c-11,0 -22,-1 -31,-4 -9,-2 -17,-6 -24,-9 -7,-4 -13,-8 -17,-13 -5,-4 -8,-8 -10,-12l-3 0 0 31 -68 0 0 -113 68 0 0 24c0,20 8,34 22,42 15,8 34,12 59,12 25,0 44,-5 56,-15 13,-10 19,-23 19,-39 0,-8 -1,-15 -3,-21 -2,-6 -5,-11 -10,-15 -5,-4 -11,-8 -20,-11 -8,-3 -18,-6 -31,-8l-25 -5c-20,-4 -37,-9 -54,-16 -16,-6 -30,-15 -41,-25 -12,-11 -21,-23 -27,-38 -6,-14 -10,-32 -10,-51 0,-17 3,-32 9,-47 6,-14 15,-26 26,-36 12,-10 26,-17 43,-23 17,-6 36,-9 58,-9 12,0 22,2 32,4 9,3 17,6 24,10 7,3 13,8 17,12 5,4 8,9 11,13l2 0 0 -32 68 0 0 114 -68 0 0 -25c0,-20 -7,-34 -21,-42 -15,-8 -32,-12 -53,-12 -26,0 -45,5 -57,16 -12,10 -18,23 -18,37 0,8 1,15 4,21 3,6 7,11 13,16 6,4 13,8 23,11 9,3 21,6 35,8l23 5c20,4 38,9 54,16 16,6 29,14 40,24 11,10 19,22 25,36 6,14 8,29 8,48 0,17 -3,34 -10,48 -7,15 -16,28 -29,39 -13,10 -29,19 -47,25 -18,6 -39,9 -62,9z"/>
   <polygon class="fil4" points="9309,1202 9363,1202 9363,894 9292,894 9292,956 9224,956 9224,852 9598,852 9598,956 9530,956 9530,894 9458,894 9458,1202 9512,1202 9512,1239 9309,1239 "/>
   <polygon class="fil4" points="9910,1451 9977,1451 9977,916 9910,916 9910,851 10207,851 10207,916 10140,916 10140,1451 10207,1451 10207,1515 9910,1515 "/>
   <polygon class="fil4" points="10297,1451 10363,1451 10363,916 10297,916 10297,851 10568,851 10837,1318 10843,1318 10843,916 10777,916 10777,851 10988,851 10988,916 10921,916 10921,1515 10772,1515 10447,964 10441,964 10441,1451 10508,1451 10508,1515 10297,1515 "/>
   <polygon class="fil4" points="11200,1451 11293,1451 11293,922 11171,922 11171,1030 11054,1030 11054,851 11695,851 11695,1030 11578,1030 11578,922 11456,922 11456,1451 11549,1451 11549,1515 11200,1515 "/>
   <polygon class="fil4" points="11797,1451 11863,1451 11863,916 11797,916 11797,851 12339,851 12339,1030 12222,1030 12222,922 12027,922 12027,1132 12149,1132 12149,1077 12223,1077 12223,1258 12149,1258 12149,1203 12027,1203 12027,1444 12231,1444 12231,1316 12348,1316 12348,1515 11797,1515 "/>
   <path class="fil4" d="M12443 1451l67 0 0 -535 -67 0 0 -65 386 0c30,0 58,3 83,10 26,6 48,16 66,29 19,13 34,31 44,52 11,21 16,47 16,77 0,22 -4,43 -12,62 -8,19 -19,36 -32,50 -14,15 -30,27 -48,36 -18,10 -38,17 -58,21l126 208c13,21 26,36 40,43 13,8 31,12 52,12l3 0 0 64 -95 0c-23,0 -43,-1 -60,-5 -18,-3 -33,-9 -46,-16 -14,-8 -25,-18 -35,-29 -10,-12 -19,-26 -27,-43l-103 -201 -70 0 0 230 67 0 0 64 -297 0 0 -64zm230 -296l93 0c33,0 59,-7 76,-21 17,-14 26,-36 26,-67l0 -57c0,-31 -9,-53 -26,-67 -17,-14 -43,-21 -76,-21l-93 0 0 233z"/>
   <polygon class="fil4" points="13187,1451 13253,1451 13253,916 13187,916 13187,851 13458,851 13728,1318 13733,1318 13733,916 13667,916 13667,851 13878,851 13878,916 13811,916 13811,1515 13662,1515 13337,964 13331,964 13331,1451 13398,1451 13398,1515 13187,1515 "/>
   <path class="fil4" d="M13922 1451l48 0 211 -600 138 0 210 600 49 0 0 64 -291 0 0 -64 76 0 -45 -137 -217 0 -46 137 76 0 0 64 -209 0 0 -64zm199 -204l179 0 -89 -276 -4 0 -86 276z"/>
   <polygon class="fil4" points="14721,1451 14814,1451 14814,922 14692,922 14692,1030 14575,1030 14575,851 15217,851 15217,1030 15099,1030 15099,922 14978,922 14978,1451 15070,1451 15070,1515 14721,1515 "/>
   <polygon class="fil4" points="15300,1451 15367,1451 15367,916 15300,916 15300,851 15597,851 15597,916 15530,916 15530,1451 15597,1451 15597,1515 15300,1515 "/>
   <path class="fil4" d="M16000 1455c18,0 36,-2 52,-8 17,-6 32,-15 45,-28 13,-13 23,-29 31,-49 8,-20 11,-44 11,-73l0 -228c0,-28 -3,-53 -11,-73 -8,-20 -18,-36 -31,-49 -13,-12 -28,-22 -45,-27 -16,-6 -34,-9 -52,-9 -19,0 -37,3 -54,9 -17,5 -32,15 -45,27 -12,13 -22,29 -30,49 -8,20 -11,45 -11,73l0 228c0,29 3,53 11,73 8,20 18,36 30,49 13,13 28,22 45,28 17,6 35,8 54,8zm0 72c-46,0 -89,-8 -128,-22 -39,-15 -72,-37 -101,-67 -29,-29 -51,-65 -68,-108 -16,-43 -24,-92 -24,-147 0,-55 8,-104 24,-147 17,-43 39,-79 68,-108 29,-29 62,-51 101,-66 39,-15 82,-22 128,-22 45,0 88,7 127,22 39,15 72,37 101,66 29,29 51,65 68,108 16,43 24,92 24,147 0,55 -8,104 -24,147 -17,43 -39,79 -68,108 -29,30 -62,52 -101,67 -39,14 -82,22 -127,22z"/>
   <polygon class="fil4" points="16399,1451 16466,1451 16466,916 16399,916 16399,851 16670,851 16940,1318 16945,1318 16945,916 16879,916 16879,851 17090,851 17090,916 17023,916 17023,1515 16874,1515 16549,964 16544,964 16544,1451 16610,1451 16610,1515 16399,1515 "/>
   <path class="fil4" d="M17134 1451l48 0 211 -600 138 0 210 600 49 0 0 64 -291 0 0 -64 77 0 -46 -137 -217 0 -46 137 76 0 0 64 -209 0 0 -64zm199 -204l179 0 -89 -276 -4 0 -86 276z"/>
   <polygon class="fil4" points="17866,1451 17933,1451 17933,916 17866,916 17866,851 18170,851 18170,916 18096,916 18096,1444 18274,1444 18274,1316 18391,1316 18391,1515 17866,1515 "/>
   <path class="fil4" d="M8043 2435c19,0 36,-3 53,-8 17,-6 32,-16 45,-28 13,-13 23,-29 31,-49 7,-20 11,-45 11,-73l0 -228c0,-28 -4,-53 -11,-73 -8,-20 -18,-36 -31,-49 -13,-13 -28,-22 -45,-28 -17,-6 -34,-8 -53,-8 -18,0 -36,2 -53,8 -17,6 -32,15 -45,28 -13,13 -23,29 -30,49 -8,20 -12,45 -12,73l0 228c0,28 4,53 12,73 7,20 17,36 30,49 13,12 28,22 45,28 17,5 35,8 53,8zm0 71c-46,0 -88,-7 -127,-22 -39,-15 -73,-37 -101,-66 -29,-29 -51,-65 -68,-108 -16,-43 -25,-92 -25,-147 0,-55 9,-104 25,-147 17,-43 39,-79 68,-108 28,-29 62,-52 101,-66 39,-15 81,-23 127,-23 46,0 88,8 127,23 39,14 73,37 102,66 28,29 51,65 67,108 17,43 25,92 25,147 0,55 -8,104 -25,147 -16,43 -39,79 -67,108 -29,29 -63,51 -102,66 -39,15 -81,23 -127,22z"/>
   <polygon class="fil4" points="8443,2430 8509,2430 8509,1895 8443,1895 8443,1831 8746,1831 8746,1895 8673,1895 8673,2424 8850,2424 8850,2296 8967,2296 8967,2495 8443,2495 "/>
   <polygon class="fil4" points="9127,2430 9203,2430 9203,2229 9021,1895 8973,1895 8973,1831 9265,1831 9265,1895 9198,1895 9326,2139 9330,2139 9459,1895 9392,1895 9392,1831 9596,1831 9596,1895 9548,1895 9366,2207 9366,2430 9442,2430 9442,2495 9127,2495 "/>
   <polygon class="fil4" points="9678,2430 9745,2430 9745,1895 9678,1895 9678,1831 9929,1831 10076,2141 10080,2141 10215,1831 10471,1831 10471,1895 10405,1895 10405,2430 10471,2430 10471,2495 10174,2495 10174,2430 10241,2430 10241,1950 10235,1950 10176,2093 10031,2393 9887,2090 9829,1950 9823,1950 9823,2430 9890,2430 9890,2495 9678,2495 "/>
   <path class="fil4" d="M10561 2430l67 0 0 -535 -67 0 0 -64 378 0c72,0 126,15 162,46 35,31 53,76 53,135 0,61 -19,109 -58,143 -39,34 -94,52 -167,52l-138 0 0 223 93 0 0 65 -323 0 0 -65zm230 -295l91 0c33,0 59,-7 77,-22 19,-15 28,-38 28,-70l0 -49c0,-31 -9,-55 -28,-70 -18,-15 -44,-22 -77,-22l-91 0 0 233z"/>
   <polygon class="fil4" points="11231,2430 11297,2430 11297,1895 11231,1895 11231,1831 11528,1831 11528,1895 11461,1895 11461,2430 11528,2430 11528,2495 11231,2495 "/>
   <path class="fil4" d="M11580 2430l49 0 210 -599 138 0 211 599 48 0 0 65 -290 0 0 -65 76 0 -46 -137 -217 0 -46 137 77 0 0 65 -210 0 0 -65zm199 -203l179 0 -88 -276 -4 0 -87 276z"/>
   <path class="fil4" d="M12337 2430l67 0 0 -535 -67 0 0 -64 318 0c46,0 90,7 130,22 40,15 75,36 105,65 29,28 52,63 69,104 17,41 25,88 25,141 0,53 -8,100 -25,141 -17,41 -40,76 -69,104 -30,28 -65,50 -105,65 -40,15 -84,22 -130,22l-318 0 0 -65zm230 -6l58 0c33,0 60,-3 83,-9 23,-6 42,-15 55,-28 14,-14 25,-31 31,-53 6,-21 9,-48 9,-81l0 -181c0,-32 -3,-59 -9,-80 -6,-22 -17,-40 -31,-53 -13,-13 -32,-23 -55,-28 -23,-6 -50,-9 -83,-9l-58 0 0 522z"/>
   <polygon class="fil4" points="13294,2430 13360,2430 13360,1895 13294,1895 13294,1831 13591,1831 13591,1895 13524,1895 13524,2430 13591,2430 13591,2495 13294,2495 "/>
   <polygon class="fil4" points="13681,2430 13747,2430 13747,1895 13681,1895 13681,1831 13952,1831 14221,2298 14227,2298 14227,1895 14160,1895 14160,1831 14372,1831 14372,1895 14305,1895 14305,2495 14156,2495 13831,1944 13825,1944 13825,2430 13892,2430 13892,2495 13681,2495 "/>
   <polygon class="fil4" points="14671,2430 14737,2430 14737,1895 14671,1895 14671,1831 14968,1831 14968,1895 14901,1895 14901,2430 14968,2430 14968,2495 14671,2495 "/>
   <polygon class="fil4" points="15046,2430 15112,2430 15112,1895 15046,1895 15046,1831 15317,1831 15586,2298 15592,2298 15592,1895 15526,1895 15526,1831 15737,1831 15737,1895 15670,1895 15670,2495 15521,2495 15196,1944 15190,1944 15190,2430 15257,2430 15257,2495 15046,2495 "/>
   <polygon class="fil4" points="15839,2430 15905,2430 15905,1895 15839,1895 15839,1831 16381,1831 16381,2010 16264,2010 16264,1902 16069,1902 16069,2126 16191,2126 16191,2071 16265,2071 16265,2252 16191,2252 16191,2197 16069,2197 16069,2430 16161,2430 16161,2495 15839,2495 "/>
   <path class="fil4" d="M16787 2435c19,0 36,-3 53,-8 17,-6 32,-16 45,-28 13,-13 23,-29 31,-49 7,-20 11,-45 11,-73l0 -228c0,-28 -4,-53 -11,-73 -8,-20 -18,-36 -31,-49 -13,-13 -28,-22 -45,-28 -17,-6 -34,-8 -53,-8 -18,0 -36,2 -53,8 -17,6 -32,15 -45,28 -13,13 -23,29 -30,49 -8,20 -12,45 -12,73l0 228c0,28 4,53 12,73 7,20 17,36 30,49 13,12 28,22 45,28 17,5 35,8 53,8zm0 71c-46,0 -88,-7 -127,-22 -39,-15 -73,-37 -101,-66 -29,-29 -51,-65 -68,-108 -16,-43 -25,-92 -25,-147 0,-55 9,-104 25,-147 17,-43 39,-79 68,-108 28,-29 62,-52 101,-66 39,-15 81,-23 127,-23 46,0 88,8 127,23 39,14 73,37 102,66 28,29 51,65 67,108 17,43 25,92 25,147 0,55 -8,104 -25,147 -16,43 -39,79 -67,108 -29,29 -63,51 -102,66 -39,15 -81,23 -127,22z"/>
   <path class="fil4" d="M17187 2430l66 0 0 -535 -66 0 0 -64 386 0c30,0 57,3 83,9 25,6 47,16 66,30 19,13 33,30 44,52 10,21 15,46 15,76 0,23 -3,44 -11,63 -8,19 -19,36 -33,50 -13,14 -29,26 -47,36 -18,9 -38,16 -59,21l127 207c12,22 26,36 39,44 14,8 31,11 52,11l4 0 0 65 -95 0c-23,0 -43,-2 -61,-5 -17,-4 -33,-9 -46,-17 -13,-7 -25,-17 -35,-29 -10,-12 -19,-26 -27,-42l-103 -201 -69 0 0 229 67 0 0 65 -297 0 0 -65zm230 -296l92 0c34,0 59,-7 76,-21 18,-14 26,-36 26,-66l0 -57c0,-31 -8,-53 -26,-67 -17,-14 -42,-21 -76,-21l-92 0 0 232z"/>
   <polygon class="fil4" points="17930,2430 17997,2430 17997,1895 17930,1895 17930,1831 18181,1831 18328,2141 18332,2141 18467,1831 18723,1831 18723,1895 18657,1895 18657,2430 18723,2430 18723,2495 18426,2495 18426,2430 18493,2430 18493,1950 18487,1950 18428,2093 18283,2393 18139,2090 18081,1950 18075,1950 18075,2430 18142,2430 18142,2495 17930,2495 "/>
   <path class="fil4" d="M18800 2430l49 0 210 -599 138 0 211 599 48 0 0 65 -290 0 0 -65 76 0 -46 -137 -217 0 -46 137 77 0 0 65 -210 0 0 -65zm199 -203l179 0 -88 -276 -4 0 -87 276z"/>
   <polygon class="fil4" points="19600,2430 19692,2430 19692,1902 19571,1902 19571,2010 19453,2010 19453,1831 20095,1831 20095,2010 19978,2010 19978,1902 19856,1902 19856,2430 19948,2430 19948,2495 19600,2495 "/>
   <polygon class="fil4" points="20179,2430 20245,2430 20245,1895 20179,1895 20179,1831 20476,1831 20476,1895 20409,1895 20409,2430 20476,2430 20476,2495 20179,2495 "/>
   <path class="fil4" d="M20862 2506c-49,0 -92,-8 -131,-26 -38,-18 -70,-42 -95,-73 -26,-31 -45,-67 -59,-109 -13,-42 -20,-87 -20,-134 0,-57 8,-106 24,-149 17,-43 38,-79 65,-108 27,-29 58,-51 93,-66 35,-15 71,-22 110,-22 20,0 39,2 55,6 16,5 29,10 41,16 11,6 21,14 28,22 8,7 14,15 17,23l6 0 0 -55 117 0 0 214 -117 0 0 -43c0,-32 -10,-58 -31,-78 -21,-20 -52,-30 -94,-30 -40,0 -73,13 -97,38 -24,24 -36,64 -36,120l0 201c0,29 4,54 12,74 7,21 18,38 31,51 14,13 30,23 48,29 19,6 39,9 60,9 42,0 77,-11 105,-32 29,-21 50,-50 65,-86l57 32c-9,25 -21,48 -37,70 -16,22 -35,40 -56,56 -22,16 -46,28 -74,37 -27,9 -56,14 -87,13z"/>
   <path class="fil4" d="M21481 2506c-19,0 -37,-2 -53,-6 -16,-4 -30,-10 -41,-17 -12,-6 -22,-13 -30,-21 -8,-7 -14,-14 -18,-21l-3 0 0 54 -117 0 0 -195 117 0 0 42c0,35 12,59 37,72 25,14 59,21 101,21 43,0 75,-8 97,-26 21,-17 32,-39 32,-67 0,-14 -2,-26 -5,-36 -4,-10 -9,-18 -18,-26 -8,-7 -19,-13 -34,-18 -14,-6 -32,-10 -53,-15l-43 -8c-34,-7 -64,-16 -92,-27 -28,-11 -51,-26 -71,-44 -20,-18 -36,-39 -47,-64 -10,-25 -16,-55 -16,-89 0,-28 5,-55 15,-79 11,-24 26,-44 45,-62 20,-17 44,-30 73,-40 29,-10 62,-15 100,-15 20,0 38,2 54,7 16,4 30,10 42,16 12,7 22,14 30,21 8,8 13,15 17,22l4 0 0 -54 117 0 0 195 -117 0 0 -42c0,-34 -12,-58 -37,-72 -24,-14 -54,-21 -90,-21 -45,0 -77,9 -98,27 -20,18 -30,39 -30,64 0,14 2,26 7,36 4,10 11,19 21,26 11,8 24,14 40,20 16,5 36,10 60,15l40 7c35,7 65,16 92,27 27,11 50,25 69,43 19,17 33,37 43,60 10,24 14,51 14,82 0,31 -5,59 -17,84 -12,25 -29,47 -51,65 -22,19 -48,33 -80,44 -31,10 -66,16 -106,15z"/>
   <path class="fil4" d="M7895 3466l-205 0 0 -72 191 -322 136 0 0 307 74 0 0 87 -74 0 0 119 -122 0 0 -119zm-141 -87l141 0 0 -232 -3 0 -138 232z"/>
   <polygon class="fil4" points="8181,3319 8410,3319 8410,3402 8181,3402 "/>
   <polygon class="fil4" points="8479,3535 8594,3535 8594,3159 8471,3200 8451,3158 8625,3072 8720,3072 8720,3535 8828,3535 8828,3585 8479,3585 "/>
   <polygon class="fil4" points="8923,3535 9038,3535 9038,3159 8915,3200 8895,3158 9069,3072 9164,3072 9164,3535 9272,3535 9272,3585 8923,3585 "/>
   <path class="fil4" d="M9481 3535l37 0 163 -463 106 0 163 463 37 0 0 50 -224 0 0 -50 59 0 -35 -106 -168 0 -35 106 59 0 0 50 -162 0 0 -50zm153 -157l139 0 -69 -214 -3 0 -67 214z"/>
   <path class="fil4" d="M10292 3594c-41,0 -76,-4 -105,-12 -28,-8 -52,-20 -70,-37 -18,-17 -31,-38 -40,-64 -8,-26 -12,-57 -12,-92l0 -267 -51 0 0 -50 229 0 0 50 -52 0 0 267c0,25 2,47 6,65 4,18 10,33 19,45 8,12 20,21 34,27 15,6 33,9 55,9 44,0 74,-12 92,-35 18,-23 26,-59 26,-109l0 -269 -51 0 0 -50 163 0 0 50 -51 0 0 270c0,66 -15,116 -46,150 -30,34 -79,52 -146,52z"/>
   <path class="fil4" d="M10835 3594c-34,0 -66,-7 -95,-19 -29,-12 -54,-30 -74,-52 -21,-23 -37,-51 -49,-83 -11,-33 -17,-70 -17,-111 0,-43 6,-81 19,-114 13,-33 31,-61 54,-84 22,-22 48,-39 78,-51 29,-11 61,-17 95,-17 34,0 61,6 81,17 20,11 33,23 39,35l5 -1 0 -42 90 0 0 165 -90 0 0 -33c0,-25 -8,-45 -23,-60 -16,-15 -41,-23 -76,-23 -45,0 -78,11 -100,33 -22,22 -33,56 -33,103l0 145c0,43 10,76 29,98 19,22 46,33 81,33 35,0 60,-8 75,-25 16,-18 23,-39 23,-64l0 -69 -72 0 0 -50 236 0 0 50 -37 0 0 210 -43 0 -48 -74 -5 0c-2,8 -8,17 -16,26 -8,10 -18,19 -31,27 -13,8 -27,15 -44,21 -16,6 -33,9 -52,9z"/>
   <path class="fil4" d="M11453 3594c-41,0 -76,-4 -105,-12 -29,-8 -52,-20 -70,-37 -18,-17 -31,-38 -40,-64 -8,-26 -12,-57 -12,-92l0 -267 -52 0 0 -50 230 0 0 50 -52 0 0 267c0,25 2,47 6,65 3,18 10,33 18,45 9,12 21,21 35,27 15,6 33,9 55,9 44,0 74,-12 92,-35 18,-23 26,-59 26,-109l0 -269 -51 0 0 -50 163 0 0 50 -51 0 0 270c0,66 -16,116 -46,150 -30,34 -79,52 -146,52z"/>
   <path class="fil4" d="M11970 3594c-16,0 -29,-2 -42,-5 -12,-4 -23,-8 -32,-13 -9,-5 -16,-11 -22,-16 -7,-6 -11,-12 -14,-17l-3 0 0 42 -90 0 0 -151 90 0 0 33c0,26 10,45 29,56 19,10 45,15 78,15 33,0 58,-6 75,-20 16,-13 25,-30 25,-51 0,-11 -2,-20 -5,-28 -2,-8 -7,-14 -13,-20 -6,-6 -15,-10 -26,-15 -11,-3 -25,-7 -42,-11l-33 -6c-26,-5 -49,-12 -71,-21 -21,-9 -39,-20 -55,-34 -15,-13 -27,-30 -35,-49 -9,-19 -13,-42 -13,-69 0,-22 4,-42 12,-61 8,-18 19,-34 34,-47 16,-14 34,-24 57,-32 22,-7 47,-11 76,-11 16,0 30,2 43,5 12,4 23,8 32,13 9,5 17,10 23,16 6,6 10,12 13,17l3 0 0 -42 91 0 0 151 -91 0 0 -33c0,-26 -9,-45 -28,-56 -19,-10 -42,-16 -70,-16 -34,0 -59,7 -75,21 -16,14 -24,31 -24,49 0,11 2,21 5,29 4,7 10,14 17,20 8,6 18,11 31,15 12,4 28,8 46,11l31 6c27,5 50,12 71,21 21,9 39,19 53,33 15,13 26,29 33,47 8,18 12,39 12,63 0,23 -5,45 -14,64 -9,20 -22,37 -39,51 -17,14 -37,25 -62,33 -24,8 -51,13 -81,13z"/>
   <polygon class="fil4" points="12351,3535 12422,3535 12422,3127 12328,3127 12328,3210 12238,3210 12238,3072 12733,3072 12733,3210 12642,3210 12642,3127 12548,3127 12548,3535 12620,3535 12620,3585 12351,3585 "/>
   <path class="fil4" d="M12951 3500l143 -141c22,-22 41,-45 55,-67 15,-23 22,-48 22,-76l0 -22c0,-28 -7,-49 -22,-64 -14,-14 -34,-21 -58,-21 -13,0 -26,2 -38,6l0 4c8,5 14,12 19,19 5,8 8,17 8,27 0,16 -5,30 -15,42 -10,12 -26,18 -46,18 -19,0 -34,-5 -46,-17 -11,-11 -17,-27 -17,-46 0,-14 4,-27 10,-39 7,-12 18,-22 31,-31 14,-9 31,-16 50,-21 20,-5 43,-8 69,-8 61,0 108,12 141,37 33,24 49,59 49,105 0,20 -4,39 -11,56 -8,16 -18,32 -31,46 -13,15 -28,29 -44,42 -17,12 -34,26 -51,39l-131 94 0 3 228 0 0 -63 55 0 0 163 -370 0 0 -85z"/>
   <path class="fil4" d="M13603 3538c15,0 27,-3 36,-10 8,-7 15,-17 19,-30 3,-13 6,-29 6,-49 1,-19 2,-42 2,-68l0 -105c0,-26 -1,-48 -2,-68 0,-20 -3,-36 -6,-50 -4,-13 -11,-23 -19,-30 -9,-6 -21,-10 -36,-10 -16,0 -28,4 -36,10 -8,7 -14,17 -18,30 -4,14 -6,30 -7,50 -1,20 -1,42 -1,68l0 105c0,26 0,49 1,68 1,20 3,36 7,49 4,13 10,23 18,30 8,7 20,10 36,10zm0 56c-66,0 -116,-23 -148,-70 -33,-46 -49,-111 -49,-196 0,-84 16,-150 49,-196 32,-46 82,-69 148,-69 67,0 116,23 149,69 32,46 48,112 48,196 0,85 -16,150 -48,196 -33,46 -82,70 -149,70z"/>
   <polygon class="fil4" points="13894,3535 14009,3535 14009,3159 13886,3200 13865,3158 14040,3072 14135,3072 14135,3535 14243,3535 14243,3585 13894,3585 "/>
   <path class="fil4" d="M14347 3556c64,-16 112,-42 146,-80 34,-37 53,-83 57,-137l-2 -1c-3,9 -8,17 -14,26 -7,9 -15,16 -24,23 -10,6 -21,12 -34,16 -12,4 -27,6 -42,6 -47,0 -83,-14 -106,-42 -24,-28 -35,-68 -35,-120 0,-26 4,-51 12,-74 8,-23 21,-42 37,-58 16,-17 36,-29 60,-38 24,-9 52,-14 83,-14 30,0 57,5 81,14 24,10 44,24 61,42 17,17 29,39 38,65 10,25 14,53 14,85 0,53 -8,99 -24,139 -16,39 -39,73 -67,100 -28,27 -62,48 -101,63 -40,14 -82,24 -128,27l-12 -42zm139 -221c13,0 24,-2 32,-7 8,-5 14,-11 19,-20 4,-8 7,-19 8,-31 1,-12 2,-26 2,-42l0 -17c0,-15 -1,-29 -2,-42 -1,-12 -4,-23 -8,-31 -5,-9 -11,-15 -19,-20 -8,-5 -19,-7 -32,-7 -13,0 -24,2 -32,7 -8,5 -14,11 -19,20 -4,8 -7,19 -8,31 -2,13 -2,27 -2,42l0 17c0,16 0,30 2,42 1,12 4,23 8,31 5,9 11,15 19,20 8,5 19,7 32,7z"/>
   <path class="fil4" d="M7703 4351l51 0 0 -413 -51 0 0 -50 271 0c31,0 58,3 81,9 22,7 41,15 55,26 15,11 25,23 32,38 7,15 11,31 11,48 0,17 -4,33 -10,46 -6,14 -15,25 -25,35 -11,10 -23,18 -37,24 -14,6 -28,11 -43,14l0 4c15,2 31,6 47,12 16,6 31,14 44,24 13,10 24,23 32,38 9,15 13,32 13,53 0,45 -15,80 -46,105 -31,25 -77,37 -139,37l-286 0 0 -50zm178 -4l78 0c28,0 49,-6 63,-19 15,-13 22,-31 22,-55l0 -35c0,-24 -7,-42 -22,-55 -14,-13 -35,-19 -63,-19l-78 0 0 183zm0 -235l65 0c51,0 77,-23 77,-69l0 -33c0,-45 -26,-68 -77,-68l-65 0 0 170z"/>
   <path class="fil4" d="M8230 4351l37 0 163 -463 106 0 163 463 37 0 0 50 -224 0 0 -50 59 0 -35 -106 -168 0 -35 106 59 0 0 50 -162 0 0 -50zm154 -157l138 0 -69 -213 -3 0 -66 213z"/>
   <polygon class="fil4" points="8803,4351 8855,4351 8855,3938 8803,3938 8803,3888 9033,3888 9033,3938 8981,3938 8981,4142 8986,4142 9074,4049 9176,3938 9124,3938 9124,3888 9310,3888 9310,3938 9255,3938 9125,4071 9298,4351 9340,4351 9340,4401 9105,4401 9105,4351 9150,4351 9038,4156 8981,4213 8981,4351 9033,4351 9033,4401 8803,4401 "/>
   <path class="fil4" d="M9672 4410c-41,0 -76,-4 -105,-12 -28,-8 -52,-20 -70,-37 -18,-16 -31,-38 -40,-64 -8,-26 -12,-56 -12,-92l0 -267 -52 0 0 -50 230 0 0 50 -52 0 0 268c0,25 2,46 6,64 3,18 10,33 19,45 8,12 20,21 34,27 15,6 33,9 55,9 44,0 74,-11 92,-34 18,-23 26,-60 26,-109l0 -270 -51 0 0 -50 163 0 0 50 -51 0 0 271c0,65 -15,115 -46,149 -30,35 -79,52 -146,52z"/>
   <path class="fil4" d="M10560 4351l38 0 162 -463 107 0 162 463 37 0 0 50 -224 0 0 -50 59 0 -35 -106 -168 0 -35 106 59 0 0 50 -162 0 0 -50zm154 -157l138 0 -68 -213 -3 0 -67 213z"/>
   <polygon class="fil4" points="11136,4348 11407,3943 11237,3943 11237,4026 11147,4026 11147,3888 11551,3888 11551,3941 11280,4346 11469,4346 11469,4248 11559,4248 11559,4401 11136,4401 "/>
   <polygon class="fil4" points="11639,4351 11691,4351 11691,3938 11639,3938 11639,3888 12058,3888 12058,4026 11968,4026 11968,3943 11817,3943 11817,4105 11911,4105 11911,4062 11969,4062 11969,4203 11911,4203 11911,4160 11817,4160 11817,4346 11974,4346 11974,4248 12065,4248 12065,4401 11639,4401 "/>
   <path class="fil4" d="M12147 4351l51 0 0 -413 -51 0 0 -50 298 0c23,0 45,3 64,8 20,4 37,12 51,22 15,11 26,24 34,40 8,17 12,37 12,60 0,17 -3,33 -9,48 -6,15 -14,28 -25,39 -10,11 -23,20 -37,27 -14,8 -29,13 -45,16l98 160c10,17 20,28 30,34 11,6 24,9 40,9l3 0 0 50 -73 0c-18,0 -33,-1 -47,-4 -13,-3 -25,-7 -35,-13 -11,-6 -20,-13 -27,-22 -8,-9 -15,-20 -21,-33l-80 -155 -53 0 0 177 51 0 0 50 -229 0 0 -50zm178 -228l71 0c26,0 46,-6 59,-17 13,-10 20,-27 20,-51l0 -44c0,-24 -7,-41 -20,-51 -13,-11 -33,-17 -59,-17l-71 0 0 180z"/>
   <path class="fil4" d="M12729 4351l52 0 0 -413 -52 0 0 -50 271 0c32,0 59,3 81,9 23,7 41,15 56,26 14,11 25,23 32,38 7,15 10,31 10,48 0,17 -3,33 -10,46 -6,14 -14,25 -25,35 -10,10 -23,18 -37,24 -14,6 -28,11 -43,14l0 4c16,2 31,6 47,12 17,6 31,14 44,24 14,10 24,23 33,38 8,15 12,32 12,53 0,45 -15,80 -46,105 -30,25 -77,37 -139,37l-286 0 0 -50zm178 -4l79 0c27,0 48,-6 63,-19 14,-13 21,-31 21,-55l0 -35c0,-24 -7,-42 -21,-55 -15,-13 -36,-19 -63,-19l-79 0 0 183zm0 -235l66 0c50,0 76,-23 76,-69l0 -33c0,-45 -26,-68 -77,-68l-65 0 0 170z"/>
   <path class="fil4" d="M13256 4351l38 0 162 -463 107 0 162 463 38 0 0 50 -224 0 0 -50 58 0 -35 -106 -167 0 -36 106 59 0 0 50 -162 0 0 -50zm154 -157l138 0 -68 -213 -3 0 -67 213z"/>
   <polygon class="fil4" points="13802,4351 13854,4351 13854,3938 13802,3938 13802,3888 14032,3888 14032,3938 13980,3938 13980,4351 14032,4351 14032,4401 13802,4401 "/>
   <path class="fil4" d="M14249 4410c-42,0 -73,-8 -93,-24 -20,-16 -30,-36 -30,-61 0,-16 5,-29 15,-41 10,-12 25,-17 44,-17 16,0 30,4 40,14 11,9 16,21 16,36 0,9 -2,18 -5,25 -3,6 -7,11 -13,14l0 5c4,1 7,1 12,1 4,1 8,1 11,1 18,0 32,-6 41,-17 10,-11 14,-30 14,-57l0 -351 -71 0 0 -50 249 0 0 50 -51 0 0 310c0,23 -4,45 -10,65 -6,20 -17,37 -31,52 -13,14 -32,25 -55,33 -22,8 -50,12 -83,12z"/>
   <path class="fil4" d="M14510 4351l37 0 162 -463 107 0 162 463 38 0 0 50 -224 0 0 -50 59 0 -36 -106 -167 0 -35 106 58 0 0 50 -161 0 0 -50zm153 -157l138 0 -68 -213 -3 0 -67 213z"/>
   <polygon class="fil4" points="15083,4351 15135,4351 15135,3938 15083,3938 15083,3888 15293,3888 15500,4249 15505,4249 15505,3938 15453,3938 15453,3888 15617,3888 15617,3938 15565,3938 15565,4401 15450,4401 15199,3976 15195,3976 15195,4351 15246,4351 15246,4401 15083,4401 "/>
   <circle class="fil5" cx="10279" cy="4149" r="87"/>
  </g>
 </g>
</svg>
